<svg width="20" height="20" viewBox="0 0 20 20" fill="none" xmlns="http://www.w3.org/2000/svg">
<g id="Frame 1686557898">
<path id="Vector 315" d="M7.70083 17.5181L6.62242 13.4934C6.5033 13.0489 6.76712 12.5919 7.21168 12.4728L7.94639 12.2759C8.33636 12.1714 8.74514 12.3615 8.91656 12.727L10.7137 16.5592C10.934 17.0289 10.676 17.5836 10.1749 17.7179L8.72145 18.1074C8.2769 18.2265 7.81995 17.9627 7.70083 17.5181Z" fill="white"/>
<path id="Rectangle 240652439" d="M2.91267 9.3113C2.55532 7.97763 3.34677 6.60679 4.68044 6.24944L8.83511 5.1362L10.7763 12.3806L6.62158 13.4939C5.28792 13.8512 3.91707 13.0598 3.55972 11.7261L2.91267 9.3113Z" fill="#C8D0F9"/>
<path id="Rectangle 240652437" d="M8.0568 5.96715C7.85705 5.22168 8.19523 4.43658 8.87416 4.0696L12.6421 2.03292C13.5892 1.52101 14.7658 2.02786 15.0445 3.06774L17.1875 11.0654C17.4661 12.1053 16.7005 13.1326 15.6243 13.1628L11.3429 13.283C10.5714 13.3046 9.886 12.7938 9.68625 12.0483L8.0568 5.96715Z" fill="white"/>
</g>
</svg>
