<svg width="98" height="104" viewBox="0 0 98 104" fill="none" xmlns="http://www.w3.org/2000/svg">
<path d="M81.5536 12.021H16.4436C10.2138 12.021 5.16357 17.0712 5.16357 23.301V88.411C5.16357 94.6408 10.2138 99.691 16.4436 99.691H81.5536C87.7833 99.691 92.8336 94.6408 92.8336 88.411V23.301C92.8336 17.0712 87.7833 12.021 81.5536 12.021Z" fill="#CBCDD7"/>
<path d="M81.5536 24.0686H16.4436C10.2138 24.0686 5.16357 29.1188 5.16357 35.3486V85.2911C5.16357 91.5209 10.2138 96.5711 16.4436 96.5711H81.5536C87.7833 96.5711 92.8336 91.5209 92.8336 85.2911V35.3486C92.8336 29.1188 87.7833 24.0686 81.5536 24.0686Z" fill="#F6F7F8"/>
<circle cx="44.3676" cy="81.0657" r="4.39648" transform="rotate(15 44.3676 81.0657)" fill="#FFBF00"/>
<circle cx="52.9827" cy="48.4786" r="2.93099" transform="rotate(15 52.9827 48.4786)" fill="#FFE491"/>
<path d="M33.9463 59.5614C36.1808 51.2223 44.7524 46.2735 53.0915 48.508C61.4306 50.7425 66.3794 59.314 64.1449 67.6532L60.0991 82.7524L29.9005 74.6608L33.9463 59.5614Z" fill="#FFD34E"/>
<rect x="27.8325" y="67.2788" width="39.0799" height="9.03722" rx="4.51861" transform="rotate(15 27.8325 67.2788)" fill="#FFD34E"/>
<path d="M16.4461 11.8987H81.5561C87.7811 11.8987 92.8361 16.9537 92.8361 23.1787V36.2387H5.16357V23.1787C5.16357 16.9537 10.2186 11.8987 16.4461 11.8987Z" fill="#474A5C"/>
<path d="M27.4058 3.30859V20.4911C25.2183 20.4911 23.4458 18.7186 23.4458 16.5336V7.26859C23.4458 5.08109 25.2183 3.30859 27.4058 3.30859Z" fill="#F6F7F8"/>
<path d="M31.3662 7.26859V16.5336C31.3662 18.7186 29.5938 20.4911 27.4062 20.4911V3.30859C28.4987 3.30859 29.4887 3.75359 30.2087 4.46609C30.9237 5.18609 31.3662 6.17359 31.3662 7.26859Z" fill="#DADBE2"/>
<path d="M74.5537 7.26859V16.5336C74.5537 18.7186 72.7812 20.4911 70.5938 20.4911V3.30859C71.6862 3.30859 72.6788 3.75359 73.3913 4.46609C74.1038 5.17859 74.5537 6.17359 74.5537 7.26859Z" fill="#DADBE2"/>
<path d="M70.5933 3.30859V20.4911C68.4058 20.4911 66.6333 18.7186 66.6333 16.5336V7.26859C66.6333 5.08109 68.4058 3.30859 70.5933 3.30859Z" fill="#F6F7F8"/>
<path d="M37.5411 96.571L16.4461 99.6885C10.2161 99.6885 5.16357 94.6385 5.16357 88.4085V64.196L37.5411 96.571Z" fill="#CBCDD7"/>
<path d="M37.5411 75.476V96.571L5.16357 64.196H26.2611C32.4911 64.196 37.5411 69.246 37.5411 75.476Z" fill="#E8E9ED"/>
</svg>
