<svg width="275" height="56" viewBox="0 0 275 56" fill="none" xmlns="http://www.w3.org/2000/svg">
<path fill-rule="evenodd" clip-rule="evenodd" d="M4.08986 2.50134C-0.110681 5.9271 -1.15629 11.7873 1.32846 16.3863C1.88241 17.4116 3.23346 17.5404 4.13659 16.8038L18.0907 5.42349C18.9938 4.68695 19.1395 3.33761 18.2465 2.58877C14.2411 -0.770131 8.2904 -0.924421 4.08986 2.50134ZM54.4272 2.5014C58.6277 5.92716 59.6734 11.7873 57.1886 16.3864C56.6347 17.4117 55.2836 17.5404 54.3805 16.8039L40.4263 5.42355C39.5232 4.68701 39.3776 3.33767 40.2706 2.58884C44.2759 -0.770068 50.2267 -0.924358 54.4272 2.5014ZM35.715 38.7092C36.716 37.7081 36.716 36.0852 35.715 35.0841L31.5244 30.8935V21.8613C31.5244 20.4456 30.3768 19.298 28.9611 19.298C27.5454 19.298 26.3978 20.4456 26.3978 21.8613V31.3382C26.2149 32.1647 26.4449 33.0641 27.0878 33.7071L32.0899 38.7092C33.091 39.7102 34.714 39.7102 35.715 38.7092ZM258.97 21.7143C249.409 21.7143 242.157 29.1648 242.157 38.8571C242.157 48.5494 249.739 55.9999 259.695 55.9999C265.102 55.9999 269.717 54.0878 272.882 50.5933L267.937 45.6483C265.959 47.8241 262.926 48.945 259.761 48.945C254.882 48.945 251.19 46.4395 249.871 42.3516H274.398C274.43 42.0318 274.466 41.7082 274.502 41.3835C274.614 40.3692 274.728 39.3445 274.728 38.3956C274.728 28.5714 268.332 21.7143 258.97 21.7143ZM249.739 36.2857C250.398 31.7362 254.288 28.7033 258.838 28.7033C263.255 28.7033 266.75 31.6044 267.409 36.2857H249.739ZM183.087 55.3406V22.3736H190.867V25.934C193.307 23.3626 196.867 21.7143 200.757 21.7143C205.768 21.7143 209.725 24.022 211.834 27.9121C214.801 24.1538 218.296 21.7143 223.571 21.7143C231.219 21.7143 236.494 27.1209 236.494 35.4945V55.3406H228.713V37.1428C228.713 31.6044 225.812 29.0329 221.659 29.0329C217.175 29.0329 213.681 32.3296 213.681 37.4065V55.3406H205.9V37.1428C205.9 31.6044 202.999 29.0329 198.845 29.0329C194.362 29.0329 190.867 32.3296 190.867 37.5384V55.3406H183.087ZM167.634 55.3405H175.414V22.3735H167.634V55.3405ZM171.524 7.20874C168.952 7.20874 166.908 9.31863 166.908 11.8241C166.908 14.3955 168.952 16.5054 171.524 16.5054C174.095 16.5054 176.139 14.3955 176.139 11.8241C176.139 9.31863 174.095 7.20874 171.524 7.20874ZM140.815 15.6482H125.914V7.86802H163.431V15.6482H148.596V55.3405H140.815V15.6482ZM112.742 21.7142C103.182 21.7142 95.9288 29.1647 95.9288 38.857C95.9288 48.5493 103.511 55.9998 113.467 55.9998C118.874 55.9998 123.489 54.0878 126.654 50.5933L121.709 45.6482C119.731 47.824 116.698 48.9449 113.533 48.9449C108.654 48.9449 104.962 46.4394 103.643 42.3515H128.171C128.202 42.0318 128.238 41.7082 128.274 41.3836C128.387 40.3692 128.5 39.3445 128.5 38.3955C128.5 28.5713 122.105 21.7142 112.742 21.7142ZM103.511 36.2856C104.171 31.7362 108.061 28.7032 112.61 28.7032C117.028 28.7032 120.522 31.6043 121.181 36.2856H103.511ZM67.4336 55.3405H59.6534V22.3735H67.4336V25.934C69.8732 23.3625 73.4336 21.7142 77.3237 21.7142C84.972 21.7142 90.2468 27.1208 90.2468 35.4944V55.3405H82.4665V37.1427C82.4665 31.6043 79.5655 29.0329 75.4116 29.0329C70.9281 29.0329 67.4336 32.3296 67.4336 37.5383V55.3405ZM4.9551 31.6043C4.9551 45.0548 15.9001 55.9999 29.3507 55.9999C42.8012 55.9999 53.7462 45.0548 53.7462 31.6043C53.7462 18.1538 42.8012 7.20874 29.3507 7.20874C15.9001 7.20874 4.9551 18.1538 4.9551 31.6043ZM29.3507 48.2197C20.1858 48.2197 12.7353 40.7691 12.7353 31.6043C12.7353 22.4395 20.1858 14.9889 29.3507 14.9889C38.5155 14.9889 45.966 22.4395 45.966 31.6043C45.966 40.7691 38.5155 48.2197 29.3507 48.2197Z" fill="url(#paint0_linear_548_5830)"/>
<defs>
<linearGradient id="paint0_linear_548_5830" x1="4.95502" y1="31.6045" x2="275.035" y2="31.6045" gradientUnits="userSpaceOnUse">
<stop stop-color="#4C65E6"/>
<stop offset="1" stop-color="#A175FF"/>
</linearGradient>
</defs>
</svg>
