<svg width="148" height="32" viewBox="0 0 148 32" fill="none" xmlns="http://www.w3.org/2000/svg">
<g id="Group 27">
<g id="Group 26">
<path id="Ellipse 8" d="M4.49313 3.6644C2.26829 5.47887 1.71448 8.58273 3.03054 11.0186C3.32394 11.5617 4.03953 11.6299 4.51788 11.2398L11.9087 5.21213C12.3871 4.82201 12.4642 4.10733 11.9913 3.71071C9.86978 1.93165 6.71796 1.84993 4.49313 3.6644Z" fill="#31333F"/>
<path id="Ellipse 9" d="M31.1543 3.6644C33.3792 5.47887 33.933 8.58273 32.6169 11.0186C32.3235 11.5617 31.6079 11.6299 31.1296 11.2398L23.7387 5.21213C23.2604 4.82201 23.1833 4.10733 23.6562 3.71071C25.7777 1.93165 28.9295 1.84993 31.1543 3.6644Z" fill="#31333F"/>
<rect id="Rectangle 56" x="16.3086" y="12.5605" width="2.71532" height="7.97626" rx="1.35766" fill="#31333F"/>
<rect id="Rectangle 57" x="22.2041" y="21.8818" width="2.71532" height="6.46214" rx="1.35766" transform="rotate(135 22.2041 21.8818)" fill="#31333F"/>
</g>
<path id="Vector" d="M130.586 22.9203C130.586 17.7867 134.427 13.8405 139.491 13.8405C144.45 13.8405 147.838 17.4724 147.838 22.6758C147.838 23.3393 147.733 24.0727 147.663 24.7711H134.672C135.37 26.9363 137.326 28.2634 139.91 28.2634C141.586 28.2634 143.193 27.6697 144.241 26.5173L146.86 29.1364C145.183 30.9873 142.739 32 139.875 32C134.602 32 130.586 28.0538 130.586 22.9203ZM139.421 17.5423C137.012 17.5423 134.951 19.1487 134.602 21.5583H143.961C143.612 19.0788 141.761 17.5423 139.421 17.5423Z" fill="#31333F"/>
<path id="Vector_2" d="M99.2998 31.6508V14.1897H103.421V16.0755C104.713 14.7136 106.599 13.8405 108.659 13.8405C111.313 13.8405 113.408 15.0628 114.526 17.1232C116.097 15.1326 117.948 13.8405 120.742 13.8405C124.793 13.8405 127.587 16.7041 127.587 21.1392V31.6508H123.466V22.0123C123.466 19.0788 121.929 17.7169 119.729 17.7169C117.355 17.7169 115.504 19.463 115.504 22.152V31.6508H111.383V22.0123C111.383 19.0788 109.846 17.7169 107.646 17.7169C105.272 17.7169 103.421 19.463 103.421 22.2218V31.6508H99.2998Z" fill="#31333F"/>
<path id="Vector_3" d="M95.2354 31.6507H91.1146V14.1896H95.2354V31.6507ZM90.7305 8.6021C90.7305 7.27506 91.8131 6.15755 93.175 6.15755C94.537 6.15755 95.6196 7.27506 95.6196 8.6021C95.6196 9.96406 94.537 11.0816 93.175 11.0816C91.8131 11.0816 90.7305 9.96406 90.7305 8.6021Z" fill="#31333F"/>
<path id="Vector_4" d="M76.911 10.6277H69.0186V6.50684H88.8893V10.6277H81.0318V31.6508H76.911V10.6277Z" fill="#31333F"/>
<path id="Vector_5" d="M53.1357 22.9203C53.1357 17.7867 56.9772 13.8405 62.0409 13.8405C66.9998 13.8405 70.3873 17.4724 70.3873 22.6758C70.3873 23.3393 70.2825 24.0727 70.2127 24.7711H57.2216C57.9201 26.9363 59.8757 28.2634 62.46 28.2634C64.1362 28.2634 65.7426 27.6697 66.7903 26.5173L69.4095 29.1364C67.7332 30.9873 65.2887 32 62.425 32C57.1518 32 53.1357 28.0538 53.1357 22.9203ZM61.9711 17.5423C59.5614 17.5423 57.501 19.1487 57.1518 21.5583H66.5109C66.1617 19.0788 64.3108 17.5423 61.9711 17.5423Z" fill="#31333F"/>
<path id="Vector_6" d="M38.0437 31.6508H33.9229V14.1897H38.0437V16.0755C39.3358 14.7136 41.2216 13.8405 43.282 13.8405C47.333 13.8405 50.1267 16.7041 50.1267 21.1392V31.6508H46.0059V22.0123C46.0059 19.0788 44.4693 17.7169 42.2693 17.7169C39.8945 17.7169 38.0437 19.463 38.0437 22.2218V31.6508Z" fill="#31333F"/>
<path id="Vector_7" d="M17.8724 32C10.7483 32 4.95117 26.2029 4.95117 19.0788C4.95117 11.9546 10.7483 6.15755 17.8724 6.15755C24.9965 6.15755 30.7936 11.9546 30.7936 19.0788C30.7936 26.2029 24.9965 32 17.8724 32ZM9.07199 19.0788C9.07199 23.9329 13.0182 27.8791 17.8724 27.8791C22.7266 27.8791 26.6728 23.9329 26.6728 19.0788C26.6728 14.2246 22.7266 10.2784 17.8724 10.2784C13.0182 10.2784 9.07199 14.2246 9.07199 19.0788Z" fill="#31333F"/>
</g>
</svg>
