<svg width="168" height="158" viewBox="0 0 168 158" fill="none" xmlns="http://www.w3.org/2000/svg">
<g id="Frame 1362789711">
<rect id="Rectangle 164" x="79.916" y="56.645" width="8.74438" height="26.5886" rx="4.37219" fill="#CBCDD7"/>
<g id="Group">
<g id="Group_2">
<path id="Vector" d="M58.7221 27.3035C62.602 24.0491 62.0585 17.8822 57.6316 15.4278C48.0121 10.095 35.7023 10.9086 26.7734 18.4018C17.8444 25.8951 14.9045 37.8767 18.4871 48.2756C20.1347 53.0648 26.1136 54.6681 29.9935 51.4137L58.7221 27.3069V27.3035Z" fill="#CBCDD7"/>
<path id="Vector_2" d="M48.8226 35.6084L39.8955 43.0991L50.4581 55.6871L59.3851 48.1964L48.8226 35.6084Z" fill="#DEE0E9"/>
</g>
<g id="Group_3">
<path id="Vector_3" d="M109.845 27.3079C105.965 24.0535 106.509 17.8866 110.935 15.4322C120.555 10.0994 132.865 10.913 141.794 18.4062C150.723 25.8995 153.663 37.8811 150.08 48.28C148.432 53.0692 142.454 54.6725 138.574 51.4181L109.845 27.3113V27.3079Z" fill="#CBCDD7"/>
<path id="Vector_4" d="M109.184 48.2019L118.111 55.6926L128.674 43.1046L119.747 35.614L109.184 48.2019Z" fill="#DEE0E9"/>
</g>
<path id="Vector_5" d="M86.7121 14.3174H81.8545V29.8576H86.7121V14.3174Z" fill="#DEE0E9"/>
<path id="Vector_6" d="M92.7529 19.2847V12L75.818 12V19.2847H92.7529Z" fill="#DEE0E9"/>
<path id="Vector_7" d="M119.238 145.316C117.54 146.379 115.434 146.184 114.367 144.864L105.872 134.373C104.635 132.845 105.271 130.445 107.24 129.218L110.029 127.475C111.998 126.244 114.432 126.726 115.263 128.507L120.968 140.742C121.686 142.28 120.941 144.256 119.238 145.319V145.316Z" fill="#DEE0E9"/>
<path id="Vector_8" d="M49.3281 145.316C51.027 146.379 53.1328 146.184 54.1993 144.864L62.6942 134.373C63.9316 132.845 63.2958 130.445 61.3268 129.218L58.5373 127.475C56.5683 126.244 54.1344 126.726 53.3037 128.507L47.5983 140.742C46.8805 142.28 47.6257 144.256 49.3281 145.319V145.316Z" fill="#DEE0E9"/>
<path id="Vector_9" d="M84.2852 140.695C116.018 140.695 141.742 114.97 141.742 83.2374C141.742 51.5047 116.018 25.7803 84.2852 25.7803C52.5525 25.7803 26.8281 51.5047 26.8281 83.2374C26.8281 114.97 52.5525 140.695 84.2852 140.695Z" fill="#CBCDD7"/>
<path id="Vector_10" d="M138.868 80.3618C138.868 112.095 113.144 137.819 81.4104 137.819C66.2906 137.819 52.5314 131.977 42.2692 122.426C42.2521 122.412 42.2384 122.395 42.2213 122.378C32.6702 112.116 26.8281 98.3564 26.8281 83.2332C26.8281 51.5033 52.5519 25.7761 84.2853 25.7761C99.4084 25.7761 113.164 31.6182 123.423 41.1659H123.426C133.005 51.4281 138.868 65.2078 138.868 80.3584V80.3618Z" fill="#CBCDD7"/>
<path id="Vector_11" d="M84.2855 124.911C107.302 124.911 125.96 106.253 125.96 83.2367C125.96 60.2207 107.302 41.5625 84.2855 41.5625C61.2695 41.5625 42.6113 60.2207 42.6113 83.2367C42.6113 106.253 61.2695 124.911 84.2855 124.911Z" fill="#E8E9ED"/>
<path id="Vector_12" d="M84.2846 121.907C105.641 121.907 122.954 104.594 122.954 83.2373C122.954 61.8808 105.641 44.5679 84.2846 44.5679C62.9281 44.5679 45.6152 61.8808 45.6152 83.2373C45.6152 104.594 62.9281 121.907 84.2846 121.907Z" fill="white"/>
<path id="Vector_13" d="M92.7522 19.2881C93.8208 19.2881 94.6871 17.6566 94.6871 15.6441C94.6871 13.6315 93.8208 12 92.7522 12C91.6836 12 90.8174 13.6315 90.8174 15.6441C90.8174 17.6566 91.6836 19.2881 92.7522 19.2881Z" fill="#9296AB"/>
<path id="Vector_14" d="M75.8177 19.2881C76.8862 19.2881 77.7525 17.6566 77.7525 15.6441C77.7525 13.6315 76.8862 12 75.8177 12C74.7491 12 73.8828 13.6315 73.8828 15.6441C73.8828 17.6566 74.7491 19.2881 75.8177 19.2881Z" fill="#DEE0E9"/>
</g>
<g id="Group 9295">
<circle id="Ellipse 67" cx="84" cy="105" r="5" fill="#CBCDD7"/>
<path id="Vector 232 (Stroke)" fill-rule="evenodd" clip-rule="evenodd" d="M84 56C86.7614 56 89 58.1826 89 60.875L89 90.125C89 92.8174 86.7614 95 84 95C81.2386 95 79 92.8174 79 90.125L79 60.875C79 58.1826 81.2386 56 84 56Z" fill="#CBCDD7"/>
</g>
</g>
</svg>
