<svg width="160" height="160" viewBox="0 0 160 160" fill="none" xmlns="http://www.w3.org/2000/svg">
<g clip-path="url(#clip0_1750_11448)">
<ellipse cx="79.5" cy="142.104" rx="77.5" ry="17.8971" fill="#F4F6FF"/>
<g clip-path="url(#clip1_1750_11448)">
<path d="M83.892 34.5416C81.03 33.8844 78.81 31.1714 78.661 28.2369C78.512 25.3023 80.7626 22.5282 83.6322 21.6952C85.023 21.2902 86.6049 21.294 87.8735 22.0544C88.9434 22.6964 89.7267 24.0796 88.462 24.9813C87.0482 25.9863 85.344 24.9584 84.3734 23.8312C83.2501 22.5282 82.7495 20.7285 82.91 19.0282C83.0628 17.4348 83.9187 15.9637 85.1109 14.9167C86.3031 13.8697 88.3053 12.9794 89.784 13.8506C90.319 14.164 90.8004 14.783 90.7584 15.4287C90.724 15.9828 90.4451 16.277 90.0057 16.5177C88.9854 17.0794 87.5946 16.8425 86.5782 16.1853C84.1213 14.5957 83.2806 11.0383 84.6753 8.49735C85.4242 7.13706 86.6814 6.05189 88.1257 5.48637C89.5701 4.92086 91.3698 4.75273 92.7797 5.5093C93.437 5.86083 93.9375 6.39196 94.1324 7.12178C94.3005 7.75607 94.163 8.43622 93.7426 8.82214C93.6204 8.93295 93.4713 9.0132 93.2535 9.07051C92.9937 9.14311 92.8103 9.1584 92.4473 9.10872C92.5581 9.12401 92.241 9.05905 92.1837 9.04376C92.0537 9.00937 91.9009 8.95588 91.8589 8.93677C91.5532 8.80304 91.3125 8.64638 91.1176 8.46297C90.6782 8.05029 90.468 7.61469 90.4489 6.94983C90.426 6.1818 90.7011 5.46727 91.1176 4.83297C92.1072 3.31602 93.8496 2.63969 95.5576 2.29198C96.5091 2.09711 97.472 2.00158 98.4387 1.90987C98.9507 1.8602 99.394 1.50484 99.394 0.954614C99.394 0.476983 98.9545 -0.0503206 98.4387 -0.000647027C95.9932 0.232437 93.3223 0.484625 91.2743 1.97865C89.4784 3.28927 88.2059 5.47491 88.6301 7.74461C88.9816 9.61692 90.7164 10.8779 92.5543 11.0269C94.6062 11.1912 96.2569 9.49847 96.1155 7.45421C95.9436 4.90939 93.735 3.43065 91.3774 3.15171C89.2911 2.90335 87.0902 3.58349 85.4242 4.84062C83.7583 6.09774 82.4897 7.9242 82.184 10.0296C81.8783 12.135 82.3674 14.1449 83.5366 15.8032C84.7059 17.4615 86.475 18.6957 88.5537 18.7339C90.4413 18.7683 92.4282 17.7328 92.6536 15.6962C92.9288 13.2049 90.4374 11.4816 88.1639 11.6306C85.8904 11.7796 83.7697 13.1972 82.4438 15.0619C81.1179 16.9266 80.6976 19.2918 81.179 21.5157C81.6605 23.7433 83.1431 25.9404 85.2714 26.8689C86.326 27.3313 87.5334 27.4688 88.6224 27.0409C89.7114 26.6129 90.5406 25.8525 90.896 24.7712C91.6372 22.5129 89.7 20.6253 87.7589 19.8994C83.9035 18.4626 79.1806 20.954 77.5147 24.5381C75.7455 28.3477 77.3198 32.868 80.7052 35.2026C81.5115 35.7605 82.44 36.1617 83.3953 36.3833C84.5912 36.6585 85.1033 34.8167 83.9035 34.5416H83.892Z" fill="#DEE0E9"/>
<path d="M65.2643 1.78359C68.1989 3.37697 69.4598 6.87322 68.1645 9.97591C67.5455 11.4585 66.4297 12.8379 64.9739 13.5524C64.3549 13.8581 63.6404 13.988 62.9564 13.8848C62.2724 13.7817 61.726 13.4607 61.5121 12.9487C61.2828 12.3985 61.3936 11.7603 61.7872 11.2216C62.1998 10.6599 62.8341 10.3886 63.499 10.2587C64.951 9.97591 66.5597 10.5147 67.7595 11.3859C70.3769 13.2849 71.1411 17.0563 69.4636 19.8151C69.0663 20.4685 68.5007 21.0837 67.7747 21.3703C67.2054 21.5957 66.6323 21.5842 66.0744 21.355C65.0656 20.9423 65.0121 19.689 65.6197 18.8942C65.5165 19.028 65.719 18.7949 65.7572 18.7567C65.8107 18.7032 65.8642 18.6573 65.9215 18.6076C66.0476 18.4968 65.742 18.7261 65.975 18.5656C66.0897 18.4892 66.2043 18.4166 66.3228 18.3478C66.5023 18.2485 66.594 18.2103 66.6475 18.1873C66.9188 18.0842 67.2016 18.0001 67.4882 17.939C67.8473 17.8625 67.9276 17.8511 68.325 17.8282C68.623 17.8129 68.9249 17.8129 69.2229 17.8282C69.6318 17.8511 69.6547 17.8549 70.0101 17.9275C70.2699 17.981 70.5183 18.0536 70.7704 18.1338C70.8239 18.1491 70.8736 18.172 70.9233 18.1912C70.7055 18.1071 70.9806 18.2179 71.0341 18.2446C71.2634 18.3516 71.485 18.4739 71.7028 18.6038C74.4234 20.266 75.2793 23.8654 73.8387 26.6127C73.1471 27.9348 72.062 29.234 70.6596 29.8301C69.5286 30.3115 67.9238 30.0899 67.2665 28.9054C67.0717 28.5538 67.0946 28.0953 67.278 27.7514C67.4309 27.461 67.4691 27.4037 67.7213 27.1668C67.855 27.0407 68.2027 26.8152 68.3364 26.7618C68.9555 26.5096 69.4828 26.521 70.117 26.7923C70.6252 27.0063 71.0265 27.3502 71.2634 27.7476C71.2977 27.8011 71.4544 28.1411 71.4086 28.0227C71.4544 28.1373 71.4926 28.2596 71.5232 28.3781C71.5385 28.4354 71.6149 28.8213 71.5958 28.6876C71.6187 28.848 71.6264 29.0123 71.6264 29.1767C71.6378 29.853 71.5576 30.2809 71.3589 30.9611C71.1602 31.6412 70.973 32.0921 70.652 32.692C70.5106 32.9595 70.3578 33.2193 70.1935 33.4715C70.1056 33.6052 70.0177 33.7352 69.9222 33.8651C69.8878 33.9147 69.8496 33.9644 69.8114 34.0141C69.9222 33.8727 69.7655 34.0714 69.7388 34.0982C69.0395 34.9044 68.2677 35.6342 67.4843 36.3602C66.5826 37.197 67.9352 38.5458 68.837 37.7129C70.3157 36.3411 71.7219 34.9541 72.5778 33.1009C73.2962 31.5457 73.7738 29.7766 73.407 28.0647C73.0172 26.2306 71.4047 24.92 69.5668 24.7137C67.7289 24.5073 65.9406 25.6537 65.3751 27.3731C64.695 29.4365 66.3151 31.2782 68.2218 31.8323C70.2699 32.4284 72.3256 31.3814 73.747 29.9485C75.1685 28.5156 76.1963 26.5783 76.4141 24.515C76.6358 22.3943 75.948 20.2736 74.6068 18.6306C73.4031 17.1595 71.676 16.2195 69.7999 15.9826C68.2562 15.7877 66.5023 15.9749 65.1612 16.8194C63.6213 17.7899 62.838 19.7578 63.6022 21.4811C64.4504 23.384 66.915 23.8387 68.6765 23.0553C70.652 22.1765 71.8365 19.9641 72.1613 17.9084C72.4861 15.8527 72.0237 13.5562 70.7666 11.7947C69.5095 10.0332 67.6639 8.76082 65.5433 8.41692C63.4226 8.07303 61.1682 8.52773 60.0295 10.4383C58.8908 12.3488 59.6932 14.8516 61.8521 15.589C64.011 16.3265 66.2349 15.375 67.7786 13.8772C70.973 10.7745 71.5499 5.68106 68.6994 2.1657C68.0269 1.33653 67.1596 0.656385 66.2234 0.144365C65.142 -0.444075 64.1753 1.20662 65.2605 1.79506L65.2643 1.78359Z" fill="#DEE0E9"/>
<path d="M48.0689 137.095C52.8732 130.206 50.3227 120.127 42.3723 114.582C34.4219 109.038 24.0822 110.129 19.278 117.018C14.4737 123.907 17.0242 133.987 24.9746 139.531C32.925 145.075 43.2646 143.985 48.0689 137.095Z" fill="#AEB1C1"/>
<path d="M37.601 129.796C38.9119 127.916 38.2164 125.166 36.0474 123.654C33.8785 122.141 31.0576 122.439 29.7467 124.319C28.4357 126.199 29.1313 128.949 31.3002 130.461C33.4691 131.974 36.2901 131.676 37.601 129.796Z" fill="white"/>
<path d="M33.4388 114.114L26.6679 115.073C25.5598 115.23 24.402 114.477 24.0887 113.392L23.2634 110.556C22.9462 109.471 23.592 108.463 24.7001 108.306L31.471 107.347C32.5791 107.19 33.7368 107.943 34.0502 109.028L34.8755 111.863C35.1927 112.948 34.5469 113.957 33.4388 114.114Z" fill="#AEB1C1"/>
<path d="M23.8326 116.831L20.409 122.199C19.8473 123.078 18.5749 123.258 17.5699 122.601L14.9411 120.885C13.9323 120.228 13.5693 118.982 14.131 118.103L17.5547 112.735C18.1164 111.856 19.3888 111.676 20.3937 112.333L23.0226 114.049C24.0313 114.706 24.3943 115.952 23.8326 116.831Z" fill="#AEB1C1"/>
<path d="M19.994 125.54L21.9236 132.173C22.2408 133.258 21.595 134.267 20.4869 134.424L17.5905 134.833C16.4824 134.989 15.3247 134.236 15.0113 133.151L13.0817 126.518C12.7646 125.433 13.4103 124.424 14.5184 124.267L17.4148 123.859C18.5229 123.702 19.6807 124.455 19.994 125.54Z" fill="#AEB1C1"/>
<path d="M24.1703 135.13L30.3222 139.142C31.3309 139.8 31.6939 141.045 31.1323 141.924L29.6688 144.221C29.1071 145.099 27.8347 145.279 26.8298 144.622L20.6779 140.61C19.6691 139.952 19.3061 138.707 19.8678 137.828L21.3313 135.531C21.893 134.653 23.1654 134.473 24.1703 135.13Z" fill="#AEB1C1"/>
<path d="M33.9134 139.993L40.6843 139.034C41.7924 138.878 42.9502 139.63 43.2635 140.716L44.0889 143.551C44.406 144.636 43.7603 145.645 42.6522 145.801L35.8813 146.76C34.7732 146.917 33.6154 146.164 33.3021 145.079L32.4767 142.244C32.1596 141.159 32.8053 140.15 33.9134 139.993Z" fill="#AEB1C1"/>
<path d="M43.5197 137.273L46.9433 131.905C47.505 131.026 48.7774 130.846 49.7824 131.503L52.4112 133.219C53.42 133.876 53.783 135.122 53.2213 136.001L49.7976 141.369C49.236 142.248 47.9635 142.428 46.9586 141.77L44.3297 140.055C43.321 139.398 42.958 138.152 43.5197 137.273Z" fill="#AEB1C1"/>
<path d="M47.359 128.569L45.4294 121.936C45.1122 120.851 45.758 119.842 46.8661 119.685L49.7624 119.276C50.8705 119.12 52.0283 119.873 52.3416 120.958L54.2713 127.591C54.5884 128.676 53.9427 129.685 52.8345 129.842L49.9382 130.251C48.8301 130.407 47.6723 129.654 47.359 128.569Z" fill="#AEB1C1"/>
<path d="M43.1833 118.975L37.0314 114.963C36.0226 114.306 35.6596 113.06 36.2213 112.181L37.6848 109.885C38.2465 109.006 39.5189 108.827 40.5238 109.484L46.6757 113.496C47.6845 114.153 48.0475 115.399 47.4858 116.278L46.0223 118.574C45.4606 119.453 44.1882 119.632 43.1833 118.975Z" fill="#AEB1C1"/>
<path d="M52.4706 36.0831C55.6191 32.0863 53.8194 26.1293 48.959 24.62C38.3977 21.3453 26.4531 24.6735 19.2046 33.8784C11.956 43.0833 11.5204 55.4787 17.1794 64.9778C19.7854 69.3529 25.9946 69.7045 29.1469 65.7038L52.4706 36.0869V36.0831Z" fill="#677CEE"/>
<path d="M44.4365 46.2832L37.188 55.4881L50.1643 65.7094L57.4128 56.5045L44.4365 46.2832Z" fill="#DEE0E9"/>
<path d="M102.964 24.3626C98.6307 21.6917 98.2716 15.4786 102.318 12.3912C111.11 5.68531 123.471 4.69948 133.444 10.8552C143.417 17.0071 148.087 28.4969 146.038 39.3602C145.098 44.3619 139.386 46.8303 135.049 44.1594L102.964 24.3664V24.3626Z" fill="#677CEE"/>
<path d="M105.351 45.2412L115.32 51.3893L123.99 37.3317L114.021 31.1836L105.351 45.2412Z" fill="#DEE0E9"/>
<path d="M136.241 139.793C134.789 141.187 132.676 141.428 131.353 140.347L120.842 131.765C119.31 130.515 119.443 128.024 121.128 126.412L123.517 124.123C125.202 122.506 127.697 122.483 128.877 124.065L137.001 134.936C138.025 136.304 137.696 138.398 136.237 139.797L136.241 139.793Z" fill="#DEE0E9"/>
<path d="M100.896 142.419C132.121 135.908 152.159 105.313 145.648 74.0871C139.137 42.8615 108.545 22.8239 77.3161 29.335C46.0905 35.8461 26.0529 66.4373 32.564 97.6667C39.0751 128.892 69.6663 148.93 100.896 142.419Z" fill="#677CEE"/>
<path d="M142.228 71.8477C148.739 103.073 128.705 133.668 97.4761 140.179C82.5969 143.282 67.8591 140.355 55.7999 133.065C55.7808 133.053 55.7617 133.042 55.7426 133.026C44.2375 124.888 35.6669 112.546 32.5642 97.6627C26.0531 66.4371 46.0868 35.842 77.3162 29.3309C92.1992 26.2283 106.933 29.1552 118.989 36.4457C130.52 44.5769 139.118 56.9342 142.224 71.8439L142.228 71.8477Z" fill="#677CEE"/>
<path d="M97.6548 126.886C120.302 122.163 134.837 99.974 130.115 77.3228C125.392 54.6755 103.203 40.1402 80.5518 44.863C57.9045 49.5859 43.3692 71.7746 48.092 94.4258C52.8149 117.073 75.0037 131.608 97.6548 126.886Z" fill="#E8EBFC"/>
<path d="M97.0407 123.932C118.056 119.549 131.541 98.9616 127.158 77.9459C122.775 56.9301 102.188 43.4457 81.172 47.8284C60.1562 52.2111 46.6718 72.7989 51.0545 93.8147C55.4372 114.83 76.025 128.315 97.0407 123.932Z" fill="#F5F7FF"/>
<path fill-rule="evenodd" clip-rule="evenodd" d="M90.273 86.9823L68.5618 71.3925C67.1442 73.3641 67.5951 76.1153 69.5706 77.529L84.1364 87.9872C86.1081 89.4049 88.8592 88.954 90.273 86.9785V86.9823ZM89.2681 80.8419L74.7022 70.3837C73.7126 69.673 72.5357 69.4323 71.4238 69.6157C70.3119 69.7953 69.2725 70.4028 68.5618 71.3886L90.273 86.9785C91.6906 85.0068 91.2397 82.2557 89.2642 80.8419H89.2681Z" fill="#677CEE"/>
<path fill-rule="evenodd" clip-rule="evenodd" d="M103.811 121.096C102.902 120.29 102.405 119.189 102.34 118.07C102.275 116.946 102.634 115.796 103.44 114.891L118.652 97.7533C120.261 95.9345 123.042 95.7702 124.861 97.3827C126.68 98.9951 126.844 101.773 125.232 103.592L110.02 120.729C108.408 122.548 105.626 122.712 103.811 121.1V121.096Z" fill="#677CEE"/>
<path d="M90.453 92.3553C94.0295 91.6102 96.326 88.1025 95.5809 84.526C94.8358 80.9495 91.3281 78.653 87.7516 79.3981C84.1751 80.1432 81.8786 83.651 82.6237 87.2275C83.3688 90.804 86.8765 93.1004 90.453 92.3553Z" fill="#677CEE"/>
<path d="M89.7566 89.0277C91.4952 88.6647 92.6109 86.9605 92.2479 85.2219C91.8849 83.4834 90.1807 82.3676 88.4422 82.7306C86.7036 83.0936 85.5878 84.7978 85.9508 86.5364C86.3138 88.275 88.018 89.3907 89.7566 89.0277Z" fill="white"/>
<path d="M78.3752 140.918L77.8632 140.222C77.2022 139.328 75.9451 139.137 75.0509 139.798L65.7123 146.68C64.8182 147.337 64.6271 148.598 65.2843 149.492L65.7964 150.188C66.4536 151.082 67.7145 151.273 68.6087 150.612L77.9473 143.73C78.8414 143.073 79.0325 141.812 78.3714 140.918H78.3752Z" fill="#DEE0E9"/>
<path d="M79.1508 150.385L85.0466 146.04L74.9476 132.334L69.0518 136.679L79.1508 150.385Z" fill="#DEE0E9"/>
<path d="M79.1463 150.388C79.7844 151.252 81.6224 150.981 83.2501 149.781C84.8779 148.581 85.6841 146.907 85.046 146.04C84.4079 145.176 82.57 145.448 80.9422 146.648C79.3144 147.847 78.512 149.521 79.1463 150.385V150.388Z" fill="#9296AB"/>
<path d="M69.0487 136.683C69.6868 137.547 71.5209 137.275 73.1525 136.076C74.784 134.876 75.5865 133.202 74.9483 132.339C74.3102 131.471 72.4761 131.746 70.8446 132.946C69.2168 134.146 68.4144 135.819 69.0487 136.683Z" fill="#DEE0E9"/>
<path d="M56.1632 140.987C59.5969 137.298 58.9307 131.097 54.6752 127.135C50.4197 123.174 44.1865 122.953 40.7528 126.642C37.3192 130.33 37.9854 136.532 42.2408 140.493C46.4963 144.454 52.7296 144.675 56.1632 140.987Z" fill="#DEE0E9"/>
<path d="M50.5609 135.771C51.497 134.765 51.3142 133.073 50.1526 131.992C48.9911 130.911 47.2906 130.85 46.3546 131.855C45.4185 132.861 45.6013 134.552 46.7629 135.634C47.9244 136.715 49.6249 136.776 50.5609 135.771Z" fill="white"/>
<path d="M52.614 127.774L49.6832 126.307C49.1101 126.02 48.8159 125.355 49.0298 124.824L49.7291 123.063C49.9392 122.532 50.5735 122.333 51.1467 122.619L54.0774 124.087C54.6506 124.373 54.9448 125.038 54.7308 125.569L54.0316 127.331C53.8214 127.862 53.1871 128.061 52.614 127.774Z" fill="#DEE0E9"/>
<path d="M44.6755 126.446L42.2758 128.067C41.8059 128.384 41.1104 128.223 40.7207 127.707L39.4253 126.003C39.0356 125.487 39.1006 124.815 39.5667 124.498L41.9663 122.878C42.4363 122.56 43.1318 122.721 43.5215 123.237L44.8168 124.941C45.2066 125.457 45.1416 126.129 44.6755 126.446Z" fill="#DEE0E9"/>
<path d="M40.5198 132.492L41.0509 135.584C41.1541 136.187 40.7529 136.692 40.1492 136.707L38.1546 136.764C37.5547 136.78 36.9815 136.306 36.8783 135.702L36.3472 132.611C36.2441 132.007 36.6453 131.503 37.249 131.487L39.2436 131.43C39.8435 131.415 40.4166 131.889 40.5198 132.492Z" fill="#DEE0E9"/>
<path d="M44.2981 139.867L47.2288 141.335C47.802 141.621 48.0962 142.286 47.8822 142.817L47.183 144.579C46.9728 145.11 46.3385 145.309 45.7653 145.022L42.8346 143.555C42.2614 143.268 41.9672 142.603 42.1812 142.072L42.8805 140.311C43.0906 139.78 43.7249 139.581 44.2981 139.867Z" fill="#DEE0E9"/>
<path d="M52.2376 141.193L54.6372 139.573C55.1072 139.256 55.8027 139.416 56.1924 139.932L57.4877 141.636C57.8775 142.152 57.8125 142.825 57.3464 143.142L54.9467 144.762C54.4767 145.079 53.7813 144.919 53.3916 144.403L52.0962 142.698C51.7065 142.183 51.7715 141.51 52.2376 141.193Z" fill="#DEE0E9"/>
<path d="M56.3954 135.149L55.8643 132.058C55.7611 131.454 56.1624 130.95 56.7661 130.935L58.7607 130.877C59.3606 130.862 59.9337 131.336 60.0369 131.94L60.568 135.031C60.6712 135.635 60.27 136.139 59.6662 136.154L57.6717 136.211C57.0718 136.227 56.4986 135.753 56.3954 135.149Z" fill="#DEE0E9"/>
</g>
</g>
<defs>
<clipPath id="clip0_1750_11448">
<rect width="160" height="160" fill="white"/>
</clipPath>
<clipPath id="clip1_1750_11448">
<rect width="133.874" height="151" fill="white" transform="translate(13)"/>
</clipPath>
</defs>
</svg>
