<svg width="38" height="42" viewBox="0 0 38 42" fill="none" xmlns="http://www.w3.org/2000/svg">
<path id="Vector" fill-rule="evenodd" clip-rule="evenodd" d="M7.26528 1.57491C7.26528 0.769052 7.91764 0.115723 8.72143 0.115723H11.1328C11.9366 0.115723 12.589 0.769052 12.589 1.57491V4.11624H25.8962V1.57491C25.8962 0.769052 26.5473 0.115723 27.3524 0.115723H29.7624C30.5662 0.115723 31.2186 0.769052 31.2186 1.57491V4.11624H34.9606C36.5682 4.11624 37.8729 5.4229 37.8729 7.03463V13.1994V38.5361C37.8729 40.1479 36.5682 41.4546 34.9606 41.4546H3.5246C1.91572 41.4546 0.612305 40.1479 0.612305 38.5362V13.1994V7.03463C0.612305 6.93398 0.617484 6.83436 0.626545 6.7363C0.77669 5.26466 2.01668 4.11624 3.5246 4.11624H7.26528V1.57491ZM32.7757 16.1178H5.70817V36.3474H32.7757V16.1178Z" fill="url(#paint0_linear_752_6914)"/>
<defs>
<linearGradient id="paint0_linear_752_6914" x1="37.8729" y1="20.7851" x2="0.612305" y2="20.7851" gradientUnits="userSpaceOnUse">
<stop stop-color="#2941C2"/>
<stop offset="1" stop-color="#677CEE"/>
</linearGradient>
</defs>
</svg>
