<svg width="163" height="173" viewBox="0 0 163 173" fill="none" xmlns="http://www.w3.org/2000/svg">
<g id="Group">
<path id="Vector" d="M113.752 16.8356L19.584 41.2711C10.5739 43.6091 5.1651 52.8085 7.50311 61.8186L31.9386 155.987C34.2766 164.997 43.4761 170.406 52.4862 168.068L146.655 143.633C155.665 141.295 161.074 132.095 158.736 123.085L134.3 28.9165C131.962 19.9064 122.763 14.4976 113.752 16.8356Z" fill="#DEE5FC"/>
<path id="Vector_2" d="M118.274 34.2599L24.1055 58.6954C15.0954 61.0334 9.68659 70.2328 12.0246 79.243L30.7678 151.475C33.1058 160.485 42.3053 165.894 51.3154 163.556L145.484 139.12C154.494 136.782 159.903 127.583 157.565 118.573L138.822 46.3408C136.484 37.3307 127.284 31.9219 118.274 34.2599Z" fill="#F5F7FF"/>
<path id="Vector_3" d="M19.5417 41.0929L113.71 16.6574C122.713 14.3212 131.922 19.7351 134.258 28.7383L139.159 47.6269L12.3586 80.53L7.45721 61.6414C5.121 52.6382 10.5349 43.43 19.5417 41.0929Z" fill="#31333F"/>
<path id="Vector_4" d="M32.1692 24.5558L38.6178 49.4068C35.454 50.2278 32.2252 48.3294 31.4052 45.1693L27.9281 31.7693C27.1071 28.6056 29.0055 25.3768 32.1692 24.5558Z" fill="#F6F7F8"/>
<path id="Vector_5" d="M39.3829 28.7968L42.8601 42.1968C43.6801 45.3569 41.7817 48.5857 38.618 49.4067L32.1694 24.5557C33.7495 24.1457 35.3484 24.4177 36.6571 25.178C37.9614 25.951 38.972 27.2131 39.3829 28.7968Z" fill="#DADBE2"/>
<path id="Vector_6" d="M101.845 12.5888L105.322 25.9888C106.142 29.1489 104.243 32.3777 101.08 33.1987L94.6311 8.34766C96.2112 7.93765 97.8136 8.20877 99.1115 8.97186C100.409 9.73495 101.434 11.0051 101.845 12.5888Z" fill="#DADBE2"/>
<path id="Vector_7" d="M94.6311 8.34781L101.08 33.1988C97.9159 34.0198 94.6871 32.1214 93.8671 28.9613L90.39 15.5613C89.569 12.3975 91.4674 9.16877 94.6311 8.34781Z" fill="#F6F7F8"/>
<g id="Group_2">
<path id="Vector_8" d="M69.2838 132.561C66.1195 131.596 63.3862 129.688 61.0876 126.839C58.789 123.989 57.0556 120.313 55.8875 115.812C54.7194 111.31 54.4346 107.208 55.0622 103.618C55.6898 100.028 57.1563 97.0391 59.4636 94.6575C61.7699 92.2722 64.7785 90.6 68.4882 89.6374C72.198 88.6748 75.7267 88.6506 78.9019 89.6135C82.077 90.5764 84.8139 92.4827 87.1125 95.3326C89.4111 98.1824 91.1444 101.858 92.3126 106.36C93.4807 110.861 93.7655 114.963 93.1379 118.553C92.5102 122.143 91.0428 125.128 88.7365 127.514C86.4302 129.899 83.3927 131.579 79.6251 132.556C75.8575 133.534 72.4481 133.527 69.2838 132.561ZM80.6276 121.413C81.4444 120.248 81.8904 118.65 81.9683 116.616C82.0472 114.585 81.6975 112.151 80.9193 109.316C80.1913 106.51 79.2967 104.238 78.2438 102.5C77.1873 100.764 76.0252 99.5719 74.7609 98.9236C73.494 98.2798 72.1708 98.133 70.786 98.4924C69.4011 98.8517 68.3768 99.6038 67.5945 100.783C66.8122 101.963 66.3835 103.567 66.3046 105.598C66.2258 107.629 66.5527 110.049 67.2808 112.855C68.0088 115.661 68.9148 117.992 69.9713 119.729C71.0278 121.465 72.1799 122.648 73.4322 123.28C74.6836 123.909 75.9823 124.05 77.3274 123.701C78.6724 123.352 79.8107 122.578 80.6276 121.413Z" fill="#474A5C"/>
<path id="Vector_9" d="M117.629 122.077L114.664 122.846C112.44 123.423 110.171 122.086 109.595 119.866L102.436 92.2781L102.205 92.3381L99.6273 94.9868C97.3667 97.31 93.4343 96.2696 92.6199 93.1311C92.2568 91.7318 92.6467 90.2452 93.6468 89.2061L99.8481 82.7498C100.38 82.1951 101.056 81.7995 101.801 81.6062L106.791 80.3115C109.015 79.7344 111.284 81.0715 111.86 83.2915L120.608 117.005C121.185 119.228 119.848 121.497 117.628 122.073L117.629 122.077Z" fill="#474A5C"/>
</g>
<path id="Vector_10" d="M81.8283 155.637L52.4886 168.063C43.4782 170.401 34.2755 164.993 31.9374 155.983L22.8506 120.964L81.8283 155.637Z" fill="#DEE5FC"/>
<path id="Vector_11" d="M73.9114 125.127L81.8283 155.637L22.8506 120.964L53.3639 113.047C62.3743 110.708 71.5733 116.117 73.9114 125.127Z" fill="#E8EBFC"/>
</g>
</svg>
