<svg width="86" height="92" viewBox="0 0 86 92" fill="none" xmlns="http://www.w3.org/2000/svg">
<g id="Group 32">
<path id="Ellipse 7 (Stroke)" fill-rule="evenodd" clip-rule="evenodd" d="M51.5 80.2624C65.2077 80.2624 76.32 69.1501 76.32 55.4424C76.32 41.7347 65.2077 30.6224 51.5 30.6224C37.7923 30.6224 26.68 41.7347 26.68 55.4424C26.68 69.1501 37.7923 80.2624 51.5 80.2624ZM51.5 91.9424C71.6584 91.9424 88 75.6008 88 55.4424C88 35.284 71.6584 18.9424 51.5 18.9424C31.3416 18.9424 15 35.284 15 55.4424C15 75.6008 31.3416 91.9424 51.5 91.9424Z" fill="#4C65E6"/>
<path id="Ellipse 8" d="M12.7516 10.4712C6.43748 15.6561 4.91533 24.5868 8.71595 31.6286C9.56326 33.1985 11.6063 33.4084 12.9639 32.2936L33.9393 15.0692C35.2969 13.9545 35.5036 11.8972 34.1467 10.7457C28.0603 5.58095 19.0658 5.28621 12.7516 10.4712Z" fill="#4C65E6"/>
<path id="Ellipse 9" d="M89.2484 10.4712C95.5625 15.6561 97.0847 24.5868 93.284 31.6286C92.4367 33.1985 90.3937 33.4084 89.0361 32.2936L68.0607 15.0692C66.7031 13.9545 66.4964 11.8972 67.8533 10.7457C73.9397 5.58095 82.9342 5.28621 89.2484 10.4712Z" fill="#4C65E6"/>
<path id="Subtract" fill-rule="evenodd" clip-rule="evenodd" d="M51.5 91.9424C71.6584 91.9424 88 75.6008 88 55.4424C88 35.284 71.6584 18.9424 51.5 18.9424C31.3416 18.9424 15 35.284 15 55.4424C15 75.6008 31.3416 91.9424 51.5 91.9424ZM47 39.9424C47 37.7332 48.7909 35.9424 51 35.9424C53.2091 35.9424 55 37.7332 55 39.9424V53.1743L61.2896 60.0007C62.7865 61.6253 62.7865 64.2594 61.2896 65.8841C59.7927 67.5088 57.3657 67.5088 55.8688 65.8841L49.0928 58.5298C49.0503 58.4837 49.009 58.4368 48.969 58.3891C47.7905 57.6932 47 56.4101 47 54.9424V39.9424Z" fill="#4C65E6"/>
</g>
</svg>
