<svg width="86" height="79" viewBox="0 0 86 79" fill="none" xmlns="http://www.w3.org/2000/svg">
<g id="Group 32">
<path id="Ellipse 7 (Stroke)" fill-rule="evenodd" clip-rule="evenodd" d="M35.5 67.2624C49.2077 67.2624 60.32 56.1501 60.32 42.4424C60.32 28.7347 49.2077 17.6224 35.5 17.6224C21.7923 17.6224 10.68 28.7347 10.68 42.4424C10.68 56.1501 21.7923 67.2624 35.5 67.2624ZM35.5 78.9424C55.6584 78.9424 72 62.6008 72 42.4424C72 22.284 55.6584 5.94238 35.5 5.94238C15.3416 5.94238 -1 22.284 -1 42.4424C-1 62.6008 15.3416 78.9424 35.5 78.9424Z" fill="#4C65E6"/>
<path id="Ellipse 8" d="M-3.24838 -2.52883C-9.56252 2.65613 -11.0847 11.5868 -7.28405 18.6286C-6.43674 20.1985 -4.39368 20.4084 -3.03614 19.2936L17.9393 2.06923C19.2969 0.954457 19.5036 -1.10284 18.1467 -2.25427C12.0603 -7.41905 3.06576 -7.71379 -3.24838 -2.52883Z" fill="#4C65E6"/>
<path id="Ellipse 9" d="M73.2484 -2.52883C79.5625 2.65613 81.0847 11.5868 77.284 18.6286C76.4367 20.1985 74.3937 20.4084 73.0361 19.2936L52.0607 2.06923C50.7031 0.954457 50.4964 -1.10284 51.8533 -2.25427C57.9397 -7.41905 66.9342 -7.71379 73.2484 -2.52883Z" fill="#4C65E6"/>
<path id="Subtract" fill-rule="evenodd" clip-rule="evenodd" d="M35.5 78.9424C55.6584 78.9424 72 62.6008 72 42.4424C72 22.284 55.6584 5.94238 35.5 5.94238C15.3416 5.94238 -1 22.284 -1 42.4424C-1 62.6008 15.3416 78.9424 35.5 78.9424ZM31 26.9424C31 24.7332 32.7909 22.9424 35 22.9424C37.2091 22.9424 39 24.7332 39 26.9424V40.1743L45.2896 47.0007C46.7865 48.6253 46.7865 51.2594 45.2896 52.8841C43.7927 54.5088 41.3657 54.5088 39.8688 52.8841L33.0928 45.5298C33.0503 45.4837 33.009 45.4368 32.969 45.3891C31.7905 44.6932 31 43.4101 31 41.9424V26.9424Z" fill="#4C65E6"/>
</g>
</svg>
