<svg width="47" height="42" viewBox="0 0 47 42" fill="none" xmlns="http://www.w3.org/2000/svg">
<path id="Vector" fill-rule="evenodd" clip-rule="evenodd" d="M3.83653 2.44231C0.511168 5.01783 -0.316513 9.42403 1.64974 12.8816C2.08816 13.6512 3.15764 13.7479 3.87373 13.1952L14.9193 4.63888C15.6341 4.08615 15.7496 3.07085 15.0429 2.50897C11.8729 -0.0168898 7.16188 -0.1332 3.83653 2.44231ZM43.685 2.44231C47.0104 5.01783 47.8381 9.42403 45.8705 12.8816C45.4321 13.6512 44.3626 13.7479 43.6478 13.1952L32.6009 4.63888C31.8862 4.08615 31.7706 3.07085 32.4774 2.50897C35.6487 -0.0168898 40.3597 -0.1332 43.685 2.44231ZM23.5243 15.069C22.4043 15.069 21.4956 15.9628 21.4956 17.0656V24.1245C21.3521 24.7451 21.5341 25.4194 22.043 25.9016L26.002 29.6623C26.7952 30.4149 28.0799 30.4149 28.8717 29.6623C29.6649 28.9096 29.6649 27.6891 28.8717 26.9365L25.5543 23.786V17.0656C25.5543 15.9628 24.6456 15.069 23.5243 15.069ZM4.8077 23.5613C4.8077 33.6725 13.4725 41.9009 24.1195 41.9009C34.7678 41.9009 43.4326 33.6725 43.4326 23.5613C43.4326 13.45 34.7678 5.22167 24.1195 5.22167C13.4725 5.22167 4.8077 13.45 4.8077 23.5613ZM24.1195 36.0521C16.8643 36.0521 10.9669 30.4515 10.9669 23.5613C10.9669 16.671 16.8643 11.0705 24.1195 11.0705C31.3747 11.0705 37.2735 16.671 37.2735 23.5613C37.2735 30.4515 31.3747 36.0521 24.1195 36.0521Z" fill="url(#paint0_linear_752_6913)"/>
<defs>
<linearGradient id="paint0_linear_752_6913" x1="46.9227" y1="21.2314" x2="0.598854" y2="21.2314" gradientUnits="userSpaceOnUse">
<stop stop-color="#2941C2"/>
<stop offset="1" stop-color="#677CEE"/>
</linearGradient>
</defs>
</svg>
