<svg width="206" height="42" viewBox="0 0 206 42" fill="none" xmlns="http://www.w3.org/2000/svg">
<path id="Vector" d="M11.1397 1.33955C13.2121 1.33955 15.0877 1.74001 16.7668 2.54068C18.4458 3.34147 19.7619 4.45957 20.7149 5.89497C21.683 7.33037 22.1671 8.95466 22.1671 10.7677C22.1671 12.5506 21.683 14.1598 20.7149 15.595C19.7619 17.0154 18.4458 18.1335 16.7668 18.9493C15.0877 19.7501 13.2121 20.1505 11.1397 20.1505C9.03702 20.1505 7.13861 19.7501 5.44442 18.9493C3.75022 18.1335 2.41907 17.0154 1.45096 15.595C0.497976 14.1598 0.0214844 12.5506 0.0214844 10.7677C0.0214844 8.95466 0.497976 7.33037 1.45096 5.89497C2.41907 4.45957 3.74266 3.34147 5.42173 2.54068C7.11592 1.74001 9.02189 1.33955 11.1397 1.33955ZM11.1397 6.05369C10.0808 6.05369 9.12777 6.24245 8.28068 6.62022C7.44871 6.9829 6.79827 7.52674 6.32933 8.25198C5.8604 8.96214 5.6335 9.80071 5.64863 10.7677C5.6335 11.7347 5.8604 12.5733 6.32933 13.2834C6.79827 13.9936 7.44871 14.5374 8.28068 14.9152C9.12777 15.293 10.0808 15.4818 11.1397 15.4818C12.1834 15.4818 13.1137 15.293 13.9305 14.9152C14.7625 14.5374 15.4129 13.9936 15.8819 13.2834C16.3508 12.5733 16.5852 11.7347 16.5852 10.7677C16.5852 9.78563 16.3508 8.93945 15.8819 8.22942C15.4129 7.51926 14.7625 6.9829 13.9305 6.62022C13.1137 6.24245 12.1834 6.05369 11.1397 6.05369ZM33.9659 20.7851H28.1572V0.115723H33.9659V20.7851ZM33.9659 33.7036H12.0019V36.3779H35.1004V40.9106H6.32933V29.488H28.2026V26.9497H6.23857V22.5076H33.9659V33.7036ZM74.3542 24.5927H68.591V14.8472H62.147V10.1785H68.591V0.115723H74.3542V24.5927ZM60.2411 25.4992C63.1757 25.5143 65.7018 25.8392 67.8195 26.4737C69.9524 27.0932 71.5937 27.9997 72.7433 29.1934C73.8929 30.387 74.4753 31.8148 74.4904 33.4769C74.4753 35.1237 73.8929 36.5441 72.7433 37.7377C71.5937 38.9314 69.9524 39.8379 67.8195 40.4573C65.6867 41.0919 63.1605 41.4092 60.2411 41.4092C57.3215 41.4092 54.7954 41.0919 52.6626 40.4573C50.5297 39.8379 48.8884 38.9314 47.7388 37.7377C46.6043 36.5441 46.037 35.1237 46.037 33.4769C46.037 31.8148 46.6043 30.387 47.7388 29.1934C48.8884 27.9997 50.5222 27.0932 52.6399 26.4737C54.7727 25.8392 57.3064 25.5143 60.2411 25.4992ZM60.2411 29.9413C54.6139 29.9413 51.8003 31.1199 51.8003 33.4769C51.8003 34.6553 52.5113 35.5393 53.9332 36.1285C55.3702 36.7179 57.4728 37.0125 60.2411 37.0125C63.0093 37.0125 65.1119 36.7179 66.5489 36.1285C68.0011 35.5242 68.7272 34.6403 68.7272 33.4769C68.7272 31.1199 65.8985 29.9413 60.2411 29.9413ZM63.3722 7.23213H55.1584C55.2038 8.89419 55.5744 10.4958 56.2703 12.0369C56.9813 13.563 58.0325 14.9379 59.4242 16.1617C60.831 17.3855 62.5705 18.3374 64.6429 19.0173L61.784 23.5502C59.5754 22.84 57.6696 21.7824 56.0661 20.3771C54.4778 18.957 53.2222 17.2873 52.2995 15.3685C51.3465 17.5442 50.0305 19.4328 48.3514 21.0344C46.6723 22.6209 44.6454 23.8221 42.2705 24.638L39.2754 20.0598C41.4537 19.3346 43.2764 18.3073 44.7437 16.9776C46.2261 15.6328 47.3304 14.122 48.0565 12.4449C48.7976 10.7677 49.1986 9.03009 49.259 7.23213H40.9544V2.60875H63.3722V7.23213ZM128.221 36.5591H90.419V31.8904H106.393V22.6889H112.201V31.8904H128.221V36.5591ZM124.908 7.91212H112.338C112.504 9.75546 113.177 11.5006 114.357 13.1474C115.537 14.7792 117.186 16.1768 119.303 17.3403C121.436 18.4885 123.94 19.2743 126.814 19.6973L124.545 24.2754C120.96 23.6408 117.851 22.4849 115.219 20.8078C112.602 19.1306 110.621 17.0607 109.274 14.5979C107.958 17.106 105.999 19.2213 103.398 20.9438C100.811 22.6662 97.7553 23.8522 94.2309 24.5019L91.9619 19.9239C94.73 19.4706 97.1579 18.6471 99.2453 17.4536C101.348 16.26 102.982 14.832 104.146 13.1701C105.326 11.508 105.999 9.75546 106.166 7.91212H93.5501V3.24336H124.908V7.91212ZM149.413 0.47828C152.575 0.47828 155.275 0.750327 157.513 1.29416C159.753 1.83813 161.462 2.63892 162.642 3.69655C163.822 4.75418 164.419 6.03847 164.433 7.54943C164.419 9.0453 163.822 10.322 162.642 11.3796C161.462 12.4222 159.753 13.2154 157.513 13.7593C155.275 14.3033 152.575 14.5752 149.413 14.5752C146.237 14.5752 143.521 14.3033 141.267 13.7593C139.013 13.2154 137.297 12.4222 136.117 11.3796C134.937 10.322 134.347 9.0453 134.347 7.54943C134.347 6.03847 134.937 4.75418 136.117 3.69655C137.297 2.63892 139.013 1.83813 141.267 1.29416C143.521 0.750327 146.237 0.47828 149.413 0.47828ZM149.413 4.7391C146.372 4.7391 144.111 4.97337 142.629 5.44165C141.146 5.89497 140.413 6.59752 140.428 7.54943C140.413 8.5315 141.132 9.24927 142.584 9.70247C144.05 10.1407 146.327 10.3598 149.413 10.3598C152.514 10.3598 154.791 10.1407 156.243 9.70247C157.711 9.24927 158.444 8.5315 158.444 7.54943C158.444 6.59752 157.703 5.89497 156.22 5.44165C154.738 4.97337 152.469 4.7391 149.413 4.7391ZM168.246 20.8305H158.807V23.7314H163.663V34.2474H140.655V36.7404H164.752V41.0919H134.982V30.2132H157.944V27.9469H134.937V23.7314H140.065V20.8305H130.58V16.2977H168.246V20.8305ZM153.043 23.7314V20.8305H145.782V23.7314H153.043ZM184.129 2.88067C186.277 2.86559 188.221 3.29622 189.961 4.17257C191.715 5.03371 193.084 6.23497 194.068 7.77609C195.066 9.31722 195.565 11.0548 195.565 12.9888C195.565 14.9379 195.066 16.683 194.068 18.2241C193.084 19.7652 191.723 20.974 189.983 21.8503C188.244 22.7116 186.292 23.1422 184.129 23.1422C181.967 23.1422 180.007 22.7116 178.253 21.8503C176.513 20.974 175.143 19.7652 174.146 18.2241C173.146 16.683 172.648 14.9379 172.648 12.9888C172.648 11.0548 173.146 9.31722 174.146 7.77609C175.143 6.23497 176.521 5.03371 178.275 4.17257C180.03 3.29622 181.981 2.86559 184.129 2.88067ZM184.129 7.86673C183.041 7.86673 182.057 8.0707 181.179 8.47864C180.301 8.88659 179.613 9.48341 179.115 10.2691C178.631 11.0396 178.396 11.9463 178.412 12.9888C178.396 14.0464 178.631 14.9606 179.115 15.7311C179.613 16.5017 180.295 17.0909 181.157 17.4989C182.034 17.9068 183.025 18.1108 184.129 18.1108C185.234 18.1108 186.217 17.9068 187.078 17.4989C187.956 17.0909 188.644 16.5017 189.143 15.7311C189.659 14.9606 189.923 14.0464 189.937 12.9888C189.923 11.9311 189.665 11.0171 189.167 10.2464C188.667 9.47593 187.979 8.88659 187.101 8.47864C186.224 8.0707 185.234 7.86673 184.129 7.86673ZM205.458 41.4546H199.695V0.115723H205.458V41.4546ZM173.193 28.3096C182.888 28.3096 190.936 27.8713 197.335 26.995L197.788 31.1651C193.735 31.9509 189.598 32.457 185.377 32.6837C181.157 32.9102 176.566 33.0236 171.604 33.0236L170.924 28.3096H173.193Z" fill="url(#paint0_linear_752_6917)"/>
<defs>
<linearGradient id="paint0_linear_752_6917" x1="209.855" y1="20.4326" x2="-1.83911" y2="20.4326" gradientUnits="userSpaceOnUse">
<stop stop-color="#4C65E6"/>
<stop offset="1" stop-color="#7284E3"/>
</linearGradient>
</defs>
</svg>
