<svg width="211" height="42" viewBox="0 0 211 42" fill="none" xmlns="http://www.w3.org/2000/svg">
<path id="Vector" d="M35.1075 31.7311H29.3038V28.4666H21.4145V24.5239H29.3038V0.590582H35.1075V31.7311ZM36.0142 41.0682H5.27321V28.7386H11.0315V23.2539C8.22035 23.3751 4.77446 23.4357 0.693779 23.4357L0.0136719 18.8574C5.33366 18.8278 10.1171 18.7375 14.364 18.5854C18.611 18.4345 22.6538 18.1174 26.4927 17.6339L26.8101 21.7583C23.6665 22.287 20.3415 22.6802 16.8351 22.9367V30.7783H11.0315V36.4448H36.0142V41.0682ZM13.4345 1.99593C15.4145 1.98046 17.1826 2.28345 18.7394 2.90232C20.2961 3.52247 21.5128 4.39789 22.3894 5.53118C23.2811 6.6503 23.7269 7.93446 23.7269 9.38492C23.7269 10.8199 23.2886 12.0886 22.412 13.1922C21.5354 14.2946 20.3112 15.1481 18.7394 15.7528C17.1826 16.342 15.4145 16.6372 13.4345 16.6372C11.4093 16.6372 9.61081 16.342 8.03899 15.7528C6.46718 15.1481 5.24298 14.3023 4.36639 13.2141C3.4898 12.1118 3.05151 10.8354 3.05151 9.38492C3.05151 7.93446 3.48224 6.6503 4.34371 5.53118C5.22031 4.39789 6.44451 3.52247 8.01632 2.90232C9.60325 2.28345 11.4093 1.98046 13.4345 1.99593ZM13.4345 6.21194C11.9382 6.21194 10.7443 6.49173 9.85263 7.04999C8.96092 7.60955 8.52263 8.387 8.53773 9.38492C8.52263 10.3661 8.95336 11.1293 9.82995 11.6734C10.7216 12.202 11.9232 12.4664 13.4345 12.4664C14.8553 12.4664 16.0039 12.1943 16.8805 11.6502C17.7722 11.1074 18.2255 10.3519 18.2407 9.38492C18.2255 8.387 17.7722 7.60955 16.8805 7.04999C16.0039 6.49173 14.8553 6.21194 13.4345 6.21194ZM61.4505 8.65904H47.7575V15.4588H60.861V19.9907H47.7575V27.7871C50.9313 27.7575 53.7727 27.6582 56.2816 27.4932C58.8056 27.3268 61.3749 27.0316 63.9895 26.6087L64.5336 31.2772C61.5864 31.7311 58.6544 32.0328 55.7375 32.1836C52.8206 32.3345 49.3747 32.4105 45.3998 32.4105H41.9085V3.94535H61.4505V8.65904ZM72.831 16.1834H78.9066V21.0337H72.831V41.7928H67.0274V0.545471H72.831V16.1834ZM114.952 23.8896H109.149V0.590582H114.952V23.8896ZM114.952 41.3402H87.2946V25.7474H114.952V41.3402ZM93.0076 36.7168H109.285V30.3257H93.0076V36.7168ZM92.3275 2.44976C94.4585 2.44976 96.378 2.87266 98.0858 3.71844C99.8088 4.56422 101.161 5.74265 102.144 7.25371C103.126 8.76477 103.617 10.4873 103.617 12.4212C103.617 14.2804 103.126 15.9565 102.144 17.4521C101.161 18.9489 99.8088 20.1274 98.0858 20.9886C96.3629 21.8344 94.4434 22.2573 92.3275 22.2573C90.2115 22.2573 88.2922 21.8344 86.5692 20.9886C84.8463 20.1274 83.4937 18.9489 82.5112 17.4521C81.5288 15.9565 81.0377 14.2804 81.0377 12.4212C81.0377 10.4873 81.5288 8.76477 82.5112 7.25371C83.4937 5.74265 84.8387 4.56422 86.5466 3.71844C88.2695 2.87266 90.1964 2.44976 92.3275 2.44976ZM92.3275 7.29882C91.2242 7.29882 90.2419 7.50383 89.3803 7.91124C88.534 8.31866 87.8689 8.90917 87.3853 9.67888C86.9169 10.4499 86.6902 11.364 86.7052 12.4212C86.6902 13.4333 86.9169 14.3178 87.3853 15.0733C87.8689 15.8134 88.534 16.3871 89.3803 16.7958C90.2419 17.2032 91.2242 17.407 92.3275 17.407C93.4006 17.407 94.3602 17.2032 95.2066 16.7958C96.0529 16.3871 96.7104 15.8134 97.179 15.0733C97.6626 14.3178 97.9044 13.4333 97.9044 12.4212C97.9044 11.364 97.6626 10.4499 97.179 9.67888C96.7104 8.90917 96.0529 8.31866 95.2066 7.91124C94.3602 7.50383 93.4006 7.29882 92.3275 7.29882ZM156.303 41.7928H150.771V0.545471H156.303V41.7928ZM147.689 39.8898H142.248V20.3994H138.915C138.749 23.0889 138.265 25.4071 137.464 27.3565C136.679 29.3059 135.636 30.8015 134.336 31.8445C133.036 32.8863 131.547 33.4072 129.869 33.4072C128.072 33.4072 126.492 32.8038 125.132 31.5944C123.787 30.3863 122.744 28.6561 122.003 26.405C121.262 24.1384 120.892 21.4721 120.892 18.4049C120.892 15.3531 121.262 12.7087 122.003 10.4718C122.744 8.22067 123.787 6.49818 125.132 5.30557C126.492 4.09621 128.072 3.49151 129.869 3.49151C131.518 3.49151 132.975 3.98274 134.245 4.96519C135.53 5.94763 136.565 7.36717 137.351 9.22634C138.152 11.0687 138.659 13.267 138.87 15.8211H142.248V1.13468H147.689V39.8898ZM129.869 8.93108C128.691 8.93108 127.784 9.73173 127.149 11.333C126.53 12.9356 126.227 15.2925 126.242 18.4049C126.227 21.5327 126.53 23.8973 127.149 25.4986C127.784 27.0844 128.691 27.8632 129.869 27.8322C131.064 27.8632 131.986 27.0844 132.636 25.4986C133.3 23.8973 133.633 21.5327 133.633 18.4049C133.633 15.2925 133.3 12.9356 132.636 11.333C131.986 9.73173 131.064 8.93108 129.869 8.93108ZM176.253 9.88258C176.253 12.5424 176.616 15.0811 177.342 17.4985C178.082 19.9005 179.2 22.0381 180.696 23.9115C182.193 25.7706 184.052 27.1824 186.274 28.1494L182.736 32.7728C180.516 31.686 178.618 30.1672 177.046 28.2177C175.49 26.2541 174.266 23.9643 173.375 21.3509C172.452 24.1461 171.176 26.5855 169.543 28.6716C167.926 30.7564 165.976 32.3654 163.694 33.4987L160.066 28.785C162.334 27.7716 164.238 26.2838 165.78 24.3202C167.321 22.3553 168.47 20.1274 169.226 17.6339C169.997 15.1404 170.389 12.5579 170.404 9.88258V3.71844H176.253V9.88258ZM195.477 41.8843H189.765V18.1779H181.649V13.5094H189.765V0.545471H195.477V41.8843ZM209.579 27.7871H203.775L203.186 4.8066H210.168L209.579 27.7871ZM206.722 38.0306C206.027 38.0306 205.385 37.8578 204.795 37.5097C204.206 37.1629 203.738 36.7013 203.39 36.1276C203.057 35.5384 202.898 34.9041 202.914 34.2233C202.898 33.5438 203.057 32.9172 203.39 32.3422C203.738 31.7685 204.206 31.3146 204.795 30.9833C205.385 30.6352 206.027 30.4611 206.722 30.4611C207.372 30.4611 207.985 30.6352 208.559 30.9833C209.148 31.3146 209.616 31.7685 209.964 32.3422C210.311 32.9172 210.486 33.5438 210.486 34.2233C210.486 34.9041 210.311 35.5384 209.964 36.1276C209.616 36.7013 209.148 37.1629 208.559 37.5097C207.985 37.8578 207.372 38.0306 206.722 38.0306Z" fill="url(#paint0_linear_752_6915)"/>
<defs>
<linearGradient id="paint0_linear_752_6915" x1="214.304" y1="20.8623" x2="-1.07451" y2="20.8623" gradientUnits="userSpaceOnUse">
<stop stop-color="#4C65E6"/>
<stop offset="1" stop-color="#7284E3"/>
</linearGradient>
</defs>
</svg>
