<svg width="119" height="43" viewBox="0 0 119 43" fill="none" xmlns="http://www.w3.org/2000/svg">
<path id="Vector" d="M16.6645 10.1721C16.6645 12.7558 17.0588 15.2563 17.8474 17.6737C18.636 20.0761 19.8113 22.214 21.3732 24.0875C22.9504 25.9461 24.8687 27.3511 27.1283 28.3032L23.7162 32.9266C21.4111 31.8836 19.4245 30.3957 17.7564 28.4618C16.1034 26.5126 14.7918 24.2236 13.8212 21.5947C12.8507 24.4653 11.501 26.9583 9.77219 29.0742C8.05857 31.1886 5.97341 32.8054 3.51673 33.9233L0.0136719 29.1193C2.34904 28.1369 4.32046 26.6788 5.92793 24.7448C7.53538 22.7958 8.74098 20.5672 9.54472 18.0591C10.3636 15.5509 10.7806 12.922 10.7958 10.1721V4.00758H16.6645V10.1721ZM35.2262 42.1736H29.3574V0.834717H35.2262V42.1736ZM64.3426 7.86041H56.1081C56.1232 9.53755 56.472 11.1542 57.1544 12.7104C57.8521 14.2515 58.9211 15.6416 60.3618 16.8805C61.8024 18.1194 63.5995 19.0864 65.7528 19.7815L62.7958 24.2689C60.5513 23.5588 58.6254 22.5086 57.0179 21.1186C55.4257 19.7135 54.167 18.0591 53.242 16.1553C52.2866 18.2404 50.9748 20.0383 49.3066 21.5493C47.6386 23.0602 45.6292 24.1934 43.2786 24.9488L40.1851 20.5067C42.3839 19.7966 44.2265 18.7843 45.7126 17.4698C47.214 16.1553 48.3361 14.6747 49.0793 13.0277C49.8223 11.3658 50.209 9.64327 50.2393 7.86041H41.7774V3.23708H64.3426V7.86041ZM73.6688 10.852H79.2646V15.6567H73.6688V25.7194H67.8456V0.834717H73.6688V10.852ZM73.6688 42.082H67.8456V32.0654H45.7808V27.4872H73.6688V42.082ZM118.845 26.5353H81.0844V21.9118H118.845V26.5353ZM114.568 41.3574H85.6338V29.2998H91.4571V36.734H114.568V41.3574ZM99.9645 2.10391C102.967 2.0887 105.598 2.42121 107.858 3.10106C110.132 3.78091 111.892 4.7555 113.135 6.0247C114.379 7.29389 115.008 8.79723 115.023 10.5347C115.008 12.2723 114.379 13.7832 113.135 15.0674C111.892 16.3517 110.132 17.3413 107.858 18.0364C105.598 18.7163 102.967 19.0563 99.9645 19.0563C96.9316 19.0563 94.2777 18.7163 92.003 18.0364C89.7283 17.3413 87.9692 16.3517 86.7257 15.0674C85.4822 13.7832 84.8605 12.2723 84.8605 10.5347C84.8605 8.79723 85.4822 7.29389 86.7257 6.0247C87.9692 4.7555 89.7283 3.78091 92.003 3.10106C94.2777 2.42121 96.9316 2.0887 99.9645 2.10391ZM99.9645 6.63661C97.068 6.66678 94.8312 7.01437 93.2541 7.67913C91.6769 8.3439 90.896 9.2958 90.9111 10.5347C90.896 11.8039 91.6694 12.7633 93.2314 13.413C94.8084 14.0628 97.0528 14.3875 99.9645 14.3875C102.876 14.3875 105.113 14.0628 106.675 13.413C108.237 12.7633 109.018 11.8039 109.018 10.5347C109.018 9.2958 108.229 8.3439 106.652 7.67913C105.075 7.01437 102.846 6.66678 99.9645 6.63661Z" fill="url(#paint0_linear_752_6916)"/>
<defs>
<linearGradient id="paint0_linear_752_6916" x1="120.973" y1="21.1514" x2="-0.668743" y2="21.1514" gradientUnits="userSpaceOnUse">
<stop stop-color="#4C65E6"/>
<stop offset="1" stop-color="#7284E3"/>
</linearGradient>
</defs>
</svg>
