<svg width="23" height="20" viewBox="0 0 23 20" fill="none" xmlns="http://www.w3.org/2000/svg">
<g id="Group 31">
<path id="Ellipse 7" d="M19.0333 12.024C19.0333 16.3994 15.4863 19.9464 11.1109 19.9464C6.73547 19.9464 3.18848 16.3994 3.18848 12.024C3.18848 7.64855 6.73547 4.10156 11.1109 4.10156C15.4863 4.10156 19.0333 7.64855 19.0333 12.024Z" fill="#677CEE"/>
<path id="Ellipse 7 (Stroke)" fill-rule="evenodd" clip-rule="evenodd" d="M11.1324 17.453C14.1216 17.453 16.5448 15.0298 16.5448 12.0406C16.5448 9.05134 14.1216 6.6281 11.1324 6.6281C8.14314 6.6281 5.71989 9.05134 5.71989 12.0406C5.71989 15.0298 8.14314 17.453 11.1324 17.453ZM11.1324 20.0001C15.5283 20.0001 19.0919 16.4365 19.0919 12.0406C19.0919 7.64465 15.5283 4.08105 11.1324 4.08105C6.73644 4.08105 3.17285 7.64465 3.17285 12.0406C3.17285 16.4365 6.73644 20.0001 11.1324 20.0001Z" fill="#677CEE"/>
<path id="Ellipse 8" d="M2.80978 2.29149C1.41848 3.42616 1.07215 5.36716 1.89515 6.89046C2.07863 7.23006 2.52612 7.2727 2.82525 7.02874L7.44713 3.25936C7.74626 3.0154 7.79449 2.56847 7.49873 2.32045C6.17207 1.20791 4.20108 1.15681 2.80978 2.29149Z" fill="#677CEE"/>
<path id="Ellipse 9" d="M19.4822 2.29149C20.8735 3.42616 21.2198 5.36716 20.3968 6.89046C20.2134 7.23006 19.7659 7.2727 19.4667 7.02874L14.8449 3.25936C14.5457 3.0154 14.4975 2.56847 14.7933 2.32045C16.1199 1.20791 18.0909 1.15681 19.4822 2.29149Z" fill="#677CEE"/>
<rect id="Rectangle 57" x="13.8848" y="13.6838" width="1.69803" height="4.0411" rx="0.849014" transform="rotate(135 13.8848 13.6838)" fill="#E8EBFC"/>
<rect id="Rectangle 56" x="10.1982" y="7.85474" width="1.69803" height="4.98796" rx="0.849014" fill="#E8EBFC"/>
</g>
</svg>
