<svg width="259" height="56" viewBox="0 0 259 56" fill="none" xmlns="http://www.w3.org/2000/svg">
<path d="M7.86296 6.41254C3.96951 9.58785 3.00034 15.0196 5.30344 19.2824C5.81689 20.2328 7.06917 20.3521 7.90627 19.6694L20.8403 9.12106C21.6774 8.43836 21.8123 7.18767 20.9847 6.49358C17.2721 3.38024 11.7564 3.23723 7.86296 6.41254Z" fill="white"/>
<path d="M54.5199 6.41254C58.4133 9.58785 59.3825 15.0196 57.0794 19.2824C56.5659 20.2328 55.3136 20.3521 54.4765 19.6694L41.5426 9.12106C40.7055 8.43836 40.5705 7.18767 41.3982 6.49358C45.1107 3.38024 50.6264 3.23723 54.5199 6.41254Z" fill="white"/>
<rect x="38.8564" y="38.2932" width="4.75181" height="11.3087" rx="2.37591" transform="rotate(135 38.8564 38.2932)" fill="white"/>
<rect x="28.54" y="21.9812" width="4.75181" height="13.9584" rx="2.3759" fill="white"/>
<path d="M228.525 40.1105C228.525 31.1268 235.248 24.2209 244.109 24.2209C252.788 24.2209 258.716 30.5768 258.716 39.6827C258.716 40.8439 258.532 42.1273 258.41 43.3495H235.676C236.898 47.1386 240.32 49.4609 244.843 49.4609C247.776 49.4609 250.587 48.422 252.421 46.4052L257.004 50.9888C254.071 54.2278 249.793 56.0001 244.782 56.0001C235.553 56.0001 228.525 49.0942 228.525 40.1105ZM243.987 30.699C239.77 30.699 236.165 33.5102 235.553 37.7271H251.932C251.321 33.388 248.082 30.699 243.987 30.699Z" fill="white"/>
<path d="M173.774 55.3889V24.8321H180.986V28.1322C183.247 25.7488 186.547 24.2209 190.153 24.2209C194.798 24.2209 198.464 26.3599 200.42 29.9656C203.17 26.4822 206.409 24.2209 211.298 24.2209C218.387 24.2209 223.277 29.2323 223.277 36.9937V55.3889H216.065V38.5216C216.065 33.388 213.376 31.0046 209.526 31.0046C205.37 31.0046 202.131 34.0603 202.131 38.766V55.3889H194.92V38.5216C194.92 33.388 192.231 31.0046 188.381 31.0046C184.225 31.0046 180.986 34.0603 180.986 38.8882V55.3889H173.774Z" fill="white"/>
<path d="M166.662 55.3889H159.451V24.832H166.662V55.3889ZM158.778 15.0538C158.778 12.7315 160.673 10.7759 163.056 10.7759C165.44 10.7759 167.334 12.7315 167.334 15.0538C167.334 17.4373 165.44 19.3929 163.056 19.3929C160.673 19.3929 158.778 17.4373 158.778 15.0538Z" fill="white"/>
<path d="M134.593 18.5984H120.781V11.387H155.555V18.5984H141.804V55.3888H134.593V18.5984Z" fill="white"/>
<path d="M92.9883 40.1105C92.9883 31.1268 99.7108 24.2209 108.572 24.2209C117.25 24.2209 123.178 30.5768 123.178 39.6827C123.178 40.8439 122.995 42.1273 122.873 43.3495H100.139C101.361 47.1386 104.783 49.4609 109.306 49.4609C112.239 49.4609 115.05 48.422 116.884 46.4052L121.467 50.9888C118.534 54.2278 114.256 56.0001 109.245 56.0001C100.016 56.0001 92.9883 49.0942 92.9883 40.1105ZM108.45 30.699C104.233 30.699 100.627 33.5102 100.016 37.7271H116.395C115.784 33.388 112.545 30.699 108.45 30.699Z" fill="white"/>
<path d="M66.5757 55.3889H59.3643V24.8321H66.5757V28.1322C68.8369 25.7488 72.137 24.2209 75.7427 24.2209C82.8319 24.2209 87.721 29.2323 87.721 36.9937V55.3889H80.5096V38.5216C80.5096 33.388 77.8206 31.0046 73.9704 31.0046C69.8147 31.0046 66.5757 34.0603 66.5757 38.8882V55.3889Z" fill="white"/>
<path d="M31.2771 56C18.8099 56 8.66504 45.8551 8.66504 33.3879C8.66504 20.9208 18.8099 10.7759 31.2771 10.7759C43.7443 10.7759 53.8892 20.9208 53.8892 33.3879C53.8892 45.8551 43.7443 56 31.2771 56ZM15.8765 33.3879C15.8765 41.8828 22.7823 48.7886 31.2771 48.7886C39.7719 48.7886 46.6778 41.8828 46.6778 33.3879C46.6778 24.8931 39.7719 17.9873 31.2771 17.9873C22.7823 17.9873 15.8765 24.8931 15.8765 33.3879Z" fill="white"/>
</svg>
