<svg width="778" height="59" viewBox="0 0 778 59" fill="none" xmlns="http://www.w3.org/2000/svg">
<path opacity="0.2" fill-rule="evenodd" clip-rule="evenodd" d="M149.354 46.8755C149.354 45.9033 150.143 45.1152 151.115 45.1152C152.087 45.1152 152.875 45.9033 152.875 46.8755V48.3485L153.917 47.3066C154.604 46.6192 155.719 46.6192 156.406 47.3066C157.094 47.994 157.094 49.1086 156.406 49.796L155.366 50.8359H156.833C157.806 50.8359 158.594 51.624 158.594 52.5962C158.594 53.5684 157.806 54.3565 156.833 54.3565H155.366L156.406 55.3972C157.094 56.0846 157.094 57.1992 156.406 57.8866C155.719 58.574 154.604 58.574 153.917 57.8866L152.875 56.8447V58.3174C152.875 59.2896 152.087 60.0777 151.115 60.0777C150.143 60.0777 149.354 59.2896 149.354 58.3174V56.8479L148.316 57.8866C147.628 58.574 146.514 58.574 145.826 57.8866C145.139 57.1992 145.139 56.0846 145.826 55.3972L146.867 54.3565H145.392C144.419 54.3565 143.631 53.5684 143.631 52.5962C143.631 51.624 144.419 50.8359 145.392 50.8359H146.866L145.826 49.796C145.139 49.1086 145.139 47.994 145.826 47.3066C146.514 46.6192 147.628 46.6192 148.316 47.3066L149.354 48.3453V46.8755Z" fill="#A8B4F5" fill-opacity="0.66"/>
<path opacity="0.3" fill-rule="evenodd" clip-rule="evenodd" d="M66.8091 49.3123C66.8091 48.5196 67.4517 47.877 68.2444 47.877C69.0371 47.877 69.6797 48.5196 69.6797 49.3123V50.5112L70.5263 49.6645C71.0869 49.104 71.9956 49.104 72.5562 49.6645C73.1167 50.2251 73.1167 51.1338 72.5562 51.6944L71.7095 52.541H72.9084C73.7011 52.541 74.3438 53.1836 74.3438 53.9763C74.3438 54.769 73.7011 55.4116 72.9084 55.4116H71.7063L72.5562 56.2615C73.1167 56.822 73.1167 57.7308 72.5562 58.2913C71.9956 58.8518 71.0869 58.8518 70.5263 58.2913L69.6797 57.4447V58.6418C69.6797 59.4345 69.0371 60.0771 68.2444 60.0771C67.4517 60.0771 66.8091 59.4345 66.8091 58.6418V57.4415L65.9592 58.2913C65.3987 58.8518 64.4899 58.8518 63.9294 58.2913C63.3689 57.7308 63.3689 56.822 63.9294 56.2615L64.7792 55.4116H63.5789C62.7862 55.4116 62.1436 54.769 62.1436 53.9763C62.1436 53.1836 62.7862 52.541 63.5789 52.541H64.776L63.9294 51.6944C63.3689 51.1338 63.3689 50.2251 63.9294 49.6645C64.4899 49.104 65.3987 49.104 65.9592 49.6645L66.8091 50.5144V49.3123Z" fill="#4C65E6"/>
<path opacity="0.2" fill-rule="evenodd" clip-rule="evenodd" d="M99.9873 32.2525C99.9873 31.7291 100.412 31.3047 100.935 31.3047C101.459 31.3047 101.883 31.7291 101.883 32.2525V33.0461L102.444 32.4846C102.815 32.1145 103.415 32.1145 103.785 32.4846C104.155 32.8548 104.155 33.455 103.785 33.8251L103.225 34.3848H104.013C104.537 34.3848 104.961 34.8092 104.961 35.3327C104.961 35.8562 104.537 36.2805 104.013 36.2805H103.224L103.785 36.8411C104.155 37.2113 104.155 37.8114 103.785 38.1816C103.415 38.5517 102.815 38.5517 102.444 38.1816L101.883 37.6202V38.4135C101.883 38.937 101.459 39.3614 100.935 39.3614C100.412 39.3614 99.9873 38.937 99.9873 38.4135V37.6227L99.4284 38.1816C99.0583 38.5517 98.4581 38.5517 98.088 38.1816C97.7178 37.8114 97.7178 37.2113 98.088 36.8411L98.6486 36.2805H97.8521C97.3286 36.2805 96.9042 35.8562 96.9042 35.3327C96.9042 34.8092 97.3286 34.3848 97.8521 34.3848H98.6477L98.088 33.8251C97.7178 33.455 97.7178 32.8548 98.088 32.4846C98.4581 32.1145 99.0583 32.1145 99.4284 32.4846L99.9873 33.0436V32.2525Z" fill="#E8EBFC"/>
<path opacity="0.2" fill-rule="evenodd" clip-rule="evenodd" d="M239.011 11.7662C239.011 11.2427 239.435 10.8184 239.959 10.8184C240.482 10.8184 240.906 11.2427 240.906 11.7662V12.5597L241.468 11.9983C241.838 11.6282 242.438 11.6282 242.808 11.9983C243.178 12.3685 243.178 12.9686 242.808 13.3388L242.249 13.8985H243.037C243.56 13.8985 243.984 14.3229 243.984 14.8463C243.984 15.3698 243.56 15.7942 243.037 15.7942H242.248L242.808 16.3548C243.178 16.7249 243.178 17.3251 242.808 17.6953C242.438 18.0654 241.838 18.0654 241.468 17.6953L240.906 17.1338V17.9272C240.906 18.4507 240.482 18.8751 239.959 18.8751C239.435 18.8751 239.011 18.4507 239.011 17.9272V17.1363L238.452 17.6953C238.082 18.0654 237.482 18.0654 237.111 17.6953C236.741 17.3251 236.741 16.7249 237.111 16.3548L237.672 15.7942H236.876C236.352 15.7942 235.928 15.3698 235.928 14.8463C235.928 14.3229 236.352 13.8985 236.876 13.8985H237.671L237.111 13.3388C236.741 12.9686 236.741 12.3685 237.111 11.9983C237.482 11.6282 238.082 11.6282 238.452 11.9983L239.011 12.5572V11.7662Z" fill="#E8EBFC"/>
<path opacity="0.1" fill-rule="evenodd" clip-rule="evenodd" d="M22.0904 36.1384C22.0904 35.1214 22.9149 34.2969 23.9319 34.2969C24.949 34.2969 25.7734 35.1214 25.7734 36.1384V37.6808L26.8641 36.5902C27.5833 35.871 28.7493 35.871 29.4684 36.5902C30.1876 37.3093 30.1876 38.4753 29.4684 39.1945L28.3836 40.2793H29.9163C30.9333 40.2793 31.7578 41.1038 31.7578 42.1208C31.7578 43.1379 30.9333 43.9624 29.9163 43.9624H28.3766L29.4684 45.0542C30.1876 45.7733 30.1876 46.9393 29.4684 47.6585C28.7493 48.3776 27.5833 48.3776 26.8641 47.6585L25.7734 46.5678V48.1084C25.7734 49.1254 24.949 49.9499 23.9319 49.9499C22.9149 49.9499 22.0904 49.1254 22.0904 48.1084V46.5725L21.0044 47.6585C20.2853 48.3776 19.1193 48.3776 18.4001 47.6585C17.681 46.9393 17.681 45.7733 18.4001 45.0542L19.4919 43.9624H17.9463C16.9293 43.9624 16.1048 43.1379 16.1048 42.1208C16.1048 41.1038 16.9293 40.2793 17.9463 40.2793H19.4849L18.4001 39.1945C17.681 38.4753 17.681 37.3093 18.4001 36.5902C19.1193 35.871 20.2853 35.871 21.0044 36.5902L22.0904 37.6761V36.1384Z" fill="#E8EBFC"/>
<path opacity="0.1" fill-rule="evenodd" clip-rule="evenodd" d="M22.0904 36.1384C22.0904 35.1214 22.9149 34.2969 23.9319 34.2969C24.949 34.2969 25.7734 35.1214 25.7734 36.1384V37.6808L26.8641 36.5902C27.5833 35.871 28.7493 35.871 29.4684 36.5902C30.1876 37.3093 30.1876 38.4753 29.4684 39.1945L28.3836 40.2793H29.9163C30.9333 40.2793 31.7578 41.1038 31.7578 42.1208C31.7578 43.1379 30.9333 43.9624 29.9163 43.9624H28.3766L29.4684 45.0542C30.1876 45.7733 30.1876 46.9393 29.4684 47.6585C28.7493 48.3776 27.5833 48.3776 26.8641 47.6585L25.7734 46.5678V48.1084C25.7734 49.1254 24.949 49.9499 23.9319 49.9499C22.9149 49.9499 22.0904 49.1254 22.0904 48.1084V46.5725L21.0044 47.6585C20.2853 48.3776 19.1193 48.3776 18.4001 47.6585C17.681 46.9393 17.681 45.7733 18.4001 45.0542L19.4919 43.9624H17.9463C16.9293 43.9624 16.1048 43.1379 16.1048 42.1208C16.1048 41.1038 16.9293 40.2793 17.9463 40.2793H19.4849L18.4001 39.1945C17.681 38.4753 17.681 37.3093 18.4001 36.5902C19.1193 35.871 20.2853 35.871 21.0044 36.5902L22.0904 37.6761V36.1384Z" fill="#E8EBFC"/>
<path opacity="0.4" fill-rule="evenodd" clip-rule="evenodd" d="M2.29489 0.704115C2.29489 0.315243 2.61014 0 2.99901 0C3.38788 0 3.70312 0.315243 3.70312 0.704115V1.28353L4.1105 0.876153C4.38547 0.601178 4.8313 0.601178 5.10627 0.876153C5.38124 1.15113 5.38124 1.59695 5.10627 1.87192L4.68913 2.28906H5.28026C5.66913 2.28906 5.98438 2.60431 5.98438 2.99318C5.98438 3.38205 5.66913 3.69729 5.28026 3.69729H4.69117L5.10627 4.11239C5.38124 4.38736 5.38124 4.83318 5.10627 5.10816C4.8313 5.38313 4.38547 5.38313 4.1105 5.10816L3.70312 4.70078V5.28087C3.70312 5.66974 3.38788 5.98498 2.99901 5.98498C2.61014 5.98498 2.29489 5.66974 2.29489 5.28087V4.6833L1.87003 5.10816C1.59506 5.38313 1.14924 5.38313 0.874264 5.10816C0.599289 4.83318 0.599289 4.38736 0.874264 4.11239L1.28936 3.69729H0.70351C0.314638 3.69729 -0.000605583 3.38205 -0.000605583 2.99318C-0.000605583 2.60431 0.314638 2.28906 0.70351 2.28906H1.2914L0.874264 1.87192C0.599289 1.59695 0.599289 1.15113 0.874264 0.876153C1.14924 0.601178 1.59506 0.601178 1.87003 0.876153L2.29489 1.30101V0.704115Z" fill="#8898F2"/>
<path opacity="0.3" fill-rule="evenodd" clip-rule="evenodd" d="M48.3183 15.667C48.3183 15.2781 48.6336 14.9629 49.0224 14.9629C49.4113 14.9629 49.7266 15.2781 49.7266 15.667V16.2542L50.1417 15.839C50.4167 15.5641 50.8625 15.5641 51.1375 15.839C51.4125 16.114 51.4125 16.5598 51.1375 16.8348L50.7204 17.252H51.3115C51.7004 17.252 52.0156 17.5672 52.0156 17.9561C52.0156 18.3449 51.7004 18.6602 51.3115 18.6602H50.7224L51.1375 19.0753C51.4125 19.3503 51.4125 19.7961 51.1375 20.071C50.8625 20.346 50.4167 20.346 50.1417 20.071L49.7266 19.6559V20.2438C49.7266 20.6326 49.4113 20.9479 49.0224 20.9479C48.6336 20.9479 48.3183 20.6326 48.3183 20.2438V19.654L47.9013 20.071C47.6263 20.346 47.1805 20.346 46.9055 20.071C46.6305 19.7961 46.6305 19.3503 46.9055 19.0753L47.3206 18.6602H46.7348C46.3459 18.6602 46.0306 18.3449 46.0306 17.9561C46.0306 17.5672 46.3459 17.252 46.7348 17.252H47.3227L46.9055 16.8348C46.6305 16.5598 46.6305 16.114 46.9055 15.839C47.1805 15.5641 47.6263 15.5641 47.9013 15.839L48.3183 16.2561V15.667Z" fill="#4C65E6"/>
<path opacity="0.5" fill-rule="evenodd" clip-rule="evenodd" d="M221.205 42.1258C221.205 41.6173 221.618 41.2051 222.126 41.2051C222.635 41.2051 223.047 41.6173 223.047 42.1258V42.9029L223.6 42.3498C223.96 41.9902 224.543 41.9902 224.902 42.3498C225.262 42.7093 225.262 43.2923 224.902 43.6519L224.357 44.1973H225.126C225.635 44.1973 226.047 44.6095 226.047 45.118C226.047 45.6266 225.635 46.0388 225.126 46.0388H224.359L224.902 46.5818C225.262 46.9413 225.262 47.5243 224.902 47.8839C224.543 48.2435 223.96 48.2435 223.6 47.8839L223.047 47.3308V48.1108C223.047 48.6193 222.635 49.0316 222.126 49.0316C221.618 49.0316 221.205 48.6193 221.205 48.1108V47.3488L220.67 47.8839C220.311 48.2435 219.728 48.2435 219.368 47.8839C219.008 47.5243 219.008 46.9413 219.368 46.5818L219.911 46.0388H219.141C218.633 46.0388 218.22 45.6266 218.22 45.118C218.22 44.6095 218.633 44.1973 219.141 44.1973H219.913L219.368 43.6519C219.008 43.2923 219.008 42.7093 219.368 42.3498C219.728 41.9902 220.311 41.9902 220.67 42.3498L221.205 42.8849V42.1258Z" fill="#4C65E6"/>
<path opacity="0.2" fill-rule="evenodd" clip-rule="evenodd" d="M416.354 46.8755C416.354 45.9033 417.143 45.1152 418.115 45.1152C419.087 45.1152 419.875 45.9033 419.875 46.8755V48.3485L420.917 47.3066C421.604 46.6192 422.719 46.6192 423.406 47.3066C424.094 47.994 424.094 49.1086 423.406 49.796L422.366 50.8359H423.833C424.806 50.8359 425.594 51.624 425.594 52.5962C425.594 53.5684 424.806 54.3565 423.833 54.3565H422.366L423.406 55.3972C424.094 56.0846 424.094 57.1992 423.406 57.8866C422.719 58.574 421.604 58.574 420.917 57.8866L419.875 56.8447V58.3174C419.875 59.2896 419.087 60.0777 418.115 60.0777C417.143 60.0777 416.354 59.2896 416.354 58.3174V56.8479L415.316 57.8866C414.628 58.574 413.514 58.574 412.826 57.8866C412.139 57.1992 412.139 56.0846 412.826 55.3972L413.867 54.3565H412.392C411.419 54.3565 410.631 53.5684 410.631 52.5962C410.631 51.624 411.419 50.8359 412.392 50.8359H413.866L412.826 49.796C412.139 49.1086 412.139 47.994 412.826 47.3066C413.514 46.6192 414.628 46.6192 415.316 47.3066L416.354 48.3453V46.8755Z" fill="#A8B4F5" fill-opacity="0.66"/>
<path opacity="0.3" fill-rule="evenodd" clip-rule="evenodd" d="M333.809 49.3123C333.809 48.5196 334.452 47.877 335.244 47.877C336.037 47.877 336.68 48.5196 336.68 49.3123V50.5112L337.526 49.6645C338.087 49.104 338.996 49.104 339.556 49.6645C340.117 50.2251 340.117 51.1338 339.556 51.6944L338.71 52.541H339.908C340.701 52.541 341.344 53.1836 341.344 53.9763C341.344 54.769 340.701 55.4116 339.908 55.4116H338.706L339.556 56.2615C340.117 56.822 340.117 57.7308 339.556 58.2913C338.996 58.8518 338.087 58.8518 337.526 58.2913L336.68 57.4447V58.6418C336.68 59.4345 336.037 60.0771 335.244 60.0771C334.452 60.0771 333.809 59.4345 333.809 58.6418V57.4415L332.959 58.2913C332.399 58.8518 331.49 58.8518 330.929 58.2913C330.369 57.7308 330.369 56.822 330.929 56.2615L331.779 55.4116H330.579C329.786 55.4116 329.144 54.769 329.144 53.9763C329.144 53.1836 329.786 52.541 330.579 52.541H331.776L330.929 51.6944C330.369 51.1338 330.369 50.2251 330.929 49.6645C331.49 49.104 332.399 49.104 332.959 49.6645L333.809 50.5144V49.3123Z" fill="#4C65E6"/>
<path opacity="0.2" fill-rule="evenodd" clip-rule="evenodd" d="M366.987 32.2525C366.987 31.7291 367.412 31.3047 367.935 31.3047C368.459 31.3047 368.883 31.7291 368.883 32.2525V33.0461L369.444 32.4846C369.815 32.1145 370.415 32.1145 370.785 32.4846C371.155 32.8548 371.155 33.455 370.785 33.8251L370.225 34.3848H371.013C371.537 34.3848 371.961 34.8092 371.961 35.3327C371.961 35.8562 371.537 36.2805 371.013 36.2805H370.224L370.785 36.8411C371.155 37.2113 371.155 37.8114 370.785 38.1816C370.415 38.5517 369.815 38.5517 369.444 38.1816L368.883 37.6202V38.4135C368.883 38.937 368.459 39.3614 367.935 39.3614C367.412 39.3614 366.987 38.937 366.987 38.4135V37.6227L366.428 38.1816C366.058 38.5517 365.458 38.5517 365.088 38.1816C364.718 37.8114 364.718 37.2113 365.088 36.8411L365.649 36.2805H364.852C364.329 36.2805 363.904 35.8562 363.904 35.3327C363.904 34.8092 364.329 34.3848 364.852 34.3848H365.648L365.088 33.8251C364.718 33.455 364.718 32.8548 365.088 32.4846C365.458 32.1145 366.058 32.1145 366.428 32.4846L366.987 33.0436V32.2525Z" fill="#E8EBFC"/>
<path opacity="0.2" fill-rule="evenodd" clip-rule="evenodd" d="M506.011 11.7662C506.011 11.2427 506.435 10.8184 506.959 10.8184C507.482 10.8184 507.906 11.2427 507.906 11.7662V12.5597L508.468 11.9983C508.838 11.6282 509.438 11.6282 509.808 11.9983C510.178 12.3685 510.178 12.9686 509.808 13.3388L509.249 13.8985H510.037C510.56 13.8985 510.984 14.3229 510.984 14.8463C510.984 15.3698 510.56 15.7942 510.037 15.7942H509.248L509.808 16.3548C510.178 16.7249 510.178 17.3251 509.808 17.6953C509.438 18.0654 508.838 18.0654 508.468 17.6953L507.906 17.1338V17.9272C507.906 18.4507 507.482 18.8751 506.959 18.8751C506.435 18.8751 506.011 18.4507 506.011 17.9272V17.1363L505.452 17.6953C505.082 18.0654 504.482 18.0654 504.111 17.6953C503.741 17.3251 503.741 16.7249 504.111 16.3548L504.672 15.7942H503.876C503.352 15.7942 502.928 15.3698 502.928 14.8463C502.928 14.3229 503.352 13.8985 503.876 13.8985H504.671L504.111 13.3388C503.741 12.9686 503.741 12.3685 504.111 11.9983C504.482 11.6282 505.082 11.6282 505.452 11.9983L506.011 12.5572V11.7662Z" fill="#E8EBFC"/>
<path opacity="0.1" fill-rule="evenodd" clip-rule="evenodd" d="M289.09 36.1384C289.09 35.1214 289.915 34.2969 290.932 34.2969C291.949 34.2969 292.773 35.1214 292.773 36.1384V37.6808L293.864 36.5902C294.583 35.871 295.749 35.871 296.468 36.5902C297.188 37.3093 297.188 38.4753 296.468 39.1945L295.384 40.2793H296.916C297.933 40.2793 298.758 41.1038 298.758 42.1208C298.758 43.1379 297.933 43.9624 296.916 43.9624H295.377L296.468 45.0542C297.188 45.7733 297.188 46.9393 296.468 47.6585C295.749 48.3776 294.583 48.3776 293.864 47.6585L292.773 46.5678V48.1084C292.773 49.1254 291.949 49.9499 290.932 49.9499C289.915 49.9499 289.09 49.1254 289.09 48.1084V46.5725L288.004 47.6585C287.285 48.3776 286.119 48.3776 285.4 47.6585C284.681 46.9393 284.681 45.7733 285.4 45.0542L286.492 43.9624H284.946C283.929 43.9624 283.105 43.1379 283.105 42.1208C283.105 41.1038 283.929 40.2793 284.946 40.2793H286.485L285.4 39.1945C284.681 38.4753 284.681 37.3093 285.4 36.5902C286.119 35.871 287.285 35.871 288.004 36.5902L289.09 37.6761V36.1384Z" fill="#E8EBFC"/>
<path opacity="0.1" fill-rule="evenodd" clip-rule="evenodd" d="M289.09 36.1384C289.09 35.1214 289.915 34.2969 290.932 34.2969C291.949 34.2969 292.773 35.1214 292.773 36.1384V37.6808L293.864 36.5902C294.583 35.871 295.749 35.871 296.468 36.5902C297.188 37.3093 297.188 38.4753 296.468 39.1945L295.384 40.2793H296.916C297.933 40.2793 298.758 41.1038 298.758 42.1208C298.758 43.1379 297.933 43.9624 296.916 43.9624H295.377L296.468 45.0542C297.188 45.7733 297.188 46.9393 296.468 47.6585C295.749 48.3776 294.583 48.3776 293.864 47.6585L292.773 46.5678V48.1084C292.773 49.1254 291.949 49.9499 290.932 49.9499C289.915 49.9499 289.09 49.1254 289.09 48.1084V46.5725L288.004 47.6585C287.285 48.3776 286.119 48.3776 285.4 47.6585C284.681 46.9393 284.681 45.7733 285.4 45.0542L286.492 43.9624H284.946C283.929 43.9624 283.105 43.1379 283.105 42.1208C283.105 41.1038 283.929 40.2793 284.946 40.2793H286.485L285.4 39.1945C284.681 38.4753 284.681 37.3093 285.4 36.5902C286.119 35.871 287.285 35.871 288.004 36.5902L289.09 37.6761V36.1384Z" fill="#E8EBFC"/>
<path opacity="0.4" fill-rule="evenodd" clip-rule="evenodd" d="M269.295 0.704115C269.295 0.315243 269.61 0 269.999 0C270.388 0 270.703 0.315243 270.703 0.704115V1.28353L271.11 0.876153C271.385 0.601178 271.831 0.601178 272.106 0.876153C272.381 1.15113 272.381 1.59695 272.106 1.87192L271.689 2.28906H272.28C272.669 2.28906 272.984 2.60431 272.984 2.99318C272.984 3.38205 272.669 3.69729 272.28 3.69729H271.691L272.106 4.11239C272.381 4.38736 272.381 4.83318 272.106 5.10816C271.831 5.38313 271.385 5.38313 271.11 5.10816L270.703 4.70078V5.28087C270.703 5.66974 270.388 5.98498 269.999 5.98498C269.61 5.98498 269.295 5.66974 269.295 5.28087V4.6833L268.87 5.10816C268.595 5.38313 268.149 5.38313 267.874 5.10816C267.599 4.83318 267.599 4.38736 267.874 4.11239L268.289 3.69729H267.704C267.315 3.69729 266.999 3.38205 266.999 2.99318C266.999 2.60431 267.315 2.28906 267.704 2.28906H268.291L267.874 1.87192C267.599 1.59695 267.599 1.15113 267.874 0.876153C268.149 0.601178 268.595 0.601178 268.87 0.876153L269.295 1.30101V0.704115Z" fill="#8898F2"/>
<path opacity="0.3" fill-rule="evenodd" clip-rule="evenodd" d="M315.318 15.667C315.318 15.2781 315.634 14.9629 316.022 14.9629C316.411 14.9629 316.727 15.2781 316.727 15.667V16.2542L317.142 15.839C317.417 15.5641 317.863 15.5641 318.138 15.839C318.412 16.114 318.412 16.5598 318.138 16.8348L317.72 17.252H318.312C318.7 17.252 319.016 17.5672 319.016 17.9561C319.016 18.3449 318.7 18.6602 318.312 18.6602H317.722L318.138 19.0753C318.412 19.3503 318.412 19.7961 318.138 20.071C317.863 20.346 317.417 20.346 317.142 20.071L316.727 19.6559V20.2438C316.727 20.6326 316.411 20.9479 316.022 20.9479C315.634 20.9479 315.318 20.6326 315.318 20.2438V19.654L314.901 20.071C314.626 20.346 314.18 20.346 313.906 20.071C313.631 19.7961 313.631 19.3503 313.906 19.0753L314.321 18.6602H313.735C313.346 18.6602 313.031 18.3449 313.031 17.9561C313.031 17.5672 313.346 17.252 313.735 17.252H314.323L313.906 16.8348C313.631 16.5598 313.631 16.114 313.906 15.839C314.18 15.5641 314.626 15.5641 314.901 15.839L315.318 16.2561V15.667Z" fill="#4C65E6"/>
<path opacity="0.5" fill-rule="evenodd" clip-rule="evenodd" d="M488.205 42.1258C488.205 41.6173 488.618 41.2051 489.126 41.2051C489.635 41.2051 490.047 41.6173 490.047 42.1258V42.9029L490.6 42.3498C490.96 41.9902 491.543 41.9902 491.902 42.3498C492.262 42.7093 492.262 43.2923 491.902 43.6519L491.357 44.1973H492.126C492.635 44.1973 493.047 44.6095 493.047 45.118C493.047 45.6266 492.635 46.0388 492.126 46.0388H491.359L491.902 46.5818C492.262 46.9413 492.262 47.5243 491.902 47.8839C491.543 48.2435 490.96 48.2435 490.6 47.8839L490.047 47.3308V48.1108C490.047 48.6193 489.635 49.0316 489.126 49.0316C488.618 49.0316 488.205 48.6193 488.205 48.1108V47.3488L487.67 47.8839C487.311 48.2435 486.728 48.2435 486.368 47.8839C486.008 47.5243 486.008 46.9413 486.368 46.5818L486.911 46.0388H486.141C485.633 46.0388 485.22 45.6266 485.22 45.118C485.22 44.6095 485.633 44.1973 486.141 44.1973H486.913L486.368 43.6519C486.008 43.2923 486.008 42.7093 486.368 42.3498C486.728 41.9902 487.311 41.9902 487.67 42.3498L488.205 42.8849V42.1258Z" fill="#4C65E6"/>
<path opacity="0.2" fill-rule="evenodd" clip-rule="evenodd" d="M683.354 46.8755C683.354 45.9033 684.143 45.1152 685.115 45.1152C686.087 45.1152 686.875 45.9033 686.875 46.8755V48.3485L687.917 47.3066C688.604 46.6192 689.719 46.6192 690.406 47.3066C691.094 47.994 691.094 49.1086 690.406 49.796L689.366 50.8359H690.833C691.806 50.8359 692.594 51.624 692.594 52.5962C692.594 53.5684 691.806 54.3565 690.833 54.3565H689.366L690.406 55.3972C691.094 56.0846 691.094 57.1992 690.406 57.8866C689.719 58.574 688.604 58.574 687.917 57.8866L686.875 56.8447V58.3174C686.875 59.2896 686.087 60.0777 685.115 60.0777C684.143 60.0777 683.354 59.2896 683.354 58.3174V56.8479L682.316 57.8866C681.628 58.574 680.514 58.574 679.826 57.8866C679.139 57.1992 679.139 56.0846 679.826 55.3972L680.867 54.3565H679.392C678.419 54.3565 677.631 53.5684 677.631 52.5962C677.631 51.624 678.419 50.8359 679.392 50.8359H680.866L679.826 49.796C679.139 49.1086 679.139 47.994 679.826 47.3066C680.514 46.6192 681.628 46.6192 682.316 47.3066L683.354 48.3453V46.8755Z" fill="#A8B4F5" fill-opacity="0.66"/>
<path opacity="0.3" fill-rule="evenodd" clip-rule="evenodd" d="M600.809 49.3123C600.809 48.5196 601.452 47.877 602.244 47.877C603.037 47.877 603.68 48.5196 603.68 49.3123V50.5112L604.526 49.6645C605.087 49.104 605.996 49.104 606.556 49.6645C607.117 50.2251 607.117 51.1338 606.556 51.6944L605.71 52.541H606.908C607.701 52.541 608.344 53.1836 608.344 53.9763C608.344 54.769 607.701 55.4116 606.908 55.4116H605.706L606.556 56.2615C607.117 56.822 607.117 57.7308 606.556 58.2913C605.996 58.8518 605.087 58.8518 604.526 58.2913L603.68 57.4447V58.6418C603.68 59.4345 603.037 60.0771 602.244 60.0771C601.452 60.0771 600.809 59.4345 600.809 58.6418V57.4415L599.959 58.2913C599.399 58.8518 598.49 58.8518 597.929 58.2913C597.369 57.7308 597.369 56.822 597.929 56.2615L598.779 55.4116H597.579C596.786 55.4116 596.144 54.769 596.144 53.9763C596.144 53.1836 596.786 52.541 597.579 52.541H598.776L597.929 51.6944C597.369 51.1338 597.369 50.2251 597.929 49.6645C598.49 49.104 599.399 49.104 599.959 49.6645L600.809 50.5144V49.3123Z" fill="#4C65E6"/>
<path opacity="0.2" fill-rule="evenodd" clip-rule="evenodd" d="M633.987 32.2525C633.987 31.7291 634.412 31.3047 634.935 31.3047C635.459 31.3047 635.883 31.7291 635.883 32.2525V33.0461L636.444 32.4846C636.815 32.1145 637.415 32.1145 637.785 32.4846C638.155 32.8548 638.155 33.455 637.785 33.8251L637.225 34.3848H638.013C638.537 34.3848 638.961 34.8092 638.961 35.3327C638.961 35.8562 638.537 36.2805 638.013 36.2805H637.224L637.785 36.8411C638.155 37.2113 638.155 37.8114 637.785 38.1816C637.415 38.5517 636.815 38.5517 636.444 38.1816L635.883 37.6202V38.4135C635.883 38.937 635.459 39.3614 634.935 39.3614C634.412 39.3614 633.987 38.937 633.987 38.4135V37.6227L633.428 38.1816C633.058 38.5517 632.458 38.5517 632.088 38.1816C631.718 37.8114 631.718 37.2113 632.088 36.8411L632.649 36.2805H631.852C631.329 36.2805 630.904 35.8562 630.904 35.3327C630.904 34.8092 631.329 34.3848 631.852 34.3848H632.648L632.088 33.8251C631.718 33.455 631.718 32.8548 632.088 32.4846C632.458 32.1145 633.058 32.1145 633.428 32.4846L633.987 33.0436V32.2525Z" fill="#E8EBFC"/>
<path opacity="0.2" fill-rule="evenodd" clip-rule="evenodd" d="M773.011 11.7662C773.011 11.2427 773.435 10.8184 773.959 10.8184C774.482 10.8184 774.906 11.2427 774.906 11.7662V12.5597L775.468 11.9983C775.838 11.6282 776.438 11.6282 776.808 11.9983C777.178 12.3685 777.178 12.9686 776.808 13.3388L776.249 13.8985H777.037C777.56 13.8985 777.984 14.3229 777.984 14.8463C777.984 15.3698 777.56 15.7942 777.037 15.7942H776.248L776.808 16.3548C777.178 16.7249 777.178 17.3251 776.808 17.6953C776.438 18.0654 775.838 18.0654 775.468 17.6953L774.906 17.1338V17.9272C774.906 18.4507 774.482 18.8751 773.959 18.8751C773.435 18.8751 773.011 18.4507 773.011 17.9272V17.1363L772.452 17.6953C772.082 18.0654 771.482 18.0654 771.111 17.6953C770.741 17.3251 770.741 16.7249 771.111 16.3548L771.672 15.7942H770.876C770.352 15.7942 769.928 15.3698 769.928 14.8463C769.928 14.3229 770.352 13.8985 770.876 13.8985H771.671L771.111 13.3388C770.741 12.9686 770.741 12.3685 771.111 11.9983C771.482 11.6282 772.082 11.6282 772.452 11.9983L773.011 12.5572V11.7662Z" fill="#E8EBFC"/>
<path opacity="0.1" fill-rule="evenodd" clip-rule="evenodd" d="M556.09 36.1384C556.09 35.1214 556.915 34.2969 557.932 34.2969C558.949 34.2969 559.773 35.1214 559.773 36.1384V37.6808L560.864 36.5902C561.583 35.871 562.749 35.871 563.468 36.5902C564.188 37.3093 564.188 38.4753 563.468 39.1945L562.384 40.2793H563.916C564.933 40.2793 565.758 41.1038 565.758 42.1208C565.758 43.1379 564.933 43.9624 563.916 43.9624H562.377L563.468 45.0542C564.188 45.7733 564.188 46.9393 563.468 47.6585C562.749 48.3776 561.583 48.3776 560.864 47.6585L559.773 46.5678V48.1084C559.773 49.1254 558.949 49.9499 557.932 49.9499C556.915 49.9499 556.09 49.1254 556.09 48.1084V46.5725L555.004 47.6585C554.285 48.3776 553.119 48.3776 552.4 47.6585C551.681 46.9393 551.681 45.7733 552.4 45.0542L553.492 43.9624H551.946C550.929 43.9624 550.105 43.1379 550.105 42.1208C550.105 41.1038 550.929 40.2793 551.946 40.2793H553.485L552.4 39.1945C551.681 38.4753 551.681 37.3093 552.4 36.5902C553.119 35.871 554.285 35.871 555.004 36.5902L556.09 37.6761V36.1384Z" fill="#E8EBFC"/>
<path opacity="0.1" fill-rule="evenodd" clip-rule="evenodd" d="M556.09 36.1384C556.09 35.1214 556.915 34.2969 557.932 34.2969C558.949 34.2969 559.773 35.1214 559.773 36.1384V37.6808L560.864 36.5902C561.583 35.871 562.749 35.871 563.468 36.5902C564.188 37.3093 564.188 38.4753 563.468 39.1945L562.384 40.2793H563.916C564.933 40.2793 565.758 41.1038 565.758 42.1208C565.758 43.1379 564.933 43.9624 563.916 43.9624H562.377L563.468 45.0542C564.188 45.7733 564.188 46.9393 563.468 47.6585C562.749 48.3776 561.583 48.3776 560.864 47.6585L559.773 46.5678V48.1084C559.773 49.1254 558.949 49.9499 557.932 49.9499C556.915 49.9499 556.09 49.1254 556.09 48.1084V46.5725L555.004 47.6585C554.285 48.3776 553.119 48.3776 552.4 47.6585C551.681 46.9393 551.681 45.7733 552.4 45.0542L553.492 43.9624H551.946C550.929 43.9624 550.105 43.1379 550.105 42.1208C550.105 41.1038 550.929 40.2793 551.946 40.2793H553.485L552.4 39.1945C551.681 38.4753 551.681 37.3093 552.4 36.5902C553.119 35.871 554.285 35.871 555.004 36.5902L556.09 37.6761V36.1384Z" fill="#E8EBFC"/>
<path opacity="0.4" fill-rule="evenodd" clip-rule="evenodd" d="M536.295 0.704115C536.295 0.315243 536.61 0 536.999 0C537.388 0 537.703 0.315243 537.703 0.704115V1.28353L538.11 0.876153C538.385 0.601178 538.831 0.601178 539.106 0.876153C539.381 1.15113 539.381 1.59695 539.106 1.87192L538.689 2.28906H539.28C539.669 2.28906 539.984 2.60431 539.984 2.99318C539.984 3.38205 539.669 3.69729 539.28 3.69729H538.691L539.106 4.11239C539.381 4.38736 539.381 4.83318 539.106 5.10816C538.831 5.38313 538.385 5.38313 538.11 5.10816L537.703 4.70078V5.28087C537.703 5.66974 537.388 5.98498 536.999 5.98498C536.61 5.98498 536.295 5.66974 536.295 5.28087V4.6833L535.87 5.10816C535.595 5.38313 535.149 5.38313 534.874 5.10816C534.599 4.83318 534.599 4.38736 534.874 4.11239L535.289 3.69729H534.704C534.315 3.69729 533.999 3.38205 533.999 2.99318C533.999 2.60431 534.315 2.28906 534.704 2.28906H535.291L534.874 1.87192C534.599 1.59695 534.599 1.15113 534.874 0.876153C535.149 0.601178 535.595 0.601178 535.87 0.876153L536.295 1.30101V0.704115Z" fill="#8898F2"/>
<path opacity="0.3" fill-rule="evenodd" clip-rule="evenodd" d="M582.318 15.667C582.318 15.2781 582.634 14.9629 583.022 14.9629C583.411 14.9629 583.727 15.2781 583.727 15.667V16.2542L584.142 15.839C584.417 15.5641 584.863 15.5641 585.138 15.839C585.412 16.114 585.412 16.5598 585.138 16.8348L584.72 17.252H585.312C585.7 17.252 586.016 17.5672 586.016 17.9561C586.016 18.3449 585.7 18.6602 585.312 18.6602H584.722L585.138 19.0753C585.412 19.3503 585.412 19.7961 585.138 20.071C584.863 20.346 584.417 20.346 584.142 20.071L583.727 19.6559V20.2438C583.727 20.6326 583.411 20.9479 583.022 20.9479C582.634 20.9479 582.318 20.6326 582.318 20.2438V19.654L581.901 20.071C581.626 20.346 581.18 20.346 580.906 20.071C580.631 19.7961 580.631 19.3503 580.906 19.0753L581.321 18.6602H580.735C580.346 18.6602 580.031 18.3449 580.031 17.9561C580.031 17.5672 580.346 17.252 580.735 17.252H581.323L580.906 16.8348C580.631 16.5598 580.631 16.114 580.906 15.839C581.18 15.5641 581.626 15.5641 581.901 15.839L582.318 16.2561V15.667Z" fill="#4C65E6"/>
<path opacity="0.5" fill-rule="evenodd" clip-rule="evenodd" d="M755.205 42.1258C755.205 41.6173 755.618 41.2051 756.126 41.2051C756.635 41.2051 757.047 41.6173 757.047 42.1258V42.9029L757.6 42.3498C757.96 41.9902 758.543 41.9902 758.902 42.3498C759.262 42.7093 759.262 43.2923 758.902 43.6519L758.357 44.1973H759.126C759.635 44.1973 760.047 44.6095 760.047 45.118C760.047 45.6266 759.635 46.0388 759.126 46.0388H758.359L758.902 46.5818C759.262 46.9413 759.262 47.5243 758.902 47.8839C758.543 48.2435 757.96 48.2435 757.6 47.8839L757.047 47.3308V48.1108C757.047 48.6193 756.635 49.0316 756.126 49.0316C755.618 49.0316 755.205 48.6193 755.205 48.1108V47.3488L754.67 47.8839C754.311 48.2435 753.728 48.2435 753.368 47.8839C753.008 47.5243 753.008 46.9413 753.368 46.5818L753.911 46.0388H753.141C752.633 46.0388 752.22 45.6266 752.22 45.118C752.22 44.6095 752.633 44.1973 753.141 44.1973H753.913L753.368 43.6519C753.008 43.2923 753.008 42.7093 753.368 42.3498C753.728 41.9902 754.311 41.9902 754.67 42.3498L755.205 42.8849V42.1258Z" fill="#4C65E6"/>
</svg>
