<svg width="243" height="292" viewBox="0 0 243 292" fill="none" xmlns="http://www.w3.org/2000/svg">
<g filter="url(#filter0_i_662_6585)">
<path d="M51.6318 250.464L64.2232 257.734L49.3658 278.936C47.8323 281.125 44.8664 281.752 42.5778 280.373C40.3446 279.027 39.492 276.209 40.6041 273.851L51.6318 250.464Z" fill="url(#paint0_linear_662_6585)"/>
</g>
<path d="M32.4036 63.5451C25.8898 45.9334 34.8865 26.3758 52.4982 19.862L74.3115 11.7943C91.9233 5.28049 111.481 14.2772 117.995 31.8889L118.519 33.3062C119.668 36.4141 118.081 39.8655 114.973 41.015L40.6366 68.5085C37.5286 69.658 34.0773 68.0703 32.9278 64.9624L32.4036 63.5451Z" fill="url(#paint1_linear_662_6585)"/>
<mask id="mask0_662_6585" style="mask-type:alpha" maskUnits="userSpaceOnUse" x="30" y="9" width="89" height="60">
<path d="M32.4036 63.5451C25.8898 45.9334 34.8865 26.3758 52.4982 19.862L74.3115 11.7943C91.9233 5.28049 111.481 14.2772 117.995 31.8889L118.519 33.3062C119.668 36.4141 118.081 39.8655 114.973 41.015L40.6366 68.5085C37.5286 69.658 34.0773 68.0703 32.9278 64.9624L32.4036 63.5451Z" fill="url(#paint2_linear_662_6585)"/>
</mask>
<g mask="url(#mask0_662_6585)">
<g filter="url(#filter1_f_662_6585)">
<path d="M33.2078 44.2782C29.5008 50.9493 33.2079 62.8324 35.4427 65.8905C38.6494 61.5329 47.614 54.1255 75.0257 44.2782C99.6548 35.4305 114 34.0685 117.85 35.0311C114.428 25.7902 107.71 19.5225 105.678 18.5956C73.0779 18.9378 44.5807 34.9374 33.2078 44.2782Z" fill="url(#paint3_linear_662_6585)"/>
</g>
<g style="mix-blend-mode:color-dodge" opacity="0.2">
<path d="M36.7935 70.384C34.5539 67.7265 19.4828 38.9733 54.9371 15.2034" stroke="url(#paint4_linear_662_6585)" stroke-width="6"/>
</g>
</g>
<ellipse cx="76.9938" cy="52.6627" rx="43.49" ry="7.43667" transform="rotate(-20.3 76.9938 52.6627)" fill="url(#paint5_linear_662_6585)"/>
<g filter="url(#filter2_i_662_6585)">
<rect width="13" height="23.0168" transform="matrix(-0.936646 0.350277 0.350277 0.936646 79.4844 43.7865)" fill="url(#paint6_linear_662_6585)"/>
</g>
<path d="M67.3353 11.5582C66.9484 10.5236 65.7961 9.99859 64.7615 10.3855L56.3317 13.538C55.2971 13.9249 54.772 15.0772 55.1589 16.1118L56.1012 18.6314L68.2776 14.0778L67.3353 11.5582Z" fill="url(#paint7_radial_662_6585)"/>
<path d="M137.13 39.6616L137.9 39.7514L135.313 65.6748L134.551 65.574L137.13 39.6616Z" fill="#CBD3FF"/>
<path d="M137.887 39.7458L141.496 40.1515L138.914 63.5373L135.313 65.6692L137.887 39.7458Z" fill="url(#paint8_linear_662_6585)"/>
<path d="M124.808 30.2247C125.152 27.2068 127.878 25.0397 130.896 25.3843L150.1 27.5774C153.392 27.9534 155.756 30.9272 155.38 34.2195L155.212 35.695C154.836 38.9873 151.862 41.3514 148.57 40.9755L129.366 38.7823C126.348 38.4377 124.181 35.7118 124.526 32.6938L124.808 30.2247Z" fill="url(#paint9_linear_662_6585)"/>
<g filter="url(#filter3_i_662_6585)">
<path fill-rule="evenodd" clip-rule="evenodd" d="M159.753 64.1763L112.398 58.3981L118.701 68.9377C81.7758 82.4738 55.2051 120.224 55.2051 164.676C55.2051 215.353 89.7402 257.321 134.782 264.628L123.559 272.191L168.763 263.452C210.867 253.576 242.403 213.103 242.403 164.676C242.403 112.935 206.403 70.2736 159.978 64.3094L159.753 64.1763Z" fill="url(#paint10_angular_662_6585)"/>
</g>
<g filter="url(#filter4_i_662_6585)">
<path fill-rule="evenodd" clip-rule="evenodd" d="M151.799 258.935C151.714 258.712 151.671 258.483 151.666 258.257C155.325 255.211 160.003 253.346 165.112 253.247C165.217 253.389 165.305 253.547 165.371 253.72L170.764 267.754L170.764 267.754L174.998 284.655C175.65 287.258 174.236 289.934 171.718 290.862C169.24 291.776 166.468 290.708 165.244 288.367L157.192 272.969L157.192 272.969L151.799 258.935Z" fill="url(#paint11_linear_662_6585)"/>
</g>
<ellipse cx="102.518" cy="164.869" rx="102.518" ry="110.803" fill="url(#paint12_linear_662_6585)"/>
<ellipse cx="102.518" cy="164.869" rx="102.518" ry="110.803" fill="url(#paint13_linear_662_6585)"/>
<ellipse cx="102.518" cy="164.869" rx="83.5485" ry="90.2999" fill="#526DFC"/>
<ellipse cx="102.519" cy="164.869" rx="82" ry="89" fill="url(#paint14_angular_662_6585)"/>
<path fill-rule="evenodd" clip-rule="evenodd" d="M98.0546 75.9987C99.5325 75.9126 101.021 75.869 102.519 75.869C147.806 75.869 184.519 115.716 184.519 164.869C184.519 205.962 158.86 240.55 123.982 250.789C122.505 250.875 121.016 250.919 119.519 250.919C74.2312 250.919 37.5186 211.072 37.5186 161.919C37.5186 120.826 63.1776 86.2377 98.0546 75.9987Z" fill="url(#paint15_linear_662_6585)"/>
<path fill-rule="evenodd" clip-rule="evenodd" d="M88.0506 127.91C90.5417 126.848 93.4243 127.976 94.5342 130.446L107.217 158.67C108.358 161.209 107.192 164.19 104.631 165.281C102.14 166.343 99.2577 165.215 98.1478 162.745L85.4649 134.521C84.324 131.982 85.4899 129.001 88.0506 127.91Z" fill="url(#paint16_linear_662_6585)"/>
<path fill-rule="evenodd" clip-rule="evenodd" d="M149.283 28.2026C150.527 27.7346 151.958 27.9402 153.02 28.7389C154.665 29.9757 155.63 32.027 155.379 34.2194L155.211 35.6949C154.946 38.0095 153.398 39.8653 151.358 40.6328C150.114 41.1007 148.683 40.8951 147.621 40.0964C145.976 38.8595 145.011 36.808 145.262 34.6154L145.431 33.1399C145.695 30.8256 147.243 28.9701 149.283 28.2026Z" fill="url(#paint17_linear_662_6585)"/>
<ellipse cx="181.718" cy="80.6539" rx="9.64228" ry="3.91907" transform="rotate(30 181.718 80.6539)" fill="url(#paint18_radial_662_6585)"/>
<g filter="url(#filter5_i_662_6585)">
<path fill-rule="evenodd" clip-rule="evenodd" d="M177.078 78.6153C176.504 78.0169 176.44 77.1088 176.855 76.3904L191.524 50.9827C196.149 51.5104 200.206 53.8399 202.929 57.2283L188.259 82.637C187.863 83.3232 187.097 83.7212 186.318 83.5771C184.544 83.2493 182.868 82.6539 181.336 81.8359L180.352 81.2678C179.149 80.5186 178.049 79.6261 177.078 78.6153Z" fill="url(#paint19_linear_662_6585)"/>
</g>
<path d="M236.02 81.521C245.296 65.4077 239.766 44.8187 223.667 35.5339L200.845 22.3716C184.747 13.0869 164.176 18.6224 154.9 34.7358L152.561 38.8376C150.767 41.9847 151.298 45.9599 153.966 48.4109C160.544 54.4548 167.605 59.9814 175.083 64.9261L192.864 75.1812C203.366 80.4097 214.491 84.5718 226.097 87.5259C229.473 88.3851 232.97 86.8189 234.708 83.7999L236.02 81.521Z" fill="url(#paint20_linear_662_6585)"/>
<rect x="208.558" y="21.3782" width="12.9735" height="7.05299" rx="2" transform="rotate(29.9478 208.558 21.3782)" fill="url(#paint21_radial_662_6585)"/>
<mask id="mask1_662_6585" style="mask-type:alpha" maskUnits="userSpaceOnUse" x="151" y="17" width="90" height="71">
<path d="M236.02 81.521C245.296 65.4077 239.766 44.8187 223.667 35.5339L200.845 22.3716C184.747 13.0869 164.176 18.6224 154.9 34.7358L152.561 38.8376C150.767 41.9847 151.298 45.9599 153.966 48.4109C160.544 54.4548 167.605 59.9814 175.083 64.9261L192.864 75.1812C203.366 80.4097 214.491 84.5718 226.097 87.5259C229.473 88.3851 232.97 86.8189 234.708 83.7999L236.02 81.521Z" fill="url(#paint22_linear_662_6585)"/>
</mask>
<g mask="url(#mask1_662_6585)">
<g opacity="0.4" filter="url(#filter6_f_662_6585)">
<path d="M162.409 25.0648C157.666 27.5527 151.666 41.0115 150.892 44.8999C165.252 64.332 211.362 83.1326 231.577 86.5926C238.891 81.8562 240.367 71.3739 240.519 67.0322C201.798 63.0043 173.642 40.1481 162.409 25.0648Z" fill="url(#paint23_linear_662_6585)"/>
</g>
<g style="mix-blend-mode:color-dodge" opacity="0.2">
<path d="M150.146 45.6396C154.216 36.257 164.826 11.8627 203.978 18.101" stroke="url(#paint24_linear_662_6585)" stroke-width="6"/>
</g>
</g>
<path fill-rule="evenodd" clip-rule="evenodd" d="M158.592 194.608C157.379 197.162 154.278 198.185 151.784 196.852L106.8 172.825C104.467 171.579 103.525 168.72 104.659 166.331C105.872 163.776 108.974 162.754 111.468 164.086L156.451 188.114C158.784 189.36 159.727 192.219 158.592 194.608Z" fill="url(#paint25_linear_662_6585)"/>
<circle cx="105.265" cy="166.08" r="7.47299" fill="url(#paint26_radial_662_6585)"/>
<defs>
<filter id="filter0_i_662_6585" x="38.1182" y="250.464" width="26.1055" height="34.6392" filterUnits="userSpaceOnUse" color-interpolation-filters="sRGB">
<feFlood flood-opacity="0" result="BackgroundImageFix"/>
<feBlend mode="normal" in="SourceGraphic" in2="BackgroundImageFix" result="shape"/>
<feColorMatrix in="SourceAlpha" type="matrix" values="0 0 0 0 0 0 0 0 0 0 0 0 0 0 0 0 0 0 127 0" result="hardAlpha"/>
<feOffset dx="-2" dy="4"/>
<feGaussianBlur stdDeviation="5"/>
<feComposite in2="hardAlpha" operator="arithmetic" k2="-1" k3="1"/>
<feColorMatrix type="matrix" values="0 0 0 0 0.0509804 0 0 0 0 0.0823529 0 0 0 0 0.258824 0 0 0 0.4 0"/>
<feBlend mode="normal" in2="shape" result="effect1_innerShadow_662_6585"/>
</filter>
<filter id="filter1_f_662_6585" x="23.6328" y="10.5956" width="102.218" height="63.2949" filterUnits="userSpaceOnUse" color-interpolation-filters="sRGB">
<feFlood flood-opacity="0" result="BackgroundImageFix"/>
<feBlend mode="normal" in="SourceGraphic" in2="BackgroundImageFix" result="shape"/>
<feGaussianBlur stdDeviation="4" result="effect1_foregroundBlur_662_6585"/>
</filter>
<filter id="filter2_i_662_6585" x="67.3076" y="43.7865" width="20.2393" height="30.1122" filterUnits="userSpaceOnUse" color-interpolation-filters="sRGB">
<feFlood flood-opacity="0" result="BackgroundImageFix"/>
<feBlend mode="normal" in="SourceGraphic" in2="BackgroundImageFix" result="shape"/>
<feColorMatrix in="SourceAlpha" type="matrix" values="0 0 0 0 0 0 0 0 0 0 0 0 0 0 0 0 0 0 127 0" result="hardAlpha"/>
<feOffset dy="4"/>
<feGaussianBlur stdDeviation="6"/>
<feComposite in2="hardAlpha" operator="arithmetic" k2="-1" k3="1"/>
<feColorMatrix type="matrix" values="0 0 0 0 0.0588235 0 0 0 0 0.0941176 0 0 0 0 0.286275 0 0 0 1 0"/>
<feBlend mode="normal" in2="shape" result="effect1_innerShadow_662_6585"/>
</filter>
<filter id="filter3_i_662_6585" x="55.2051" y="52.3981" width="187.197" height="219.793" filterUnits="userSpaceOnUse" color-interpolation-filters="sRGB">
<feFlood flood-opacity="0" result="BackgroundImageFix"/>
<feBlend mode="normal" in="SourceGraphic" in2="BackgroundImageFix" result="shape"/>
<feColorMatrix in="SourceAlpha" type="matrix" values="0 0 0 0 0 0 0 0 0 0 0 0 0 0 0 0 0 0 127 0" result="hardAlpha"/>
<feOffset dy="-6"/>
<feGaussianBlur stdDeviation="8"/>
<feComposite in2="hardAlpha" operator="arithmetic" k2="-1" k3="1"/>
<feColorMatrix type="matrix" values="0 0 0 0 0.2 0 0 0 0 0.305882 0 0 0 0 0.858824 0 0 0 1 0"/>
<feBlend mode="normal" in2="shape" result="effect1_innerShadow_662_6585"/>
</filter>
<filter id="filter4_i_662_6585" x="151.666" y="253.247" width="25.4902" height="41.9399" filterUnits="userSpaceOnUse" color-interpolation-filters="sRGB">
<feFlood flood-opacity="0" result="BackgroundImageFix"/>
<feBlend mode="normal" in="SourceGraphic" in2="BackgroundImageFix" result="shape"/>
<feColorMatrix in="SourceAlpha" type="matrix" values="0 0 0 0 0 0 0 0 0 0 0 0 0 0 0 0 0 0 127 0" result="hardAlpha"/>
<feOffset dx="2" dy="4"/>
<feGaussianBlur stdDeviation="2"/>
<feComposite in2="hardAlpha" operator="arithmetic" k2="-1" k3="1"/>
<feColorMatrix type="matrix" values="0 0 0 0 0.0509804 0 0 0 0 0.0823529 0 0 0 0 0.258824 0 0 0 0.3 0"/>
<feBlend mode="normal" in2="shape" result="effect1_innerShadow_662_6585"/>
</filter>
<filter id="filter5_i_662_6585" x="168.588" y="50.9827" width="34.3418" height="40.6238" filterUnits="userSpaceOnUse" color-interpolation-filters="sRGB">
<feFlood flood-opacity="0" result="BackgroundImageFix"/>
<feBlend mode="normal" in="SourceGraphic" in2="BackgroundImageFix" result="shape"/>
<feColorMatrix in="SourceAlpha" type="matrix" values="0 0 0 0 0 0 0 0 0 0 0 0 0 0 0 0 0 0 127 0" result="hardAlpha"/>
<feOffset dx="-12" dy="20"/>
<feGaussianBlur stdDeviation="4"/>
<feComposite in2="hardAlpha" operator="arithmetic" k2="-1" k3="1"/>
<feColorMatrix type="matrix" values="0 0 0 0 0.0509804 0 0 0 0 0.0823529 0 0 0 0 0.254902 0 0 0 0.3 0"/>
<feBlend mode="normal" in2="shape" result="effect1_innerShadow_662_6585"/>
</filter>
<filter id="filter6_f_662_6585" x="146.892" y="21.0648" width="97.627" height="69.5277" filterUnits="userSpaceOnUse" color-interpolation-filters="sRGB">
<feFlood flood-opacity="0" result="BackgroundImageFix"/>
<feBlend mode="normal" in="SourceGraphic" in2="BackgroundImageFix" result="shape"/>
<feGaussianBlur stdDeviation="2" result="effect1_foregroundBlur_662_6585"/>
</filter>
<linearGradient id="paint0_linear_662_6585" x1="49.5329" y1="278.17" x2="39.8229" y2="272.686" gradientUnits="userSpaceOnUse">
<stop stop-color="#7A85A7"/>
<stop offset="0.66" stop-color="#F6F7F8"/>
<stop offset="1" stop-color="#A4AECE"/>
</linearGradient>
<linearGradient id="paint1_linear_662_6585" x1="112.746" y1="21.8664" x2="28.0196" y2="53.5842" gradientUnits="userSpaceOnUse">
<stop stop-color="#4C65E5"/>
<stop offset="0.525" stop-color="#C8D0F9"/>
<stop offset="1" stop-color="#657CF0"/>
</linearGradient>
<linearGradient id="paint2_linear_662_6585" x1="112.746" y1="21.8664" x2="28.0196" y2="53.5842" gradientUnits="userSpaceOnUse">
<stop stop-color="#4C65E5"/>
<stop offset="0.525" stop-color="#C8D0F9"/>
<stop offset="1" stop-color="#657CF0"/>
</linearGradient>
<linearGradient id="paint3_linear_662_6585" x1="113.817" y1="27.1102" x2="32.5323" y2="56.3438" gradientUnits="userSpaceOnUse">
<stop stop-color="#4C65E5"/>
<stop offset="0.5" stop-color="#8898F2"/>
<stop offset="1" stop-color="#4C65E5"/>
</linearGradient>
<linearGradient id="paint4_linear_662_6585" x1="39.1894" y1="23.0297" x2="35.8598" y2="70.384" gradientUnits="userSpaceOnUse">
<stop stop-color="#9BA9F2" stop-opacity="0.4"/>
<stop offset="0.52" stop-color="#F6F7F8"/>
<stop offset="1" stop-color="#AFBBF5" stop-opacity="0"/>
</linearGradient>
<linearGradient id="paint5_linear_662_6585" x1="118.468" y1="65.5498" x2="118.097" y2="31.5765" gradientUnits="userSpaceOnUse">
<stop stop-color="#111B4F"/>
<stop offset="1" stop-color="#080F34"/>
</linearGradient>
<linearGradient id="paint6_linear_662_6585" x1="13.0321" y1="6.39853" x2="0.0265365" y2="6.54332" gradientUnits="userSpaceOnUse">
<stop stop-color="#C0C6D9"/>
<stop offset="0.195" stop-color="#808BAD"/>
<stop offset="0.666667" stop-color="#F6F7F8"/>
<stop offset="1" stop-color="#9AA4C4"/>
</linearGradient>
<radialGradient id="paint7_radial_662_6585" cx="0" cy="0" r="1" gradientUnits="userSpaceOnUse" gradientTransform="translate(58.0977 11.8354) rotate(53.1301) scale(6.869 10.2863)">
<stop stop-color="#F5F6F8"/>
<stop offset="1" stop-color="#7A85A7"/>
</radialGradient>
<linearGradient id="paint8_linear_662_6585" x1="139.692" y1="39.913" x2="136.27" y2="65.7957" gradientUnits="userSpaceOnUse">
<stop stop-color="#ABB3D2"/>
<stop offset="1" stop-color="#465394"/>
</linearGradient>
<linearGradient id="paint9_linear_662_6585" x1="140.746" y1="26.5092" x2="139.216" y2="39.9073" gradientUnits="userSpaceOnUse">
<stop stop-color="#677195"/>
<stop offset="0.3" stop-color="#E4E8F3"/>
<stop offset="0.58" stop-color="#8290BC"/>
<stop offset="0.72" stop-color="#B4BACD"/>
<stop offset="0.895" stop-color="#485077"/>
</linearGradient>
<radialGradient id="paint10_angular_662_6585" cx="0" cy="0" r="1" gradientUnits="userSpaceOnUse" gradientTransform="translate(148.804 165.295) rotate(90) scale(106.897 93.5988)">
<stop offset="0.53" stop-color="#8898F2"/>
<stop offset="0.76" stop-color="#334EDB"/>
<stop offset="0.915" stop-color="#4C65E5"/>
<stop offset="0.987882" stop-color="#3E59E0"/>
</radialGradient>
<linearGradient id="paint11_linear_662_6585" x1="157.04" y1="272.903" x2="171.732" y2="267.17" gradientUnits="userSpaceOnUse">
<stop stop-color="#F6F7F8"/>
<stop offset="0.605" stop-color="#7A85A7"/>
<stop offset="1" stop-color="#A4AECE"/>
</linearGradient>
<linearGradient id="paint12_linear_662_6585" x1="102.518" y1="54.0664" x2="102.518" y2="275.672" gradientUnits="userSpaceOnUse">
<stop stop-color="#677CEE"/>
<stop offset="1" stop-color="#4C65E5"/>
</linearGradient>
<linearGradient id="paint13_linear_662_6585" x1="33.876" y1="73.2534" x2="141.405" y2="269.448" gradientUnits="userSpaceOnUse">
<stop offset="0.165" stop-color="#758AFB"/>
<stop offset="0.335" stop-color="#6277EC"/>
<stop offset="1" stop-color="#4C65E5"/>
</linearGradient>
<radialGradient id="paint14_angular_662_6585" cx="0" cy="0" r="1" gradientUnits="userSpaceOnUse" gradientTransform="translate(102.519 164.869) rotate(44.8091) scale(104.09 95.9032)">
<stop offset="0.16713" stop-color="#E8EBFC"/>
<stop offset="0.42" stop-color="#97A5F0"/>
<stop offset="0.706748" stop-color="#A8B4F5"/>
</radialGradient>
<linearGradient id="paint15_linear_662_6585" x1="70.5843" y1="83.2928" x2="149.202" y2="242.07" gradientUnits="userSpaceOnUse">
<stop stop-color="#B9C3FF"/>
<stop offset="0.5" stop-color="#EDF0FF"/>
<stop offset="1" stop-color="white"/>
</linearGradient>
<linearGradient id="paint16_linear_662_6585" x1="102.216" y1="146.596" x2="92.5649" y2="150.92" gradientUnits="userSpaceOnUse">
<stop stop-color="#4C65E5"/>
<stop offset="1" stop-color="#334EDB"/>
</linearGradient>
<linearGradient id="paint17_linear_662_6585" x1="147.034" y1="29.655" x2="148.267" y2="41.0131" gradientUnits="userSpaceOnUse">
<stop stop-color="#94A2E5"/>
<stop offset="1" stop-color="#525A7F"/>
</linearGradient>
<radialGradient id="paint18_radial_662_6585" cx="0" cy="0" r="1" gradientUnits="userSpaceOnUse" gradientTransform="translate(181.718 80.6539) rotate(90) scale(3.91907 9.64228)">
<stop stop-color="#6979A7"/>
<stop offset="0.725" stop-color="#9BA4C0"/>
<stop offset="1" stop-color="#848FB0"/>
</radialGradient>
<linearGradient id="paint19_linear_662_6585" x1="180.614" y1="69.6758" x2="192.349" y2="76.3038" gradientUnits="userSpaceOnUse">
<stop offset="0.13" stop-color="#C0C6D9"/>
<stop offset="0.36" stop-color="#808BAD"/>
<stop offset="0.625" stop-color="#C2C2C2"/>
<stop offset="1" stop-color="#9AA4C4"/>
</linearGradient>
<linearGradient id="paint20_linear_662_6585" x1="160.536" y1="24.9425" x2="240.519" y2="77.2358" gradientUnits="userSpaceOnUse">
<stop stop-color="#C8D0F9"/>
<stop offset="0.79" stop-color="#4C65E5"/>
</linearGradient>
<radialGradient id="paint21_radial_662_6585" cx="0" cy="0" r="1" gradientUnits="userSpaceOnUse" gradientTransform="translate(210.034 21.7766) rotate(83.8058) scale(8.37494 14.5686)">
<stop stop-color="#EFF0F3"/>
<stop offset="0.71" stop-color="#9CA4BD"/>
<stop offset="1" stop-color="#7A85A7"/>
</radialGradient>
<linearGradient id="paint22_linear_662_6585" x1="160.536" y1="24.9425" x2="240.519" y2="77.2358" gradientUnits="userSpaceOnUse">
<stop stop-color="#C8D0F9"/>
<stop offset="0.79" stop-color="#4C65E5"/>
</linearGradient>
<linearGradient id="paint23_linear_662_6585" x1="156.179" y1="37.163" x2="237.305" y2="81.2701" gradientUnits="userSpaceOnUse">
<stop stop-color="#6277E8"/>
<stop offset="0.215" stop-color="#A2AFF3"/>
<stop offset="0.645" stop-color="#3150EF"/>
<stop offset="1" stop-color="#7287F4"/>
</linearGradient>
<linearGradient id="paint24_linear_662_6585" x1="195.325" y1="18.5683" x2="150.42" y2="39.0175" gradientUnits="userSpaceOnUse">
<stop stop-color="#9BA9F2" stop-opacity="0.4"/>
<stop offset="0.52" stop-color="#F6F7F8"/>
<stop offset="1" stop-color="#AFBBF5" stop-opacity="0"/>
</linearGradient>
<linearGradient id="paint25_linear_662_6585" x1="129.045" y1="173.645" x2="125.062" y2="183.469" gradientUnits="userSpaceOnUse">
<stop stop-color="#4B65E5"/>
<stop offset="1" stop-color="#3450DC"/>
</linearGradient>
<radialGradient id="paint26_radial_662_6585" cx="0" cy="0" r="1" gradientUnits="userSpaceOnUse" gradientTransform="translate(101.827 163.35) rotate(46.9529) scale(11.842)">
<stop stop-color="#F6F7F8"/>
<stop offset="1" stop-color="#4C65E5"/>
</radialGradient>
</defs>
</svg>
