<svg width="111" height="20" viewBox="0 0 111 20" fill="none" xmlns="http://www.w3.org/2000/svg">
<g id="OneTime">
<path id="Vector" d="M97.2314 12.9731C97.2314 9.0001 100.204 5.94604 104.123 5.94604C107.961 5.94604 110.583 8.75686 110.583 12.7839C110.583 13.2974 110.502 13.865 110.448 14.4055H100.394C100.934 16.0812 102.448 17.1082 104.448 17.1082C105.745 17.1082 106.988 16.6487 107.799 15.7569L109.826 17.7839C108.529 19.2163 106.637 20.0001 104.421 20.0001C100.339 20.0001 97.2314 16.946 97.2314 12.9731ZM104.069 8.81091C102.204 8.81091 100.61 10.0542 100.34 11.919H107.583C107.312 10.0001 105.88 8.81091 104.069 8.81091Z" fill="#1B1C23"/>
<path id="Vector_2" d="M73.0186 19.7298V6.21632H76.2078V7.67578C77.2078 6.62172 78.6673 5.94604 80.2619 5.94604C82.3159 5.94604 83.9375 6.89199 84.8024 8.48659C86.0186 6.94605 87.4511 5.94604 89.6132 5.94604C92.7483 5.94604 94.9105 8.16226 94.9105 11.5947V19.7298H91.7213V12.2704C91.7213 10.0001 90.5321 8.94605 88.8294 8.94605C86.9916 8.94605 85.5592 10.2974 85.5592 12.3785V19.7298H82.37V12.2704C82.37 10.0001 81.1808 8.94605 79.4781 8.94605C77.6402 8.94605 76.2078 10.2974 76.2078 12.4325V19.7298H73.0186Z" fill="#1B1C23"/>
<path id="Vector_3" d="M69.8733 19.7297H66.6841V6.21622H69.8733V19.7297ZM66.3868 1.89189C66.3868 0.864865 67.2247 0 68.2787 0C69.3328 0 70.1706 0.864865 70.1706 1.89189C70.1706 2.94595 69.3328 3.81081 68.2787 3.81081C67.2247 3.81081 66.3868 2.94595 66.3868 1.89189Z" fill="#1B1C23"/>
<path id="Vector_4" d="M55.6909 3.45945H49.5828V0.270264H64.9611V3.45945H58.8801V19.7297H55.6909V3.45945Z" fill="#1B1C23"/>
<path id="Vector_5" d="M37.2916 12.9731C37.2916 9.0001 40.2645 5.94604 44.1835 5.94604C48.0213 5.94604 50.6429 8.75686 50.6429 12.7839C50.6429 13.2974 50.5618 13.865 50.5078 14.4055H40.4537C40.9943 16.0812 42.5078 17.1082 44.5078 17.1082C45.8051 17.1082 47.0483 16.6487 47.8591 15.7569L49.8862 17.7839C48.5889 19.2163 46.697 20.0001 44.4808 20.0001C40.3997 20.0001 37.2916 16.946 37.2916 12.9731ZM44.1294 8.81091C42.2645 8.81091 40.6699 10.0542 40.3997 11.919H47.6429C47.3726 10.0001 45.9402 8.81091 44.1294 8.81091Z" fill="#1B1C23"/>
<path id="Vector_6" d="M25.6112 19.7298H22.4221V6.21632H25.6112V7.67578C26.6112 6.62172 28.0707 5.94604 29.6653 5.94604C32.8004 5.94604 34.9626 8.16226 34.9626 11.5947V19.7298H31.7734V12.2704C31.7734 10.0001 30.5842 8.94605 28.8815 8.94605C27.0437 8.94605 25.6112 10.2974 25.6112 12.4325V19.7298Z" fill="#1B1C23"/>
<path id="Vector_7" d="M10 20C4.48649 20 0 15.5135 0 10C0 4.48649 4.48649 0 10 0C15.5135 0 20 4.48649 20 10C20 15.5135 15.5135 20 10 20ZM3.18919 10C3.18919 13.7568 6.24324 16.8108 10 16.8108C13.7568 16.8108 16.8108 13.7568 16.8108 10C16.8108 6.24324 13.7568 3.18919 10 3.18919C6.24324 3.18919 3.18919 6.24324 3.18919 10Z" fill="#1B1C23"/>
</g>
</svg>
