<svg width="168" height="158" viewBox="0 0 168 158" fill="none" xmlns="http://www.w3.org/2000/svg">
<g id="Frame 1362789711">
<rect id="Rectangle 164" x="79.9165" y="56.645" width="8.74438" height="26.5886" rx="4.37219" fill="#677CEE"/>
<g id="Group">
<g id="Group_2">
<path id="Vector" d="M58.7221 27.3035C62.602 24.0491 62.0585 17.8822 57.6316 15.4278C48.0121 10.095 35.7023 10.9086 26.7734 18.4018C17.8444 25.8951 14.9045 37.8767 18.4871 48.2756C20.1347 53.0648 26.1136 54.6681 29.9935 51.4137L58.7221 27.3069V27.3035Z" fill="#677CEE"/>
<path id="Vector_2" d="M48.8226 35.6084L39.8955 43.0991L50.4581 55.6871L59.3851 48.1964L48.8226 35.6084Z" fill="#DEE0E9"/>
</g>
<g id="Group_3">
<path id="Vector_3" d="M109.845 27.3079C105.965 24.0535 106.508 17.8866 110.935 15.4322C120.555 10.0994 132.865 10.913 141.794 18.4062C150.722 25.8995 153.662 37.8811 150.08 48.28C148.432 53.0692 142.453 54.6725 138.573 51.4181L109.845 27.3113V27.3079Z" fill="#677CEE"/>
<path id="Vector_4" d="M109.184 48.2019L118.111 55.6926L128.673 43.1046L119.746 35.614L109.184 48.2019Z" fill="#DEE0E9"/>
</g>
<path id="Vector_5" d="M86.7123 14.3174H81.8547V29.8576H86.7123V14.3174Z" fill="#DEE0E9"/>
<path id="Vector_6" d="M92.7524 19.2847V12L75.8175 12V19.2847H92.7524Z" fill="#DEE0E9"/>
<path id="Vector_7" d="M119.239 145.316C117.54 146.379 115.434 146.184 114.367 144.864L105.873 134.373C104.635 132.845 105.271 130.445 107.24 129.218L110.029 127.475C111.998 126.244 114.432 126.726 115.263 128.507L120.968 140.742C121.686 142.28 120.941 144.256 119.239 145.319V145.316Z" fill="#DEE0E9"/>
<path id="Vector_8" d="M49.3281 145.316C51.027 146.379 53.1328 146.184 54.1993 144.864L62.6942 134.373C63.9316 132.845 63.2958 130.445 61.3268 129.218L58.5373 127.475C56.5683 126.244 54.1344 126.726 53.3037 128.507L47.5983 140.742C46.8805 142.28 47.6257 144.256 49.3281 145.319V145.316Z" fill="#DEE0E9"/>
<path id="Vector_9" d="M84.285 140.695C116.018 140.695 141.742 114.97 141.742 83.2374C141.742 51.5047 116.018 25.7803 84.285 25.7803C52.5523 25.7803 26.8279 51.5047 26.8279 83.2374C26.8279 114.97 52.5523 140.695 84.285 140.695Z" fill="#677CEE"/>
<path id="Vector_10" d="M138.867 80.3618C138.867 112.095 113.143 137.819 81.4101 137.819C66.2903 137.819 52.5311 131.977 42.269 122.426C42.2519 122.412 42.2382 122.395 42.2211 122.378C32.67 112.116 26.8279 98.3564 26.8279 83.2332C26.8279 51.5033 52.5516 25.7761 84.285 25.7761C99.4082 25.7761 113.164 31.6182 123.423 41.1659H123.426C133.005 51.4281 138.867 65.2078 138.867 80.3584V80.3618Z" fill="#677CEE"/>
<path id="Vector_11" d="M84.285 124.911C107.301 124.911 125.959 106.253 125.959 83.2367C125.959 60.2207 107.301 41.5625 84.285 41.5625C61.269 41.5625 42.6108 60.2207 42.6108 83.2367C42.6108 106.253 61.269 124.911 84.285 124.911Z" fill="#E8EBFC"/>
<path id="Vector_12" d="M84.2851 121.907C105.642 121.907 122.955 104.594 122.955 83.2373C122.955 61.8808 105.642 44.5679 84.2851 44.5679C62.9286 44.5679 45.6157 61.8808 45.6157 83.2373C45.6157 104.594 62.9286 121.907 84.2851 121.907Z" fill="#F5F7FF"/>
<path id="Vector_13" d="M84.2853 56.645V83.2336C81.8684 83.2336 79.9097 81.2749 79.9097 78.858V61.0206C79.9097 58.6038 81.8684 56.645 84.2853 56.645Z" fill="#677CEE"/>
<path id="Vector_14" d="M88.6608 61.0206V78.858C88.6608 81.2749 86.702 83.2336 84.2852 83.2336V56.645C85.4953 56.645 86.5892 57.1339 87.3789 57.9269C88.1719 58.7166 88.6608 59.8105 88.6608 61.0206Z" fill="#677CEE"/>
<path id="Vector_15" d="M104.522 103.624L82.2168 81.3188C83.926 79.6096 86.695 79.6096 88.4042 81.3188L104.522 97.4367C106.231 99.1459 106.231 101.918 104.522 103.624Z" fill="#677CEE"/>
<path id="Vector_16" d="M84.2853 89.8209C87.9215 89.8209 90.8692 86.8732 90.8692 83.237C90.8692 79.6008 87.9215 76.6531 84.2853 76.6531C80.6491 76.6531 77.7014 79.6008 77.7014 83.237C77.7014 86.8732 80.6491 89.8209 84.2853 89.8209Z" fill="#677CEE"/>
<rect id="Rectangle 163" x="107.63" y="100.479" width="8.74438" height="31.5285" rx="4.37219" transform="rotate(134.961 107.63 100.479)" fill="#677CEE"/>
<path id="Vector_17" d="M84.2851 86.4365C86.0523 86.4365 87.4848 85.0039 87.4848 83.2368C87.4848 81.4697 86.0523 80.0371 84.2851 80.0371C82.518 80.0371 81.0854 81.4697 81.0854 83.2368C81.0854 85.0039 82.518 86.4365 84.2851 86.4365Z" fill="white"/>
<path id="Vector_18" d="M92.7525 19.2881C93.821 19.2881 94.6873 17.6566 94.6873 15.6441C94.6873 13.6315 93.821 12 92.7525 12C91.6839 12 90.8176 13.6315 90.8176 15.6441C90.8176 17.6566 91.6839 19.2881 92.7525 19.2881Z" fill="#9296AB"/>
<path id="Vector_19" d="M75.8177 19.2881C76.8862 19.2881 77.7525 17.6566 77.7525 15.6441C77.7525 13.6315 76.8862 12 75.8177 12C74.7491 12 73.8828 13.6315 73.8828 15.6441C73.8828 17.6566 74.7491 19.2881 75.8177 19.2881Z" fill="#DEE0E9"/>
</g>
</g>
</svg>
