<svg width="160" height="160" viewBox="0 0 160 160" fill="none" xmlns="http://www.w3.org/2000/svg">
<g id="Frame 1362789726" clip-path="url(#clip0_1033_14847)">
<g id="Group 46">
<ellipse id="Ellipse 21" cx="75.3171" cy="142.103" rx="66.6951" ry="17.8971" fill="#C0CAFF"/>
<g id="Group 45">
<g id="Group 42">
<g id="Rectangle 61" filter="url(#filter0_i_1033_14847)">
<path d="M35.3496 127.284L41.5617 132.038L32.1612 142.316C31.191 143.377 29.565 143.506 28.4399 142.611C27.3421 141.737 27.0831 140.175 27.8404 138.994L35.3496 127.284Z" fill="url(#paint0_linear_1033_14847)"/>
</g>
<path id="Subtract" fill-rule="evenodd" clip-rule="evenodd" d="M51.8436 4.31762C41.9949 6.5683 35.8355 16.3768 38.0862 26.2255L38.2673 27.0181C38.6645 28.7561 40.3954 29.8431 42.1334 29.4459L75.6923 21.7768L75.3353 20.2843L76.3573 21.6249L83.7032 19.9461C85.4412 19.549 86.5281 17.8181 86.131 16.08L85.9498 15.2875C83.6992 5.43874 73.8906 -0.720679 64.0419 1.53L51.8436 4.31762Z" fill="url(#paint1_linear_1033_14847)"/>
<g id="Mask group">
<mask id="mask0_1033_14847" style="mask-type:alpha" maskUnits="userSpaceOnUse" x="37" y="1" width="50" height="29">
<path id="Rectangle 58" d="M38.086 26.2255C35.8353 16.3768 41.9947 6.56828 51.8434 4.3176L64.0417 1.52998C73.8904 -0.720697 83.699 5.43872 85.9496 15.2874L86.1308 16.08C86.5279 17.818 85.441 19.5489 83.703 19.9461L42.1332 29.4459C40.3952 29.843 38.6643 28.7561 38.2671 27.0181L38.086 26.2255Z" fill="url(#paint2_linear_1033_14847)"/>
</mask>
<g mask="url(#mask0_1033_14847)">
<g id="Vector 11" filter="url(#filter1_f_1033_14847)">
<path d="M39.8555 16.0026C37.414 19.304 38.5656 25.9013 39.5453 27.6882C41.559 25.5864 46.8566 22.2578 62.1654 18.91C75.9201 15.902 83.6681 16.1727 85.6553 16.954C84.4718 11.786 81.3236 7.97512 80.3039 7.33931C62.888 5.25545 46.5723 11.81 39.8555 16.0026Z" fill="url(#paint3_linear_1033_14847)"/>
</g>
<g id="Vector 14" style="mix-blend-mode:color-dodge" opacity="0.2">
<path d="M39.953 30.1793C38.943 28.6058 32.9015 12.2182 53.469 2.00181" stroke="url(#paint4_linear_1033_14847)" stroke-width="3.22807"/>
</g>
</g>
</g>
<path id="Subtract_2" fill-rule="evenodd" clip-rule="evenodd" d="M77.627 23.2898C82.6526 21.3887 85.7221 19.5343 85.4414 18.306C84.949 16.1519 74.3375 16.7399 61.74 19.6194C49.1425 22.4989 39.3294 26.5795 39.8218 28.7337C40.3142 30.8878 50.9256 30.2998 63.5231 27.4203C68.2726 26.3346 72.6263 25.0783 76.1812 23.8188L75.3358 20.2844L77.627 23.2898ZM76.3152 23.7712L77.1014 23.4862C76.844 23.5811 76.5819 23.6762 76.3152 23.7712Z" fill="url(#paint5_linear_1033_14847)"/>
<g id="Rectangle 59" filter="url(#filter2_i_1033_14847)">
<rect width="6.99415" height="12.3833" transform="matrix(-0.974056 0.226305 0.226305 0.974056 64.5791 18.9576)" fill="url(#paint6_linear_1033_14847)"/>
</g>
<path id="Rectangle 59_2" d="M60.3373 0.91914C60.2028 0.340286 59.6245 -0.0199444 59.0456 0.114542L54.3292 1.21033C53.7503 1.34482 53.3901 1.9231 53.5246 2.50195L53.8521 3.91166L60.6648 2.32884L60.3373 0.91914Z" fill="url(#paint7_radial_1033_14847)"/>
<path id="Rectangle 62" d="M95.6186 20.7645L96.0229 20.866L92.8408 34.5163L92.4413 34.4096L95.6186 20.7645Z" fill="#CBD3FF"/>
<path id="Rectangle 62_2" d="M96.0168 20.8622L97.9139 21.3295L94.9105 33.6264L92.841 34.5133L96.0168 20.8622Z" fill="url(#paint8_linear_1033_14847)"/>
<path id="Rectangle 63" d="M89.7012 14.8733C90.0949 13.2872 91.6999 12.3206 93.286 12.7142L103.379 15.2194C105.109 15.6488 106.163 17.3997 105.734 19.13L105.541 19.9055C105.112 21.6358 103.361 22.6903 101.631 22.2608L91.5382 19.7557C89.9521 19.362 88.9854 17.7571 89.3791 16.171L89.7012 14.8733Z" fill="url(#paint9_linear_1033_14847)"/>
<g id="Vector" filter="url(#filter3_i_1033_14847)">
<path fill-rule="evenodd" clip-rule="evenodd" d="M105.984 35.4161L81.1217 29.0411L83.7518 35.1022C63.111 39.7566 46.3111 58.0489 43.2206 81.764C39.6974 108.801 55.2042 133.591 78.7258 140.621L72.2129 143.876L96.9369 142.356C120.086 140.015 139.724 120.615 143.091 94.7785C146.688 67.1747 130.448 41.9122 106.095 35.5027L105.984 35.4161Z" fill="url(#paint10_angular_1033_14847)"/>
</g>
<ellipse id="Ellipse 10" cx="68.4483" cy="85.1566" rx="55.156" ry="59.6131" transform="rotate(7.42465 68.4483 85.1566)" fill="url(#paint11_linear_1033_14847)"/>
<ellipse id="Ellipse 10_2" cx="68.4483" cy="85.1566" rx="55.156" ry="59.6131" transform="rotate(7.42465 68.4483 85.1566)" fill="url(#paint12_linear_1033_14847)"/>
<ellipse id="Ellipse 10_3" cx="68.4486" cy="85.1566" rx="44.9501" ry="48.5824" transform="rotate(7.42465 68.4486 85.1566)" fill="#526DFC"/>
<ellipse id="Ellipse 10_4" cx="68.4482" cy="85.1565" rx="44.117" ry="47.883" transform="rotate(7.42465 68.4482 85.1565)" fill="url(#paint13_angular_1033_14847)"/>
<path id="Intersect" fill-rule="evenodd" clip-rule="evenodd" d="M72.2452 37.4338C73.0397 37.4907 73.8368 37.5709 74.6358 37.675C98.7967 40.8236 115.613 64.6342 112.195 90.8575C109.338 112.781 93.2446 129.45 73.9257 132.487C73.1312 132.43 72.3341 132.35 71.5351 132.246C47.3742 129.098 30.5583 105.287 33.9756 79.0636C36.8325 57.1405 52.9264 40.4716 72.2452 37.4338Z" fill="url(#paint14_linear_1033_14847)"/>
<g id="Vector 10 (Stroke)" filter="url(#filter4_d_1033_14847)">
<path fill-rule="evenodd" clip-rule="evenodd" d="M37.1092 113.912C38.0413 112.793 39.698 112.625 40.8356 113.535L53.8352 123.935C55.0046 124.87 55.1781 126.584 54.22 127.735C53.2879 128.854 51.6311 129.022 50.4935 128.112L37.4939 117.712C36.3245 116.777 36.151 115.063 37.1092 113.912Z" fill="url(#paint15_linear_1033_14847)"/>
</g>
<path id="Vector_2" fill-rule="evenodd" clip-rule="evenodd" d="M102.9 15.4962C103.596 15.333 104.345 15.5422 104.856 16.0421C105.647 16.8163 106.02 17.9777 105.734 19.13L105.541 19.9055C105.239 21.1219 104.284 22.0043 103.142 22.272C102.446 22.4351 101.697 22.2259 101.186 21.726C100.394 20.9518 100.022 19.7902 100.308 18.6379L100.501 17.8624C100.803 16.6461 101.758 15.7639 102.9 15.4962Z" fill="url(#paint16_linear_1033_14847)"/>
<ellipse id="Ellipse 12" cx="116.557" cy="45.7338" rx="5.18766" ry="2.1085" transform="rotate(37.4247 116.557 45.7338)" fill="url(#paint17_radial_1033_14847)"/>
<g id="Vector_3" filter="url(#filter5_i_1033_14847)">
<path fill-rule="evenodd" clip-rule="evenodd" d="M114.224 44.3239C113.959 43.9647 113.988 43.4758 114.259 43.1214L123.852 30.5862C126.282 31.1892 128.285 32.7141 129.502 34.7111L119.909 47.2468C119.65 47.5854 119.214 47.7444 118.808 47.6134C117.885 47.3152 117.032 46.881 116.271 46.3381L115.786 45.9666C115.196 45.4832 114.671 44.9306 114.224 44.3239Z" fill="url(#paint18_linear_1033_14847)"/>
</g>
<path id="Vector 37" d="M72.221 121.537L71.9434 107.208L71.5735 107.371L71.6168 121.136L70.0736 132.023L71.0396 132.174L72.221 121.537Z" fill="#1C2B80"/>
<path id="Vector 36" d="M67.2717 98.9789L69.8879 89.9562L70.2562 89.9415L67.6945 98.89L71.9511 107.203L68.0196 120.455L61.3419 129.581L59.6519 128.818L67.0982 120.05L71.1525 107.099L67.2717 98.9789Z" fill="#1C2B80"/>
<path id="Vector_4" d="M145.466 49.9718C151.535 42.0203 150.016 30.6515 142.072 24.5789L130.812 15.9701C122.869 9.89748 111.51 11.4206 105.441 19.3721L103.908 21.3978C102.732 22.9521 102.738 25.1098 103.991 26.6028C107.081 30.2847 110.463 33.724 114.109 36.8819L122.883 43.5892C128.122 47.1087 133.767 50.1026 139.754 52.4855C141.496 53.1786 143.47 52.5862 144.607 51.0964L145.466 49.9718Z" fill="url(#paint19_linear_1033_14847)"/>
<rect id="Rectangle 60" x="134.996" y="15.9763" width="6.9799" height="3.79459" rx="1.07602" transform="rotate(37.3724 134.996 15.9763)" fill="url(#paint20_radial_1033_14847)"/>
<g id="Mask group_2">
<mask id="mask1_1033_14847" style="mask-type:alpha" maskUnits="userSpaceOnUse" x="103" y="12" width="47" height="41">
<path id="Vector_5" d="M145.466 49.9718C151.536 42.0203 150.016 30.6515 142.073 24.5789L130.813 15.9701C122.87 9.89748 111.511 11.4206 105.441 19.3721L103.909 21.3978C102.732 22.9521 102.739 25.1098 103.992 26.6028C107.082 30.2847 110.464 33.724 114.11 36.8819L122.884 43.5892C128.123 47.1087 133.768 50.1026 139.755 52.4855C141.497 53.1786 143.471 52.5862 144.608 51.0964L145.466 49.9718Z" fill="url(#paint21_linear_1033_14847)"/>
</mask>
<g mask="url(#mask1_1033_14847)">
<g id="Vector 12" opacity="0.4" filter="url(#filter6_f_1033_14847)">
<path d="M110.119 14.7348C107.416 15.7323 103.279 22.4955 102.596 24.5161C108.906 35.8816 132.199 49.1174 142.743 52.3687C146.974 50.3503 148.49 44.8606 148.873 42.5549C128.496 37.714 115.063 23.5627 110.119 14.7348Z" fill="url(#paint22_linear_1033_14847)"/>
</g>
<g id="Vector 13" style="mix-blend-mode:color-dodge" opacity="0.2">
<path d="M102.147 24.8589C104.971 20.1363 112.327 7.85949 132.781 13.9096" stroke="url(#paint23_linear_1033_14847)" stroke-width="3.22807"/>
</g>
</g>
</g>
<g id="Vector 9 (Stroke)" filter="url(#filter7_d_1033_14847)">
<path fill-rule="evenodd" clip-rule="evenodd" d="M92.2669 122.692C92.7055 124.149 91.8376 125.677 90.3617 126.046L63.744 132.704C62.3636 133.049 60.9554 132.249 60.5453 130.887C60.1068 129.43 60.9747 127.902 62.4505 127.533L89.0682 120.875C90.4486 120.53 91.8568 121.33 92.2669 122.692Z" fill="url(#paint24_linear_1033_14847)"/>
</g>
<circle id="Ellipse 14" cx="69.8296" cy="85.9935" r="4.02056" transform="rotate(7.42465 69.8296 85.9935)" fill="url(#paint25_radial_1033_14847)"/>
</g>
<g id="Vector 41" filter="url(#filter8_ii_1033_14847)">
<path d="M138.563 42.7515C138.032 44.208 135.893 48.2188 134.054 49.9864L135.953 50.8696L137.731 51.6523C138.477 50.5507 140.593 45.4467 141.168 43.3322C141.673 41.4776 139.554 32.8203 138.018 27.8125C138.76 32.1698 139.105 41.2686 138.563 42.7515Z" fill="#4C65E6"/>
</g>
<g id="Vector 42" filter="url(#filter9_i_1033_14847)">
<path d="M115.759 24.2179L109.767 32.8654L108.78 31.8719L107.824 30.8871L115.759 24.2179Z" fill="#8898F2"/>
</g>
<g id="Vector 43">
<path d="M80.0188 57.216L79.5021 68.33L80.6321 57.2959L86.8318 47.3399L87.5715 41.6635L86.8046 41.2949L86.0273 40.9366L85.2202 47.1298L80.0188 57.216Z" fill="#1C2B80"/>
<path d="M71.3679 82.3009L79.5021 68.33M79.5021 68.33L80.0188 57.216L85.2202 47.1298L86.0273 40.9366L86.8046 41.2949L87.5715 41.6635L86.8318 47.3399L80.6321 57.2959L79.5021 68.33Z" stroke="#1C2B80" stroke-width="0.107602"/>
</g>
<path id="Vector 44" d="M33.6948 81.7334L33.8215 79.9559L47.755 81.5523L57.7486 84.3802L47.6644 82.248L33.6948 81.7334Z" fill="#1C2B80"/>
<path id="Vector 45" d="M95.4163 46.67L94.5595 45.9221L87.6592 54.4959L78.7419 69.6074L88.2032 54.5668L95.4163 46.67Z" fill="#1C2B80"/>
<path id="Vector 46" d="M104.583 111.987L105.513 110.38L94.8392 98.9721L82.2315 94.9868L73.7728 86.7831C73.7728 86.7831 73.6683 87.1575 73.6415 87.2468L82.1495 95.6167L94.7174 99.9064L104.583 111.987Z" fill="#1C2B80"/>
<path id="Vector 47" d="M107.922 105.787L94.7734 98.9894L94.7309 99.3161L107.725 106.194L107.922 105.787Z" fill="#1C2B80"/>
<path id="Vector 48" d="M50.8536 47.404L51.919 46.5372L55.9537 61.9284L67.4619 82.7507L67.2232 82.943L55.2536 61.8372L50.8536 47.404Z" fill="#1C2B80"/>
</g>
<g id="Union" filter="url(#filter10_i_1033_14847)">
<path fill-rule="evenodd" clip-rule="evenodd" d="M106.081 136.134C105.96 136.093 105.836 136.075 105.715 136.077C104.153 138.107 103.247 140.66 103.299 143.41C103.377 143.463 103.464 143.507 103.558 143.539L111.214 146.148L113.737 138.744L106.081 136.134ZM111.214 146.148L113.738 138.744L122.182 142.755C123.466 143.365 124.098 144.833 123.657 146.184C123.21 147.557 121.801 148.372 120.388 148.075L111.214 146.148Z" fill="url(#paint26_linear_1033_14847)"/>
</g>
<g id="Vector 32" filter="url(#filter11_ii_1033_14847)">
<path d="M49.0738 23.2336L46.2999 24.2742C46.3154 21.5796 46.0122 17.6182 47.4856 13.0083C48.2849 10.5076 49.0546 8.74488 49.3518 7.96817C48.8817 9.20551 48.3324 10.5708 48.1861 11.3202C47.485 15.7095 48.4858 21.0913 49.0738 23.2336Z" fill="#677CEE"/>
</g>
</g>
</g>
<defs>
<filter id="filter0_i_1033_14847" x="26.3312" y="127.284" width="15.2303" height="18.0738" filterUnits="userSpaceOnUse" color-interpolation-filters="sRGB">
<feFlood flood-opacity="0" result="BackgroundImageFix"/>
<feBlend mode="normal" in="SourceGraphic" in2="BackgroundImageFix" result="shape"/>
<feColorMatrix in="SourceAlpha" type="matrix" values="0 0 0 0 0 0 0 0 0 0 0 0 0 0 0 0 0 0 127 0" result="hardAlpha"/>
<feOffset dx="-1.07602" dy="2.15205"/>
<feGaussianBlur stdDeviation="2.69006"/>
<feComposite in2="hardAlpha" operator="arithmetic" k2="-1" k3="1"/>
<feColorMatrix type="matrix" values="0 0 0 0 0.0509804 0 0 0 0 0.0823529 0 0 0 0 0.258824 0 0 0 0.4 0"/>
<feBlend mode="normal" in2="shape" result="effect1_innerShadow_1033_14847"/>
</filter>
<filter id="filter1_f_1033_14847" x="34.0943" y="2.63628" width="55.865" height="29.356" filterUnits="userSpaceOnUse" color-interpolation-filters="sRGB">
<feFlood flood-opacity="0" result="BackgroundImageFix"/>
<feBlend mode="normal" in="SourceGraphic" in2="BackgroundImageFix" result="shape"/>
<feGaussianBlur stdDeviation="2.15205" result="effect1_foregroundBlur_1033_14847"/>
</filter>
<filter id="filter2_i_1033_14847" x="57.7666" y="18.9576" width="9.61523" height="15.7969" filterUnits="userSpaceOnUse" color-interpolation-filters="sRGB">
<feFlood flood-opacity="0" result="BackgroundImageFix"/>
<feBlend mode="normal" in="SourceGraphic" in2="BackgroundImageFix" result="shape"/>
<feColorMatrix in="SourceAlpha" type="matrix" values="0 0 0 0 0 0 0 0 0 0 0 0 0 0 0 0 0 0 127 0" result="hardAlpha"/>
<feOffset dy="2.15205"/>
<feGaussianBlur stdDeviation="3.22807"/>
<feComposite in2="hardAlpha" operator="arithmetic" k2="-1" k3="1"/>
<feColorMatrix type="matrix" values="0 0 0 0 0.0588235 0 0 0 0 0.0941176 0 0 0 0 0.286275 0 0 0 1 0"/>
<feBlend mode="normal" in2="shape" result="effect1_innerShadow_1033_14847"/>
</filter>
<filter id="filter3_i_1033_14847" x="42.7227" y="25.813" width="100.866" height="118.063" filterUnits="userSpaceOnUse" color-interpolation-filters="sRGB">
<feFlood flood-opacity="0" result="BackgroundImageFix"/>
<feBlend mode="normal" in="SourceGraphic" in2="BackgroundImageFix" result="shape"/>
<feColorMatrix in="SourceAlpha" type="matrix" values="0 0 0 0 0 0 0 0 0 0 0 0 0 0 0 0 0 0 127 0" result="hardAlpha"/>
<feOffset dy="-3.22807"/>
<feGaussianBlur stdDeviation="4.30409"/>
<feComposite in2="hardAlpha" operator="arithmetic" k2="-1" k3="1"/>
<feColorMatrix type="matrix" values="0 0 0 0 0.2 0 0 0 0 0.305882 0 0 0 0 0.858824 0 0 0 1 0"/>
<feBlend mode="normal" in2="shape" result="effect1_innerShadow_1033_14847"/>
</filter>
<filter id="filter4_d_1033_14847" x="34.3382" y="112.949" width="22.6527" height="20.0532" filterUnits="userSpaceOnUse" color-interpolation-filters="sRGB">
<feFlood flood-opacity="0" result="BackgroundImageFix"/>
<feColorMatrix in="SourceAlpha" type="matrix" values="0 0 0 0 0 0 0 0 0 0 0 0 0 0 0 0 0 0 127 0" result="hardAlpha"/>
<feOffset dy="2.15205"/>
<feGaussianBlur stdDeviation="1.07602"/>
<feComposite in2="hardAlpha" operator="out"/>
<feColorMatrix type="matrix" values="0 0 0 0 0.161 0 0 0 0 0.255421 0 0 0 0 0.759 0 0 0 0.5 0"/>
<feBlend mode="normal" in2="BackgroundImageFix" result="effect1_dropShadow_1033_14847"/>
<feBlend mode="normal" in="SourceGraphic" in2="effect1_dropShadow_1033_14847" result="shape"/>
</filter>
<filter id="filter5_i_1033_14847" x="109.736" y="30.5862" width="19.766" height="21.377" filterUnits="userSpaceOnUse" color-interpolation-filters="sRGB">
<feFlood flood-opacity="0" result="BackgroundImageFix"/>
<feBlend mode="normal" in="SourceGraphic" in2="BackgroundImageFix" result="shape"/>
<feColorMatrix in="SourceAlpha" type="matrix" values="0 0 0 0 0 0 0 0 0 0 0 0 0 0 0 0 0 0 127 0" result="hardAlpha"/>
<feOffset dx="-6.45614" dy="10.7602"/>
<feGaussianBlur stdDeviation="2.15205"/>
<feComposite in2="hardAlpha" operator="arithmetic" k2="-1" k3="1"/>
<feColorMatrix type="matrix" values="0 0 0 0 0.0509804 0 0 0 0 0.0823529 0 0 0 0 0.254902 0 0 0 0.3 0"/>
<feBlend mode="normal" in2="shape" result="effect1_innerShadow_1033_14847"/>
</filter>
<filter id="filter6_f_1033_14847" x="100.444" y="12.5828" width="50.5814" height="41.938" filterUnits="userSpaceOnUse" color-interpolation-filters="sRGB">
<feFlood flood-opacity="0" result="BackgroundImageFix"/>
<feBlend mode="normal" in="SourceGraphic" in2="BackgroundImageFix" result="shape"/>
<feGaussianBlur stdDeviation="1.07602" result="effect1_foregroundBlur_1033_14847"/>
</filter>
<filter id="filter7_d_1033_14847" x="58.2796" y="120.795" width="36.2533" height="16.2935" filterUnits="userSpaceOnUse" color-interpolation-filters="sRGB">
<feFlood flood-opacity="0" result="BackgroundImageFix"/>
<feColorMatrix in="SourceAlpha" type="matrix" values="0 0 0 0 0 0 0 0 0 0 0 0 0 0 0 0 0 0 127 0" result="hardAlpha"/>
<feOffset dy="2.15205"/>
<feGaussianBlur stdDeviation="1.07602"/>
<feComposite in2="hardAlpha" operator="out"/>
<feColorMatrix type="matrix" values="0 0 0 0 0.161 0 0 0 0 0.255421 0 0 0 0 0.759 0 0 0 0.5 0"/>
<feBlend mode="normal" in2="BackgroundImageFix" result="effect1_dropShadow_1033_14847"/>
<feBlend mode="normal" in="SourceGraphic" in2="effect1_dropShadow_1033_14847" result="shape"/>
</filter>
<filter id="filter8_ii_1033_14847" x="133.248" y="27.8125" width="8.80349" height="25.4538" filterUnits="userSpaceOnUse" color-interpolation-filters="sRGB">
<feFlood flood-opacity="0" result="BackgroundImageFix"/>
<feBlend mode="normal" in="SourceGraphic" in2="BackgroundImageFix" result="shape"/>
<feColorMatrix in="SourceAlpha" type="matrix" values="0 0 0 0 0 0 0 0 0 0 0 0 0 0 0 0 0 0 127 0" result="hardAlpha"/>
<feOffset dx="-0.807017" dy="1.61403"/>
<feGaussianBlur stdDeviation="1.07602"/>
<feComposite in2="hardAlpha" operator="arithmetic" k2="-1" k3="1"/>
<feColorMatrix type="matrix" values="0 0 0 0 0.0470588 0 0 0 0 0.0823529 0 0 0 0 0.25098 0 0 0 1 0"/>
<feBlend mode="normal" in2="shape" result="effect1_innerShadow_1033_14847"/>
<feColorMatrix in="SourceAlpha" type="matrix" values="0 0 0 0 0 0 0 0 0 0 0 0 0 0 0 0 0 0 127 0" result="hardAlpha"/>
<feOffset dx="0.807017" dy="1.61403"/>
<feGaussianBlur stdDeviation="1.07602"/>
<feComposite in2="hardAlpha" operator="arithmetic" k2="-1" k3="1"/>
<feColorMatrix type="matrix" values="0 0 0 0 0.0470588 0 0 0 0 0.0823529 0 0 0 0 0.25098 0 0 0 1 0"/>
<feBlend mode="normal" in2="effect1_innerShadow_1033_14847" result="effect2_innerShadow_1033_14847"/>
</filter>
<filter id="filter9_i_1033_14847" x="107.824" y="23.1419" width="7.93457" height="9.72355" filterUnits="userSpaceOnUse" color-interpolation-filters="sRGB">
<feFlood flood-opacity="0" result="BackgroundImageFix"/>
<feBlend mode="normal" in="SourceGraphic" in2="BackgroundImageFix" result="shape"/>
<feColorMatrix in="SourceAlpha" type="matrix" values="0 0 0 0 0 0 0 0 0 0 0 0 0 0 0 0 0 0 127 0" result="hardAlpha"/>
<feOffset dy="-1.07602"/>
<feGaussianBlur stdDeviation="1.07602"/>
<feComposite in2="hardAlpha" operator="arithmetic" k2="-1" k3="1"/>
<feColorMatrix type="matrix" values="0 0 0 0 0.0711111 0 0 0 0 0.144094 0 0 0 0 0.533333 0 0 0 1 0"/>
<feBlend mode="normal" in2="shape" result="effect1_innerShadow_1033_14847"/>
</filter>
<filter id="filter10_i_1033_14847" x="103.297" y="136.077" width="21.576" height="14.2114" filterUnits="userSpaceOnUse" color-interpolation-filters="sRGB">
<feFlood flood-opacity="0" result="BackgroundImageFix"/>
<feBlend mode="normal" in="SourceGraphic" in2="BackgroundImageFix" result="shape"/>
<feColorMatrix in="SourceAlpha" type="matrix" values="0 0 0 0 0 0 0 0 0 0 0 0 0 0 0 0 0 0 127 0" result="hardAlpha"/>
<feOffset dx="1.07602" dy="2.15205"/>
<feGaussianBlur stdDeviation="1.07602"/>
<feComposite in2="hardAlpha" operator="arithmetic" k2="-1" k3="1"/>
<feColorMatrix type="matrix" values="0 0 0 0 0.0509804 0 0 0 0 0.0823529 0 0 0 0 0.258824 0 0 0 0.3 0"/>
<feBlend mode="normal" in2="shape" result="effect1_innerShadow_1033_14847"/>
</filter>
<filter id="filter11_ii_1033_14847" x="45.4772" y="7.9682" width="4.68142" height="16.844" filterUnits="userSpaceOnUse" color-interpolation-filters="sRGB">
<feFlood flood-opacity="0" result="BackgroundImageFix"/>
<feBlend mode="normal" in="SourceGraphic" in2="BackgroundImageFix" result="shape"/>
<feColorMatrix in="SourceAlpha" type="matrix" values="0 0 0 0 0 0 0 0 0 0 0 0 0 0 0 0 0 0 127 0" result="hardAlpha"/>
<feOffset dx="0.807017" dy="0.538012"/>
<feGaussianBlur stdDeviation="1.07602"/>
<feComposite in2="hardAlpha" operator="arithmetic" k2="-1" k3="1"/>
<feColorMatrix type="matrix" values="0 0 0 0 0.111337 0 0 0 0 0.179327 0 0 0 0 0.504167 0 0 0 1 0"/>
<feBlend mode="normal" in2="shape" result="effect1_innerShadow_1033_14847"/>
<feColorMatrix in="SourceAlpha" type="matrix" values="0 0 0 0 0 0 0 0 0 0 0 0 0 0 0 0 0 0 127 0" result="hardAlpha"/>
<feOffset dx="-0.807017" dy="0.538012"/>
<feGaussianBlur stdDeviation="1.07602"/>
<feComposite in2="hardAlpha" operator="arithmetic" k2="-1" k3="1"/>
<feColorMatrix type="matrix" values="0 0 0 0 0.0470588 0 0 0 0 0.0823529 0 0 0 0 0.25098 0 0 0 1 0"/>
<feBlend mode="normal" in2="effect1_innerShadow_1033_14847" result="effect2_innerShadow_1033_14847"/>
</filter>
<linearGradient id="paint0_linear_1033_14847" x1="32.3037" y1="141.919" x2="27.5046" y2="138.318" gradientUnits="userSpaceOnUse">
<stop stop-color="#7A85A7"/>
<stop offset="0.66" stop-color="#F6F7F8"/>
<stop offset="1" stop-color="#A4AECE"/>
</linearGradient>
<linearGradient id="paint1_linear_1033_14847" x1="83.8464" y1="9.57555" x2="36.4398" y2="20.6066" gradientUnits="userSpaceOnUse">
<stop stop-color="#4C65E5"/>
<stop offset="0.525" stop-color="#C8D0F9"/>
<stop offset="1" stop-color="#657CF0"/>
</linearGradient>
<linearGradient id="paint2_linear_1033_14847" x1="83.8462" y1="9.57553" x2="36.4396" y2="20.6066" gradientUnits="userSpaceOnUse">
<stop stop-color="#4C65E5"/>
<stop offset="0.525" stop-color="#C8D0F9"/>
<stop offset="1" stop-color="#657CF0"/>
</linearGradient>
<linearGradient id="paint3_linear_1033_14847" x1="84.054" y1="12.4477" x2="38.6563" y2="22.3927" gradientUnits="userSpaceOnUse">
<stop stop-color="#4C65E5"/>
<stop offset="0.5" stop-color="#8898F2"/>
<stop offset="1" stop-color="#4C65E5"/>
</linearGradient>
<linearGradient id="paint4_linear_1033_14847" x1="44.5235" y1="5.08233" x2="39.4549" y2="30.1144" gradientUnits="userSpaceOnUse">
<stop stop-color="#9BA9F2" stop-opacity="0.4"/>
<stop offset="0.52" stop-color="#F6F7F8"/>
<stop offset="1" stop-color="#AFBBF5" stop-opacity="0"/>
</linearGradient>
<linearGradient id="paint5_linear_1033_14847" x1="85.9289" y1="25.3069" x2="81.6618" y2="7.53275" gradientUnits="userSpaceOnUse">
<stop stop-color="#111B4F"/>
<stop offset="1" stop-color="#080F34"/>
</linearGradient>
<linearGradient id="paint6_linear_1033_14847" x1="7.0114" y1="3.44248" x2="0.0142769" y2="3.52038" gradientUnits="userSpaceOnUse">
<stop stop-color="#C0C6D9"/>
<stop offset="0.195" stop-color="#808BAD"/>
<stop offset="0.666667" stop-color="#F6F7F8"/>
<stop offset="1" stop-color="#9AA4C4"/>
</linearGradient>
<radialGradient id="paint7_radial_1033_14847" cx="0" cy="0" r="1" gradientUnits="userSpaceOnUse" gradientTransform="translate(55.3897 0.424769) rotate(60.5547) scale(3.6956 5.53416)">
<stop stop-color="#F5F6F8"/>
<stop offset="1" stop-color="#7A85A7"/>
</radialGradient>
<linearGradient id="paint8_linear_1033_14847" x1="96.9682" y1="21.0769" x2="93.3427" y2="34.6474" gradientUnits="userSpaceOnUse">
<stop stop-color="#ABB3D2"/>
<stop offset="1" stop-color="#465394"/>
</linearGradient>
<linearGradient id="paint9_linear_1033_14847" x1="98.4628" y1="13.9992" x2="96.7151" y2="21.0407" gradientUnits="userSpaceOnUse">
<stop stop-color="#677195"/>
<stop offset="0.3" stop-color="#E4E8F3"/>
<stop offset="0.58" stop-color="#8290BC"/>
<stop offset="0.72" stop-color="#B4BACD"/>
<stop offset="0.895" stop-color="#485077"/>
</linearGradient>
<radialGradient id="paint10_angular_1033_14847" cx="0" cy="0" r="1" gradientUnits="userSpaceOnUse" gradientTransform="translate(93.1126 88.6016) rotate(97.4246) scale(57.5117 50.3572)">
<stop offset="0.53" stop-color="#8898F2"/>
<stop offset="0.76" stop-color="#334EDB"/>
<stop offset="0.915" stop-color="#4C65E5"/>
<stop offset="0.987882" stop-color="#3E59E0"/>
</radialGradient>
<linearGradient id="paint11_linear_1033_14847" x1="68.4483" y1="25.5435" x2="68.4483" y2="144.77" gradientUnits="userSpaceOnUse">
<stop stop-color="#677CEE"/>
<stop offset="1" stop-color="#4C65E5"/>
</linearGradient>
<linearGradient id="paint12_linear_1033_14847" x1="31.5179" y1="35.8663" x2="89.37" y2="141.421" gradientUnits="userSpaceOnUse">
<stop offset="0.165" stop-color="#758AFB"/>
<stop offset="0.335" stop-color="#6277EC"/>
<stop offset="1" stop-color="#4C65E5"/>
</linearGradient>
<radialGradient id="paint13_angular_1033_14847" cx="0" cy="0" r="1" gradientUnits="userSpaceOnUse" gradientTransform="translate(68.4482 85.1565) rotate(44.8091) scale(56.0017 51.5971)">
<stop offset="0.16713" stop-color="#E8EBFC"/>
<stop offset="0.42" stop-color="#97A5F0"/>
<stop offset="0.706748" stop-color="#A8B4F5"/>
</radialGradient>
<linearGradient id="paint14_linear_1033_14847" x1="57.0826" y1="39.4154" x2="87.9864" y2="129.589" gradientUnits="userSpaceOnUse">
<stop stop-color="#B9C3FF"/>
<stop offset="0.5" stop-color="#EDF0FF"/>
<stop offset="1" stop-color="white"/>
</linearGradient>
<linearGradient id="paint15_linear_1033_14847" x1="48.4775" y1="119.381" x2="44.9182" y2="123.821" gradientUnits="userSpaceOnUse">
<stop stop-color="#4C65E5"/>
<stop offset="1" stop-color="#334EDB"/>
</linearGradient>
<linearGradient id="paint16_linear_1033_14847" x1="101.599" y1="16.1147" x2="101.467" y2="22.2599" gradientUnits="userSpaceOnUse">
<stop stop-color="#94A2E5"/>
<stop offset="1" stop-color="#525A7F"/>
</linearGradient>
<radialGradient id="paint17_radial_1033_14847" cx="0" cy="0" r="1" gradientUnits="userSpaceOnUse" gradientTransform="translate(116.557 45.7338) rotate(90) scale(2.1085 5.18766)">
<stop stop-color="#6979A7"/>
<stop offset="0.725" stop-color="#9BA4C0"/>
<stop offset="1" stop-color="#848FB0"/>
</radialGradient>
<linearGradient id="paint18_linear_1033_14847" x1="116.732" y1="39.8005" x2="122.532" y2="44.1524" gradientUnits="userSpaceOnUse">
<stop offset="0.13" stop-color="#C0C6D9"/>
<stop offset="0.36" stop-color="#808BAD"/>
<stop offset="0.625" stop-color="#C2C2C2"/>
<stop offset="1" stop-color="#9AA4C4"/>
</linearGradient>
<linearGradient id="paint19_linear_1033_14847" x1="109.128" y1="14.5392" x2="148.163" y2="47.9984" gradientUnits="userSpaceOnUse">
<stop stop-color="#C8D0F9"/>
<stop offset="0.79" stop-color="#4C65E5"/>
</linearGradient>
<radialGradient id="paint20_radial_1033_14847" cx="0" cy="0" r="1" gradientUnits="userSpaceOnUse" gradientTransform="translate(135.79 16.1906) rotate(83.8058) scale(4.50582 7.83805)">
<stop stop-color="#EFF0F3"/>
<stop offset="0.71" stop-color="#9CA4BD"/>
<stop offset="1" stop-color="#7A85A7"/>
</radialGradient>
<linearGradient id="paint21_linear_1033_14847" x1="109.129" y1="14.5392" x2="148.164" y2="47.9984" gradientUnits="userSpaceOnUse">
<stop stop-color="#C8D0F9"/>
<stop offset="0.79" stop-color="#4C65E5"/>
</linearGradient>
<linearGradient id="paint22_linear_1033_14847" x1="105.954" y1="20.7561" x2="146.169" y2="49.9274" gradientUnits="userSpaceOnUse">
<stop stop-color="#6277E8"/>
<stop offset="0.215" stop-color="#A2AFF3"/>
<stop offset="0.645" stop-color="#3150EF"/>
<stop offset="1" stop-color="#7287F4"/>
</linearGradient>
<linearGradient id="paint23_linear_1033_14847" x1="128.132" y1="13.5573" x2="102.754" y2="21.345" gradientUnits="userSpaceOnUse">
<stop stop-color="#9BA9F2" stop-opacity="0.4"/>
<stop offset="0.52" stop-color="#F6F7F8"/>
<stop offset="1" stop-color="#AFBBF5" stop-opacity="0"/>
</linearGradient>
<linearGradient id="paint24_linear_1033_14847" x1="72.913" y1="124.999" x2="74.8715" y2="130.356" gradientUnits="userSpaceOnUse">
<stop stop-color="#4B65E5"/>
<stop offset="1" stop-color="#3450DC"/>
</linearGradient>
<radialGradient id="paint25_radial_1033_14847" cx="0" cy="0" r="1" gradientUnits="userSpaceOnUse" gradientTransform="translate(67.9801 84.5248) rotate(46.9529) scale(6.37113)">
<stop stop-color="#F6F7F8"/>
<stop offset="1" stop-color="#4C65E5"/>
</radialGradient>
<linearGradient id="paint26_linear_1033_14847" x1="113.699" y1="138.663" x2="110.92" y2="146.68" gradientUnits="userSpaceOnUse">
<stop stop-color="#F6F7F8"/>
<stop offset="0.605" stop-color="#7A85A7"/>
<stop offset="1" stop-color="#A4AECE"/>
</linearGradient>
<clipPath id="clip0_1033_14847">
<rect width="160" height="160" fill="white"/>
</clipPath>
</defs>
</svg>
