<svg width="273" height="284" viewBox="0 0 273 284" fill="none" xmlns="http://www.w3.org/2000/svg">
<g clip-path="url(#clip0_752_6896)">
<path d="M110.858 387.287L213.537 169.752L181.786 143.344L81.4667 108.767L-172.659 215.372L110.858 387.287Z" fill="url(#paint0_linear_752_6896)"/>
<path d="M273 37.7227L121.655 128.257L77.7109 110.291L273 37.7227Z" fill="white"/>
<path d="M121.526 128.257L273 37.7227L162.286 147.716L131.921 177.297L121.526 128.257Z" fill="url(#paint1_linear_752_6896)"/>
<path d="M273 37.7227L156.578 136.174L213.475 169.752L273 37.7227Z" fill="url(#paint2_linear_752_6896)"/>
<path d="M157.042 135.802L131.541 177.297L172.852 146.218L157.042 135.802Z" fill="url(#paint3_linear_752_6896)"/>
</g>
<defs>
<linearGradient id="paint0_linear_752_6896" x1="182.28" y1="102.936" x2="64.792" y2="263.482" gradientUnits="userSpaceOnUse">
<stop stop-color="#A8B4F5" stop-opacity="0.4"/>
<stop offset="1" stop-color="#E8EBFC" stop-opacity="0"/>
</linearGradient>
<linearGradient id="paint1_linear_752_6896" x1="193.378" y1="126.319" x2="170.112" y2="99.3078" gradientUnits="userSpaceOnUse">
<stop stop-color="#96A6F9"/>
<stop offset="1" stop-color="#DFE4FF"/>
</linearGradient>
<linearGradient id="paint2_linear_752_6896" x1="273.267" y1="34.2507" x2="193.707" y2="170.029" gradientUnits="userSpaceOnUse">
<stop stop-color="white"/>
<stop offset="1" stop-color="#EFF2FF"/>
</linearGradient>
<linearGradient id="paint3_linear_752_6896" x1="170.692" y1="145.506" x2="125.907" y2="177.561" gradientUnits="userSpaceOnUse">
<stop stop-color="#8094FF"/>
<stop offset="1" stop-color="#97A7FF"/>
</linearGradient>
<clipPath id="clip0_752_6896">
<rect width="338" height="284" fill="white" transform="translate(-65)"/>
</clipPath>
</defs>
</svg>
