<svg width="33" height="30" viewBox="0 0 33 30" fill="none" xmlns="http://www.w3.org/2000/svg">
<g clip-path="url(#clip0_1874_20203)">
<path d="M3.16891 1.66423C0.944076 3.4787 0.390263 6.58256 1.70632 9.01847C1.99972 9.56153 2.71532 9.62971 3.19366 9.2396L10.5845 3.21196C11.0629 2.82185 11.14 2.10716 10.667 1.71054C8.54556 -0.0685161 5.39374 -0.150236 3.16891 1.66423Z" fill="#4C65E6"/>
<path d="M29.8311 1.66472C32.0559 3.47919 32.6097 6.58305 31.2937 9.01896C31.0003 9.56202 30.2847 9.6302 29.8063 9.24009L22.4155 3.21245C21.9371 2.82234 21.86 2.10765 22.333 1.71103C24.4544 -0.0680278 27.6063 -0.149748 29.8311 1.66472Z" fill="#4C65E6"/>
<rect x="14.9844" y="10.5605" width="2.71532" height="7.97626" rx="1.35766" fill="#4C65E6"/>
<rect x="20.8789" y="19.8818" width="2.71532" height="6.46214" rx="1.35766" transform="rotate(135 20.8789 19.8818)" fill="#4C65E6"/>
<path d="M16.5482 29.9996C9.42403 29.9996 3.62695 24.2026 3.62695 17.0784C3.62695 9.95431 9.42403 4.15723 16.5482 4.15723C23.6723 4.15723 29.4694 9.95431 29.4694 17.0784C29.4694 24.2026 23.6723 29.9996 16.5482 29.9996ZM7.74777 17.0784C7.74777 21.9326 11.694 25.8788 16.5482 25.8788C21.4023 25.8788 25.3485 21.9326 25.3485 17.0784C25.3485 12.2242 21.4023 8.27804 16.5482 8.27804C11.694 8.27804 7.74777 12.2242 7.74777 17.0784Z" fill="#4C65E6"/>
</g>
<defs>
<clipPath id="clip0_1874_20203">
<rect width="33" height="30" fill="white"/>
</clipPath>
</defs>
</svg>
